<svg width="176" height="34" viewBox="0 0 176 34" fill="none" xmlns="http://www.w3.org/2000/svg">
<path d="M165.272 31.6002C163.245 31.6002 161.485 31.1868 159.992 30.3602C158.498 29.5068 157.338 28.3068 156.512 26.7602C155.712 25.2135 155.312 23.4002 155.312 21.3202C155.312 19.2402 155.738 17.4402 156.592 15.9202C157.472 14.4002 158.658 13.2268 160.152 12.4002C161.672 11.5735 163.378 11.1602 165.272 11.1602C167.165 11.1602 168.858 11.5735 170.352 12.4002C171.845 13.2002 173.018 14.3602 173.872 15.8802C174.752 17.4002 175.192 19.2135 175.192 21.3202C175.192 23.4268 174.778 25.2535 173.952 26.8002C173.152 28.3202 172.005 29.5068 170.512 30.3602C169.045 31.1868 167.298 31.6002 165.272 31.6002ZM165.272 30.8002C166.205 30.8002 166.952 30.5335 167.512 30.0002C168.072 29.4668 168.472 28.5202 168.712 27.1602C168.978 25.8002 169.112 23.8802 169.112 21.4002C169.112 18.8935 168.978 16.9602 168.712 15.6002C168.472 14.2402 168.072 13.2935 167.512 12.7602C166.952 12.2268 166.205 11.9602 165.272 11.9602C164.338 11.9602 163.578 12.2268 162.992 12.7602C162.432 13.2935 162.018 14.2402 161.752 15.6002C161.512 16.9602 161.392 18.8935 161.392 21.4002C161.392 23.8802 161.512 25.8002 161.752 27.1602C162.018 28.5202 162.432 29.4668 162.992 30.0002C163.578 30.5335 164.338 30.8002 165.272 30.8002Z" fill="#292F36"/>
<path d="M132.026 31.0002V30.6002L132.586 30.4402C133.52 30.1735 133.986 29.5202 133.986 28.4802V15.9602C133.986 15.3735 133.893 14.9468 133.706 14.6802C133.52 14.3868 133.16 14.1868 132.626 14.0802L132.026 13.9202V13.5202L138.866 11.2002L139.266 11.6002L139.586 14.0002C140.52 13.1735 141.573 12.4935 142.746 11.9602C143.92 11.4268 145.08 11.1602 146.226 11.1602C147.986 11.1602 149.333 11.6402 150.266 12.6002C151.226 13.5602 151.706 15.0268 151.706 17.0002V28.5202C151.706 29.5602 152.213 30.2135 153.226 30.4802L153.586 30.6002V31.0002H144.146V30.6002L144.666 30.4402C145.6 30.1468 146.066 29.4935 146.066 28.4802V15.7202C146.066 14.0135 145.213 13.1602 143.506 13.1602C142.333 13.1602 141.053 13.7468 139.666 14.9202V28.5202C139.666 29.5602 140.133 30.2135 141.066 30.4802L141.426 30.6002V31.0002H132.026Z" fill="#292F36"/>
<path d="M114.37 31.0002V30.6002L114.97 30.4402C115.503 30.2802 115.863 30.0402 116.05 29.7202C116.263 29.4002 116.37 28.9868 116.37 28.4802V15.9602C116.37 15.3735 116.263 14.9468 116.05 14.6802C115.863 14.3868 115.503 14.1868 114.97 14.0802L114.37 13.9202V13.5202L121.25 11.2002L121.65 11.6002L122.01 15.0402V15.3602C122.383 14.6135 122.863 13.9335 123.45 13.3202C124.063 12.6802 124.73 12.1602 125.45 11.7602C126.197 11.3602 126.93 11.1602 127.65 11.1602C128.663 11.1602 129.437 11.4402 129.97 12.0002C130.503 12.5602 130.77 13.2668 130.77 14.1202C130.77 15.0268 130.503 15.7335 129.97 16.2402C129.463 16.7202 128.85 16.9602 128.13 16.9602C127.01 16.9602 126.023 16.4002 125.17 15.2802L125.09 15.2002C124.823 14.8268 124.517 14.6268 124.17 14.6002C123.823 14.5468 123.503 14.7068 123.21 15.0802C122.943 15.3202 122.717 15.6135 122.53 15.9602C122.37 16.2802 122.21 16.6535 122.05 17.0802V28.2402C122.05 29.3068 122.517 29.9735 123.45 30.2402L124.73 30.6002V31.0002H114.37Z" fill="#292F36"/>
<path d="M104.137 11.1602C105.87 11.1602 107.35 11.5202 108.577 12.2402C109.804 12.9335 110.737 13.8935 111.377 15.1202C112.044 16.3202 112.377 17.6935 112.377 19.2402C112.377 19.5335 112.364 19.8402 112.337 20.1602C112.31 20.4535 112.257 20.7202 112.177 20.9602H100.257C100.284 23.8402 100.79 25.9202 101.777 27.2002C102.79 28.4535 104.284 29.0802 106.257 29.0802C107.59 29.0802 108.67 28.8668 109.497 28.4402C110.324 28.0135 111.097 27.3868 111.817 26.5602L112.217 26.9202C111.39 28.3868 110.284 29.5335 108.897 30.3602C107.537 31.1868 105.897 31.6002 103.977 31.6002C102.084 31.6002 100.404 31.2002 98.9368 30.4002C97.4702 29.5735 96.3235 28.4002 95.4968 26.8802C94.6702 25.3602 94.2568 23.5468 94.2568 21.4402C94.2568 19.2535 94.7368 17.4002 95.6968 15.8802C96.6568 14.3335 97.8835 13.1602 99.3768 12.3602C100.897 11.5602 102.484 11.1602 104.137 11.1602ZM104.017 11.9602C103.244 11.9602 102.577 12.2002 102.017 12.6802C101.484 13.1335 101.057 13.9602 100.737 15.1602C100.444 16.3335 100.284 18.0002 100.257 20.1602H107.097C107.364 17.2535 107.257 15.1602 106.777 13.8802C106.297 12.6002 105.377 11.9602 104.017 11.9602Z" fill="#292F36"/>
<path d="M87.3612 31.6002C85.6545 31.6002 84.3212 31.1735 83.3612 30.3202C82.4278 29.4668 81.9612 28.1068 81.9612 26.2402V12.5602H79.2012V12.1602L80.1612 12.0002C80.9878 11.8135 81.6945 11.5468 82.2812 11.2002C82.8945 10.8535 83.4945 10.3868 84.0812 9.80016L87.3612 6.16016H87.7612L87.6412 11.7602H92.1212V12.5602H87.6012V26.9602C87.6012 27.8935 87.8012 28.6002 88.2012 29.0802C88.6278 29.5602 89.1612 29.8002 89.8012 29.8002C90.3612 29.8002 90.8545 29.6668 91.2812 29.4002C91.7078 29.1068 92.1345 28.7202 92.5612 28.2402L92.9612 28.6402C92.4278 29.5468 91.6945 30.2668 90.7612 30.8002C89.8278 31.3335 88.6945 31.6002 87.3612 31.6002Z" fill="#292F36"/>
<path d="M56.8311 31.0002V30.6002L57.3911 30.4402C58.3244 30.1735 58.7911 29.5202 58.7911 28.4802V15.9602C58.7911 15.3735 58.6977 14.9468 58.5111 14.6802C58.3244 14.3868 57.9644 14.1868 57.4311 14.0802L56.8311 13.9202V13.5202L63.6711 11.2002L64.0711 11.6002L64.3911 14.0002C65.3244 13.1735 66.3777 12.4935 67.5511 11.9602C68.7244 11.4268 69.8844 11.1602 71.0311 11.1602C72.7911 11.1602 74.1377 11.6402 75.0711 12.6002C76.0311 13.5602 76.5111 15.0268 76.5111 17.0002V28.5202C76.5111 29.5602 77.0177 30.2135 78.0311 30.4802L78.3911 30.6002V31.0002H68.9511V30.6002L69.4711 30.4402C70.4044 30.1468 70.8711 29.4935 70.8711 28.4802V15.7202C70.8711 14.0135 70.0177 13.1602 68.3111 13.1602C67.1377 13.1602 65.8577 13.7468 64.4711 14.9202V28.5202C64.4711 29.5602 64.9377 30.2135 65.8711 30.4802L66.2311 30.6002V31.0002H56.8311Z" fill="#292F36"/>
<path d="M44.8799 31.0001V30.6001L45.6799 30.2801C46.2132 30.0934 46.5599 29.8401 46.7199 29.5201C46.9065 29.2001 46.9999 28.7734 46.9999 28.2401V7.3601C46.9999 6.82677 46.9199 6.4001 46.7599 6.0801C46.5999 5.7601 46.2399 5.50676 45.6799 5.3201L44.8799 5.0001V4.6001H55.1599V5.0001L54.3599 5.3201C53.8266 5.50676 53.4665 5.7601 53.2799 6.0801C53.1199 6.4001 53.0399 6.82677 53.0399 7.3601V28.2401C53.0399 28.7734 53.1199 29.2001 53.2799 29.5201C53.4665 29.8134 53.8266 30.0668 54.3599 30.2801L55.1599 30.6001V31.0001H44.8799Z" fill="#292F36"/>
<path d="M0 34.0003H13.4588V24.499C13.4588 22.4853 15.0898 20.8543 17.1035 20.8543C19.1172 20.8543 20.7482 22.4853 20.7482 24.499V34.0003H33.9975V0C15.2211 0 0 15.2211 0 34.0003Z" fill="#CDA274"/>
</svg>
