<?xml version="1.0" standalone="no"?>
<!DOCTYPE svg PUBLIC "-//W3C//DTD SVG 1.1//EN" "http://www.w3.org/Graphics/SVG/1.1/DTD/svg11.dtd" >
<svg xmlns="http://www.w3.org/2000/svg" xmlns:xlink="http://www.w3.org/1999/xlink" version="1.1">
<metadata>
Created by FontForge 20190801 at Tue Aug  1 17:26:53 2023
 By www-data
Copyright (c) Font Awesome
</metadata>
<defs>
<font id="FontAwesome6FreeRegular400" horiz-adv-x="512" >
  <font-face 
    font-family="FontAwesome6FreeRegular400"
    font-weight="400"
    font-stretch="normal"
    units-per-em="512"
    panose-1="2 0 5 3 0 0 0 0 0 0"
    ascent="448"
    descent="-64"
    x-height="414"
    bbox="-0.76 -64.4286 640.143 448.651"
    underline-thickness="25"
    underline-position="-74"
    unicode-range="U+0020-1F9ED"
  />
<missing-glyph horiz-adv-x="384" 
d="M48 26v332l115 -166zM77 -16l115 166l115 -166h-230zM221 192l115 166v-332zM307 400l-115 -166l-115 166h230zM0 400v-416q0 -20 14 -34t34 -14h288q20 0 34 14t14 34v416q0 20 -14 34t-34 14h-288q-20 0 -34 -14t-14 -34z" />
    <glyph glyph-name="exclamation" unicode="exclamation" horiz-adv-x="64" 
d="M56 392v-288q0 -10 -7 -17t-17 -7t-17 7t-7 17v288q0 10 7 17t17 7t17 -7t7 -17zM32 -32q-13 0 -22.5 9.5t-9.5 22.5t9.5 22.5t22.5 9.5t22.5 -9.5t9.5 -22.5t-9.5 -22.5t-22.5 -9.5z" />
    <glyph glyph-name="hashtag" unicode="hashtag" horiz-adv-x="448" 
d="M188.5 415.5q-9.5 1.5 -18 -4t-10.5 -14.5l-16 -85h-88q-10 0 -17 -7t-7 -17t7 -17t17 -7h78l-29 -144h-81q-10 0 -17 -7t-7 -17t7 -17t17 -7h72l-15 -75q-2 -10 3.5 -18.5t15 -10t18 4t10.5 14.5l17 85h111l-15 -75q-2 -10 3.5 -18.5t15 -10t18 4t10.5 14.5l17 85h87
q10 0 17 7t7 17t-7 17t-17 7h-78l29 144h81q10 0 17 7t7 17t-7 17t-17 7h-71l14 75q2 10 -3.5 18.5t-14.5 10.5q-7 1 -13 -1t-10 -7t-6 -11l-16 -85h-111l15 75q1 10 -4.5 18.5t-15 10zM183 264h111l-29 -144h-111z" />
    <glyph glyph-name="dollar-sign" unicode="dollar&#x2d;sign" horiz-adv-x="320" 
d="M184 424v-49q33 -4 72 -13q9 -2 14.5 -10.5t3 -18t-11 -15t-18.5 -3.5q-69 17 -113 13q-29 -2 -46 -13q-16 -10 -20 -30q-3 -15 2 -25q5 -9 17 -17q20 -12 82 -28h2q67 -17 93 -33q24 -15 35 -37q12 -24 6 -55q-10 -50 -65 -70q-23 -9 -53 -11v-49q0 -10 -7 -17t-17 -7
t-17 7t-7 17v50q-5 0 -10 1q-56 8 -96 26q-9 4 -12.5 13t0.5 18t13.5 13t18.5 -1q33 -14 83 -22q52 -7 87 6q30 12 35 35q3 15 -2 25q-5 9 -17 17q-20 12 -82 28h-2q-67 17 -93 33q-24 15 -35 37q-12 24 -6 55q8 40 42 62q26 16 67 20h9v48q0 10 7 17t17 7t17 -7t7 -17z
M184 424z" />
    <glyph glyph-name="percent" unicode="percentage" horiz-adv-x="384" 
d="M369 335l-320 -320q-7 -7 -17 -7t-17 7t-7 17t7 17l320 320q7 7 17 7t17 -7t7 -17t-7 -17zM112 320q0 -28 -24 -42q-11 -6 -24 -6t-24 6q-24 14 -24 42t24 42q11 6 24 6t24 -6q24 -14 24 -42zM368 64q0 -28 -24 -41.5t-48 0t-24 41.5t24 41.5t48 0t24 -41.5z" />
    <glyph glyph-name="asterisk" unicode="asterisk" horiz-adv-x="384" 
d="M192 416q-10 0 -17 -7t-7 -17v-157l-131 81q-9 6 -18.5 3.5t-15 -11t-3 -18t10.5 -14.5l135 -84l-135 -84q-8 -5 -10.5 -14.5t3 -18t15 -11t18.5 3.5l131 81v-157q0 -10 7 -17t17 -7t17 7t7 17v157l131 -81q9 -6 18.5 -3.5t15 11t3 18t-10.5 14.5l-135 84l135 84
q8 5 10.5 14.5t-3 18t-15 11t-18.5 -3.5l-131 -81v157q0 10 -7 17t-17 7z" />
    <glyph glyph-name="plus" unicode="add" horiz-adv-x="448" 
d="M248 376v-160h160q10 0 17 -7t7 -17t-7 -17t-17 -7h-160v-160q0 -10 -7 -17t-17 -7t-17 7t-7 17v160h-160q-10 0 -17 7t-7 17t7 17t17 7h160v160q0 10 7 17t17 7t17 -7t7 -17z" />
    <glyph glyph-name="hyphen" unicode="hyphen" horiz-adv-x="320" 
d="M0 192q0 -10 7 -17t17 -7h272q10 0 17 7t7 17t-7 17t-17 7h-272q-10 0 -17 -7t-7 -17z" />
    <glyph glyph-name="less-than" unicode="less&#x2d;than" horiz-adv-x="384" 
d="M381.5 371q-4.5 9 -14 12t-18.5 -2l-336 -168q-13 -6 -13 -21t13 -21l336 -168q9 -5 18.5 -2t14 12t1.5 18.5t-12 13.5l-293 147l293 146q9 5 12 14.5t-1.5 18.5zM382 371z" />
    <glyph glyph-name="equals" unicode="equals" horiz-adv-x="448" 
d="M40 304h368q10 0 17 -7t7 -17t-7 -17t-17 -7h-368q-10 0 -17 7t-7 17t7 17t17 7zM40 128h368q10 0 17 -7t7 -17t-7 -17t-17 -7h-368q-10 0 -17 7t-7 17t7 17t17 7z" />
    <glyph glyph-name="greater-than" unicode="greater&#x2d;than" horiz-adv-x="384" 
d="M2.5 371q4.5 9 14 12t18.5 -1l336 -168q13 -7 13 -22t-13 -21l-336 -168q-9 -5 -18.5 -2t-14 12t-1.5 18.5t12 13.5l293 147l-293 146q-9 5 -12 14.5t1.5 18.5z" />
    <glyph glyph-name="question" unicode="question" horiz-adv-x="320" 
d="M64 288q0 -10 -7 -17t-17 -7t-17 7t-7 17q0 53 37.5 90.5t90.5 37.5h32q53 0 90.5 -37.5t37.5 -90.5v-5q0 -30 -14 -56.5t-40 -42.5l-52 -35q-14 -10 -14 -27v-2q0 -10 -7 -17t-17 -7t-17 7t-7 17v2q0 43 36 67l52 35q32 21 32 59v5q0 33 -23.5 56.5t-56.5 23.5h-32
q-33 0 -56.5 -23.5t-23.5 -56.5zM160 -32q-13 0 -22.5 9.5t-9.5 22.5t9.5 22.5t22.5 9.5t22.5 -9.5t9.5 -22.5t-9.5 -22.5t-22.5 -9.5z" />
    <glyph glyph-name="at" unicode="at" 
d="M256 400q86 0 147 -61t61 -147v-28q0 -18 -13 -31t-31 -13t-31 13t-13 31v28v80q0 10 -7 17t-17 7q-13 0 -20 -11q-33 27 -76 27q-50 0 -85 -35t-35 -85t35 -85t85 -35q53 0 89 39q27 -39 75 -39q38 0 65 27t27 65v28q0 106 -75 181t-181 75t-181 -75t-75 -181t75 -181
t181 -75q10 0 17 7t7 17t-7 17t-17 7q-86 0 -147 61t-61 147t61 147t147 61zM328 192q0 -42 -36 -62.5t-72 0t-36 62.5t36 62.5t72 0t36 -62.5z" />
    <glyph glyph-name="copyright" unicode="copyright" 
d="M256 400q-56 0 -104 -28t-76 -76t-28 -104t28 -104t76 -76t104 -28t104 28t76 76t28 104t-28 104t-76 76t-104 28zM256 -64q-69 0 -128 34.5t-93.5 93.5t-34.5 128t34.5 128t93.5 93.5t128 34.5t128 -34.5t93.5 -93.5t34.5 -128t-34.5 -128t-93.5 -93.5t-128 -34.5z
M199.5 135.5q23.5 -23.5 56.5 -23.5t56 23q7 7 17 7t17 -7t7 -17t-7 -17q-37 -37 -90 -37t-90.5 37.5t-37.5 90.5t37.5 90.5t90.5 37.5t90 -38q7 -7 7 -16.5t-7 -17t-16.5 -7.5t-16.5 8q-24 23 -57 23t-56.5 -23.5t-23.5 -56.5t23.5 -56.5zM199 135z" />
    <glyph glyph-name="registered" unicode="registered" 
d="M256 400q-56 0 -104 -28t-76 -76t-28 -104t28 -104t76 -76t104 -28t104 28t76 76t28 104t-28 104t-76 76t-104 28zM256 -64q-69 0 -128 34.5t-93.5 93.5t-34.5 128t34.5 128t93.5 93.5t128 34.5t128 -34.5t93.5 -93.5t34.5 -128t-34.5 -128t-93.5 -93.5t-128 -34.5z
M160 296q0 10 7 17t17 7h88q33 0 56.5 -23.5t23.5 -56.5q0 -43 -36 -67l34 -75q4 -9 0.5 -18.5t-12.5 -13.5t-18.5 -0.5t-13.5 12.5l-37 82h-61v-72q0 -10 -7 -17t-17 -7t-17 7t-7 17v96v112zM208 208h64q13 0 22.5 9.5t9.5 22.5t-9.5 22.5t-22.5 9.5h-64v-64z" />
    <glyph glyph-name="keyboard" unicode="keyboard" horiz-adv-x="576" 
d="M64 336h448q7 0 11.5 -4.5t4.5 -11.5v-256q0 -7 -4.5 -11.5t-11.5 -4.5h-448q-7 0 -11.5 4.5t-4.5 11.5v256q0 7 4.5 11.5t11.5 4.5zM0 320v-256q0 -26 19 -45t45 -19h448q26 0 45 19t19 45v256q0 26 -19 45t-45 19h-448q-26 0 -45 -19t-19 -45zM176 128q-7 0 -11.5 -4.5
t-4.5 -11.5v-16q0 -7 4.5 -11.5t11.5 -4.5h224q7 0 11.5 4.5t4.5 11.5v16q0 7 -4.5 11.5t-11.5 4.5h-224zM104 200v-16q0 -7 4.5 -11.5t11.5 -4.5h16q7 0 11.5 4.5t4.5 11.5v16q0 7 -4.5 11.5t-11.5 4.5h-16q-7 0 -11.5 -4.5t-4.5 -11.5zM120 296q-7 0 -11.5 -4.5
t-4.5 -11.5v-16q0 -7 4.5 -11.5t11.5 -4.5h16q7 0 11.5 4.5t4.5 11.5v16q0 7 -4.5 11.5t-11.5 4.5h-16zM184 200v-16q0 -7 4.5 -11.5t11.5 -4.5h16q7 0 11.5 4.5t4.5 11.5v16q0 7 -4.5 11.5t-11.5 4.5h-16q-7 0 -11.5 -4.5t-4.5 -11.5zM200 296q-7 0 -11.5 -4.5t-4.5 -11.5
v-16q0 -7 4.5 -11.5t11.5 -4.5h16q7 0 11.5 4.5t4.5 11.5v16q0 7 -4.5 11.5t-11.5 4.5h-16zM264 200v-16q0 -7 4.5 -11.5t11.5 -4.5h16q7 0 11.5 4.5t4.5 11.5v16q0 7 -4.5 11.5t-11.5 4.5h-16q-7 0 -11.5 -4.5t-4.5 -11.5zM280 296q-7 0 -11.5 -4.5t-4.5 -11.5v-16
q0 -7 4.5 -11.5t11.5 -4.5h16q7 0 11.5 4.5t4.5 11.5v16q0 7 -4.5 11.5t-11.5 4.5h-16zM344 200v-16q0 -7 4.5 -11.5t11.5 -4.5h16q7 0 11.5 4.5t4.5 11.5v16q0 7 -4.5 11.5t-11.5 4.5h-16q-7 0 -11.5 -4.5t-4.5 -11.5zM360 296q-7 0 -11.5 -4.5t-4.5 -11.5v-16
q0 -7 4.5 -11.5t11.5 -4.5h16q7 0 11.5 4.5t4.5 11.5v16q0 7 -4.5 11.5t-11.5 4.5h-16zM424 200v-16q0 -7 4.5 -11.5t11.5 -4.5h16q7 0 11.5 4.5t4.5 11.5v16q0 7 -4.5 11.5t-11.5 4.5h-16q-7 0 -11.5 -4.5t-4.5 -11.5zM440 296q-7 0 -11.5 -4.5t-4.5 -11.5v-16
q0 -7 4.5 -11.5t11.5 -4.5h16q7 0 11.5 4.5t4.5 11.5v16q0 7 -4.5 11.5t-11.5 4.5h-16z" />
    <glyph glyph-name="hourglass" unicode="hourglass&#x2d;empty" horiz-adv-x="384" 
d="M24 448h336q10 0 17 -7t7 -17t-7 -17t-17 -7h-8v-19q0 -63 -45 -107l-81 -82l82 -82q44 -44 44 -107v-19h8q10 0 17 -7t7 -17t-7 -17t-17 -7h-336q-10 0 -17 7t-7 17t7 17t17 7h8v19q0 63 44 107l82 82l-82 82q-44 44 -44 107v19h-8q-10 0 -17 7t-7 17t7 17t17 7z
M192 158l-82 -82q-30 -30 -30 -73v-19h224v19q0 43 -30 74zM192 226l82 82q30 30 30 73v19h-224v-19q0 -43 30 -73zM192 226z" />
    <glyph glyph-name="moon" unicode="moon" horiz-adv-x="384" 
d="M145 349q-44 -22 -70.5 -64t-26.5 -93q0 -73 51.5 -124.5t123.5 -51.5q20 0 39 4q-67 23 -108.5 81t-41.5 131q0 64 33 117zM207 415q2 0 7 1h10h8q5 0 10 -1q12 -1 14.5 -12.5t-7.5 -17.5l-10 -5q-6 -5 -12 -9q0 -1 -1.5 -2l-1.5 -1q-64 -53 -64 -136q0 -73 51 -124.5
t124 -51.5h4q6 0 15 1q4 0 11 2q12 2 17.5 -8.5t-3.5 -19.5q-4 -3 -8 -7q-7 -6 -14 -11q0 -1 -2 -2.5t-3 -1.5q-58 -41 -128 -41q-93 0 -158.5 65.5t-65.5 158.5q0 88 60 152.5t147 70.5zM207 415z" />
    <glyph glyph-name="square" unicode="square" horiz-adv-x="448" 
d="M384 368h-320q-7 0 -11.5 -4.5t-4.5 -11.5v-320q0 -7 4.5 -11.5t11.5 -4.5h320q7 0 11.5 4.5t4.5 11.5v320q0 7 -4.5 11.5t-11.5 4.5zM64 416h320q26 0 45 -19t19 -45v-320q0 -26 -19 -45t-45 -19h-320q-26 0 -45 19t-19 45v320q0 26 19 45t45 19z" />
    <glyph glyph-name="circle" unicode="circle" 
d="M464 192q0 -56 -28 -104t-76 -76t-104 -28t-104 28t-76 76t-28 104q0 37 12.5 71.5t36 62.5t55.5 46q48 28 104 28t104 -28t76 -76t28 -104zM0 192q0 -69 34.5 -128t93.5 -93.5t128 -34.5t128 34.5t93.5 93.5t34.5 128t-34.5 128t-93.5 93.5t-128 34.5t-128 -34.5
t-93.5 -93.5t-34.5 -128z" />
    <glyph glyph-name="sun" unicode="sun" 
d="M376 428l18 -98l98 -18q13 -3 18 -15t-2 -23l-57 -82l57 -83q7 -10 2 -22t-18 -15l-98 -18l-18 -98q-3 -13 -15 -18t-23 2l-82 57l-83 -57q-10 -7 -22 -2t-15 18l-18 98l-98 18q-13 3 -18 15t2 23l57 82l-57 82q-7 11 -2 23t18 15l98 18l18 98q3 13 15 18t23 -2l82 -57
l82 57q11 7 23 2t15 -18zM270 338q-14 -9 -28 0l-65 45l-15 -78q-3 -16 -19 -19l-78 -15l45 -65q9 -14 0 -28l-45 -65l78 -15q16 -3 19 -19l15 -78l65 45q14 9 28 0l65 -45l15 78q3 16 19 19l78 15l-45 65q-9 14 0 28l45 65l-78 15q-16 3 -19 19l-15 78zM256 80
q-30 0 -56 15t-41 41t-15 56t15 56t41 41t56 15t56 -15t41 -41t15 -56t-15 -56t-41 -41t-56 -15zM192 192q0 -37 32 -55.5t64 0t32 55.5t-32 55.5t-64 0t-32 -55.5z" />
    <glyph glyph-name="square-check" unicode="check&#x2d;square" horiz-adv-x="448" 
d="M64 368h320q7 0 11.5 -4.5t4.5 -11.5v-320q0 -7 -4.5 -11.5t-11.5 -4.5h-320q-7 0 -11.5 4.5t-4.5 11.5v320q0 7 4.5 11.5t11.5 4.5zM0 352v-320q0 -26 19 -45t45 -19h320q26 0 45 19t19 45v320q0 26 -19 45t-45 19h-320q-26 0 -45 -19t-19 -45zM337 239q7 7 7 17t-7 17
t-17 7t-17 -7l-111 -111l-47 47q-7 7 -17 7t-17 -7t-7 -17t7 -17l64 -64q7 -7 17 -7t17 7zM337 239z" />
    <glyph glyph-name="hand-point-up" unicode="hand&#x2d;point&#x2d;up" horiz-adv-x="384" 
d="M64 384q0 7 4.5 11.5t11.5 4.5t11.5 -4.5t4.5 -11.5v-144v-32h-16q-8 0 -16 -2v178zM80 160h40h40q7 0 11.5 -4.5t4.5 -11.5t-4.5 -11.5t-11.5 -4.5h-40q-10 0 -17 -7t-7 -17t7 -17t17 -7h40q22 0 40 14q18 -14 40 -14q16 0 30 8q20 -24 50 -24q5 0 9 1
q-12 -36 -43 -58.5t-70 -22.5h-48q-50 0 -85 35t-35 85v24q0 13 9.5 22.5t22.5 9.5zM0 128v-24q0 -70 49 -119t119 -49h48q70 0 119 49t49 119v24v64q0 26 -19 45t-45 19q-16 0 -30 -8q-20 24 -50 24q-12 0 -22 -4q-6 11 -14.5 19t-20 12.5t-23.5 4.5q-8 0 -16 -2v82
q0 26 -19 45t-45 19t-45 -19t-19 -45v-208q-16 -21 -16 -48zM336 192v-64q0 -7 -4.5 -11.5t-11.5 -4.5t-11.5 4.5t-4.5 11.5v16v48q0 7 4.5 11.5t11.5 4.5t11.5 -4.5t4.5 -11.5zM160 208h-16v32q0 7 4.5 11.5t11.5 4.5t11.5 -4.5t4.5 -11.5v-32v-2q-8 2 -16 2zM224 184v24
q0 7 4.5 11.5t11.5 4.5t11.5 -4.5t4.5 -11.5v-16v-48q0 -7 -4.5 -11.5t-11.5 -4.5t-11.5 4.5t-4.5 11.5v40z" />
    <glyph glyph-name="face-frown" unicode="face&#x2d;frown" 
d="M464 192q0 -56 -28 -104t-76 -76t-104 -28t-104 28t-76 76t-28 104q0 37 12.5 71.5t36 62.5t55.5 46q48 28 104 28t104 -28t76 -76t28 -104zM0 192q0 -69 34.5 -128t93.5 -93.5t128 -34.5t128 34.5t93.5 93.5t34.5 128t-34.5 128t-93.5 93.5t-128 34.5t-128 -34.5
t-93.5 -93.5t-34.5 -128zM175 64q7 20 29 34t52 14t52 -14t29 -34q4 -10 13 -14t18.5 -0.5t13.5 12.5t1 18q-7 18 -19.5 33t-29 25.5t-37 16t-41.5 5.5q-43 0 -78.5 -22t-48.5 -58q-3 -9 1.5 -18t13.5 -12.5t18 1t13 13.5zM144 240q0 -13 9.5 -22.5t23 -9.5t22.5 9.5t9 22.5
t-9 22.5t-22.5 9.5t-23 -9.5t-9.5 -22.5zM336.5 272q-13.5 0 -23 -9.5t-9.5 -22.5t9.5 -22.5t23 -9.5t22.5 9.5t9 22.5t-9 22.5t-22.5 9.5z" />
    <glyph glyph-name="chess-king" unicode="chess&#x2d;king" horiz-adv-x="448" 
d="M248 424v-32h32q10 0 17 -7t7 -17t-7 -17t-17 -7h-32v-40h140q25 0 42.5 -17.5t17.5 -42.5q0 -12 -5 -23l-54 -125h-52l62 144q1 2 1 4q0 5 -3.5 8.5t-8.5 3.5h-164h-164q-5 0 -8.5 -3.5t-3.5 -8.5q0 -2 1 -4l62 -144h-52l-54 125q-5 11 -5 23q0 25 17.5 42.5t42.5 17.5
h140v40h-32q-10 0 -17 7t-7 17t7 17t17 7h32v32q0 10 7 17t17 7t17 -7t7 -17zM101 16l-16 -32h278l-16 32h-246zM385 47l26 -51q5 -9 5 -19q0 -17 -12 -29t-29 -12h-302q-17 0 -29 12t-12 29q0 10 5 19l26 51q9 17 28 17h265q20 0 29 -17zM385 47z" />
    <glyph glyph-name="chess-queen" unicode="chess&#x2d;queen" 
d="M256 352q-28 0 -41.5 24t0 48t41.5 24t41.5 -24t0 -48t-41.5 -24zM161 360q21 0 32 -19q21 -37 63 -37t63 37q11 19 32 19q13 0 22.5 -8t13.5 -19q6 -20 23 -32.5t38 -12.5q14 0 28 6q12 6 24 -1q8 -5 10.5 -15t-2.5 -19l-94 -163h-55l83 144q-20 1 -38 9t-32 21t-23 30
q-36 -44 -93 -44t-93 44q-13 -26 -38 -42t-55 -18l83 -144h-55l-94 163q-5 9 -2.5 19t10.5 15q12 7 24 1q13 -6 28 -6q21 0 38 12.5t23 32.5q4 11 13.5 19t22.5 8zM133 16l-16 -32h278l-16 32h-246zM417 47l26 -51q5 -9 5 -19q0 -17 -12 -29t-29 -12h-302q-17 0 -29 12
t-12 29q0 10 5 19l26 51q9 17 29 17h265q19 0 28 -17zM417 47z" />
    <glyph glyph-name="chess-rook" unicode="chess&#x2d;rook" horiz-adv-x="448" 
d="M80 368h64v-24q0 -10 7 -17t17 -7t17 7t7 17v24h64v-24q0 -10 7 -17t17 -7t17 7t7 17v24h64v-112q0 -4 -3 -6l-51 -39q-11 -8 -10 -22l11 -93h48l-10 85l41 30q22 17 22 45v120q0 17 -11.5 28.5t-28.5 11.5h-304q-17 0 -28.5 -11.5t-11.5 -28.5v-120q0 -28 22 -45l41 -30
l-10 -85h48l11 93q1 14 -10 22l-51 39q-3 2 -3 6v112zM85 -16l16 32h246l16 -32h-278zM357 64h-265q-20 0 -29 -17l-26 -51q-5 -9 -5 -19q0 -17 12 -29t29 -12h302q9 0 16.5 3t13 8.5t8.5 13.5t3 16q0 10 -4 19l-27 51q-9 17 -28 17zM208 160h32q7 0 11.5 4.5t4.5 11.5v48
q0 13 -9.5 22.5t-22.5 9.5t-22.5 -9.5t-9.5 -22.5v-48q0 -7 4.5 -11.5t11.5 -4.5z" />
    <glyph glyph-name="chess-bishop" unicode="chess&#x2d;bishop" horiz-adv-x="320" 
d="M104 448h56h56q10 0 17 -7t7 -17q0 -18 -18 -23q12 -13 24 -27q74 -89 74 -177q0 -56 -48 -88v-13h-48v27q0 15 13 21q35 18 35 53q0 41 -21 84l-58 -58q-7 -7 -17 -7t-17 7t-7 17t7 17l66 66l-16 20q-20 24 -44 45l-2.5 2.5l-2.5 2.5q-1 0 -2.5 -2t-2.5 -3
q-24 -21 -45 -45q-62 -75 -62 -146q0 -35 35 -53q13 -6 13 -21v-27h-48v13q-48 32 -48 88q0 88 74 177q11 13 24 27q-18 4 -18 23q0 10 7 17t17 7zM53 -16h214l-16 32h-182zM261 64h-1q20 0 29 -17l26 -51q5 -9 5 -19q0 -17 -12 -29t-29 -12h-238q-17 0 -29 12t-12 29
q0 10 5 19l26 51q9 17 28 17h202zM261 64z" />
    <glyph glyph-name="chess-knight" unicode="chess&#x2d;knight" horiz-adv-x="448" 
d="M227 400q58 0 99.5 -41.5t41.5 -99.5q0 -13 -2 -25l-25 -138h49l23 129q3 17 3 34q0 78 -55.5 133.5t-133.5 55.5h-118q-18 0 -31.5 -13.5t-13.5 -31.5q0 -23 18 -37h1q-19 -23 -19 -54v-91q0 -41 33 -65l2 -1q2 -2 4 -3q-28 -22 -36 -56h50q6 12 17 20l54 39l50 37
q8 5 9.5 15t-4.5 18t-15.5 9.5t-17.5 -4.5l-50 -36q-17 -12 -33 0l-2 1q-13 10 -13 26v91q0 20 16 32l6 5q10 7 10 19t-10 19l-17 13h110zM85 16h278l16 -32h-310zM401 47q-9 17 -29 17h-297q-19 0 -28 -17l-26 -51q-5 -9 -5 -19q0 -17 12 -29t29 -12h334q9 0 16.5 3t13 8.5
t8.5 13.5t3 16q0 10 -5 19zM172 320q-8 0 -14 -6t-6 -14t6 -14t14 -6t14 6t6 14t-6 14t-14 6z" />
    <glyph glyph-name="chess-pawn" unicode="chess&#x2d;pawn" horiz-adv-x="320" 
d="M232 296q0 -42 -36 -62.5t-72 0t-36 62.5t36 62.5t72 0t36 -62.5zM256 176q10 0 17 7t7 17t-7 17t-17 7q24 32 24 72q0 50 -35 85t-85 35t-85 -35t-35 -85q0 -40 24 -72q-10 0 -17 -7t-7 -17t7 -17t17 -7h13l-11 -80h48l11 80h35h35l11 -80h48l-11 80h13zM53 -16l16 32
h182l16 -32h-214zM261 64h-201q-20 0 -29 -17l-26 -51q-5 -9 -5 -19q0 -17 12 -29t29 -12h238q9 0 16.5 3t13 8.5t8.5 13.5t3 16q0 10 -4 19l-27 51q-9 17 -28 17zM261 64z" />
    <glyph glyph-name="heart" unicode="heart" 
d="M226 -20q12 -12 29.5 -12t30.5 12l3 2l175 163q48 44 48 110v3q0 35 -15.5 66t-42.5 51.5t-61 27.5q-61 11 -112 -25q-6 -4 -12 -9q-7 -6 -13 -13q-11 13 -25 22q-51 36 -112 25q-52 -10 -85.5 -51t-33.5 -94v-3q0 -66 48 -110l175 -163zM239 303q7 -7 17 -7t17 7l1 1
l18 20v0q17 20 41.5 28t50.5 3q35 -6 57.5 -33.5t22.5 -63.5v-3q0 -45 -33 -75l-175 -163l-175 163q-33 30 -33 75v3q0 36 22.5 63.5t57.5 33.5q26 5 50.5 -3t41.5 -28v0l18 -20zM239 303z" />
    <glyph glyph-name="futbol" unicode="futbol&#x2d;ball" 
d="M435 87q24 39 28 85l-76 48q-7 4 -9.5 11.5t0.5 15.5l34 83q-31 34 -73 53l-69 -58q-6 -5 -14 -5t-14 5l-69 58q-42 -19 -73 -53l34 -83q3 -8 0.5 -15.5t-9.5 -11.5l-76 -48q4 -46 28 -85l89 6q9 0 15 -4q6 -5 8 -13l22 -87q23 -5 45 -5q23 0 45 5l22 87q2 8 8 12
q7 5 15 5zM256 400h-1h2h-1zM57 252l3 9q-2 -5 -3 -9zM132 25q1 0 2 -1l2 -2zM380 25l-4 -3q2 2 4 3zM455 252q-1 5 -3 9zM256 -64q-69 0 -128 34.5t-93.5 93.5t-34.5 128t34.5 128t93.5 93.5t128 34.5q34 0 67 -9t61.5 -25.5t52.5 -40.5t41 -53q34 -59 34 -128t-34.5 -128
t-93.5 -93.5t-128 -34.5zM270 262l48 -35q14 -10 9 -27l-19 -56q-5 -17 -22 -17h-60q-17 0 -22 17l-19 56q-5 17 9 27l48 35q14 10 28 0zM270 262z" />
    <glyph glyph-name="envelope" unicode="envelope" 
d="M64 336h384q7 0 11.5 -4.5t4.5 -11.5v-22l-172 -142q-16 -12 -36 -12t-36 12l-172 142v22q0 7 4.5 11.5t11.5 4.5zM48 236l142 -117q29 -23 66 -23t66 23l142 117v-172q0 -7 -4.5 -11.5t-11.5 -4.5h-384q-7 0 -11.5 4.5t-4.5 11.5v172zM0 320v-256q0 -26 19 -45t45 -19
h384q26 0 45 19t19 45v256q0 26 -19 45t-45 19h-384q-26 0 -45 -19t-19 -45z" />
    <glyph glyph-name="hand" unicode="hand&#x2d;paper" 
d="M256 448q12 0 23.5 -4.5t20 -12.5t14.5 -19q10 4 22 4q26 0 45 -19t19 -45v-2q8 2 16 2q26 0 45 -19t19 -45v-176v-4q-5 -69 -54 -118t-118 -54h-4h-8h-9q-106 0 -181 75l-87 88q-19 18 -19 44.5t19 45.5t45.5 19t44.5 -19l3 -3v166q0 26 19 45t45 19q12 0 22 -4
q8 16 23.5 26t34.5 10zM240 352v-136q0 -10 -7 -17t-17 -7t-17 7t-7 17v136q0 7 -4.5 11.5t-11.5 4.5t-11.5 -4.5t-4.5 -11.5v-223q0 -17 -15 -23t-26 6l-44 43q-4 5 -11 5t-11.5 -4.5t-4.5 -11.5t5 -11l87 -88q61 -61 147 -61h9h5h2q52 3 89 40t40 89v1v1v173
q0 7 -4.5 11.5t-11.5 4.5t-11.5 -4.5t-4.5 -11.5v-72q0 -10 -7 -17t-17 -7t-17 7t-7 17v80v56q0 7 -4.5 11.5t-11.5 4.5t-11.5 -4.5t-4.5 -11.5v-136q0 -10 -7 -17t-17 -7t-17 7t-7 17v136v32q0 7 -4.5 11.5t-11.5 4.5t-11.5 -4.5t-4.5 -11.5v-32z" />
    <glyph glyph-name="hand-peace" unicode="hand&#x2d;peace" 
d="M250.5 446.5q26.5 -2.5 43 -23t14.5 -47.5l-6 -56h2q19 0 34.5 -10t23.5 -26q10 4 22 4q26 0 45 -19t19 -45v-32v-16v-72q0 -70 -49 -119t-119 -49h-48q-70 0 -119 49t-49 119v24q0 34 25 58l-53 150q-5 17 -2.5 33t14 29.5t27.5 19.5q17 5 33.5 2t29.5 -14t19 -28
l17 -49l6 61q3 26 23.5 42.5t47 14zM251 291h-1l10 90q1 7 -3.5 12t-10.5 6q-5 0 -8.5 -1.5t-6 -5t-3.5 -7.5l-17 -162l6 -15h7q8 0 16 -2v2v48q0 19 11 35zM111 362q-2 7 -8 9.5t-12 0.5t-9 -8t-1 -12l51 -145q6 1 12 1h22zM288 256v-48q0 -7 4.5 -11.5t11.5 -4.5t11.5 4.5
t4.5 11.5v16v32q0 7 -4.5 11.5t-11.5 4.5t-11.5 -4.5t-4.5 -11.5zM326 148q-10 -4 -22 -4q-8 0 -16 2v-2q0 -26 -19 -45t-45 -19h-40q-10 0 -17 7t-7 17t7 17t17 7h40q7 0 11.5 4.5t4.5 11.5t-4.5 11.5t-11.5 4.5h-80q-13 0 -22.5 -9.5t-9.5 -22.5v-24q0 -50 35 -85t85 -35
h48q50 0 85 35t35 85v10q-8 -2 -16 -2q-19 0 -34.5 10t-23.5 26zM400 176v16v32q0 7 -4.5 11.5t-11.5 4.5t-11.5 -4.5t-4.5 -11.5v-16v-32q0 -7 4.5 -11.5t11.5 -4.5t11.5 4.5t4.5 11.5z" />
    <glyph glyph-name="snowflake" unicode="snowflake" horiz-adv-x="448" 
d="M224 448q-10 0 -17 -7t-7 -17v-46l-23 23q-7 7 -17 7t-17 -7t-7 -17t7 -17l57 -57v-76l-66 38l-21 78q-3 9 -11.5 14t-18 2.5t-14.5 -11t-2 -18.5l8 -31l-37 21q-9 5 -18.5 2.5t-14.5 -11t-2.5 -18t11.5 -14.5l37 -22l-31 -8q-10 -3 -15 -11.5t-2.5 -18t11 -14.5t18.5 -3
l78 21l66 -38l-66 -38l-78 21q-6 1 -12.5 -0.5t-11 -6t-5.5 -10.5q-3 -10 2 -18.5t15 -11.5l31 -8l-37 -22q-9 -5 -11.5 -14.5t2.5 -18t14.5 -11t18.5 2.5l37 21l-8 -31q-3 -10 2 -18.5t14.5 -11t18.5 2.5t11 14l21 78l66 38v-76l-57 -57q-7 -7 -7 -17t7 -17t17 -7t17 7
l23 23v-46q0 -10 7 -17t17 -7t17 7t7 17v46l23 -23q7 -7 17 -7t17 7t7 17t-7 17l-57 57v76l66 -38l21 -78q3 -9 11.5 -14t18 -2.5t14.5 11t2 18.5l-8 31l37 -21q9 -5 18.5 -2.5t14.5 11t2.5 18t-11.5 14.5l-37 22l31 8q7 2 11.5 6.5t6 10.5t-0.5 13q-2 9 -10.5 14t-18.5 3
l-78 -21l-66 38l66 38l78 -21q10 -2 18.5 3t10.5 14q2 5 1 10t-3 9t-6 7t-9 4l-31 8l37 22q9 5 11.5 14.5t-2.5 18t-14.5 11t-18.5 -2.5l-37 -21l8 31q3 10 -2 18.5t-15 10.5q-6 2 -12 0.5t-10.5 -6t-6.5 -10.5l-21 -78l-66 -38v76l57 57q7 7 7 17t-7 17t-17 7t-17 -7
l-23 -23v46q0 10 -7 17t-17 7zM224 448z" />
    <glyph glyph-name="square-full" unicode="square&#x2d;full" 
d="M464 400h-416v-416h416v416zM48 448h416h48v-48v-416v-48h-48h-416h-48v48v416v48h48z" />
    <glyph glyph-name="star" unicode="star" horiz-adv-x="576" 
d="M288 448q-15 0 -22 -14l-68 -141l-154 -22q-14 -3 -18.5 -17t5.5 -24l111 -110l-26 -156q-2 -15 10 -23.5t25 -1.5l137 73l137 -73q13 -7 25 1.5t10 23.5l-26 156l111 110q10 10 5.5 24t-19.5 17l-153 22l-68 141q-7 14 -22 14zM288 369l52 -108q6 -12 19 -14l118 -17
l-86 -85q-9 -9 -7 -21l20 -120l-105 56q-11 7 -22 0l-106 -56l21 120q2 12 -7 21l-86 85l118 17q13 2 18 14z" />
    <glyph glyph-name="folder-closed" unicode="folder&#x2d;closed" 
d="M252 320l-43 43l34 34l-34 -34q-5 5 -11 5h-134q-7 0 -11.5 -4.5t-4.5 -11.5v-96h416v32q0 7 -4.5 11.5t-11.5 4.5h-157q-23 0 -39 16zM48 208v-176q0 -7 4.5 -11.5t11.5 -4.5h384q7 0 11.5 4.5t4.5 11.5v176h-416zM286 354q2 -2 5 -2h157q26 0 45 -19t19 -45v-256
q0 -26 -19 -45t-45 -19h-384q-26 0 -45 19t-19 45v320q0 26 19 45t45 19h133q27 0 46 -19zM286 354z" />
    <glyph glyph-name="notdef" unicode="notdef" horiz-adv-x="384" 
d="M48 26v332l115 -166zM77 -16l115 166l115 -166h-230zM221 192l115 166v-332zM307 400l-115 -166l-115 166h230zM0 400v-416q0 -20 14 -34t34 -14h288q20 0 34 14t14 34v416q0 20 -14 34t-34 14h-288q-20 0 -34 -14t-14 -34z" />
    <glyph glyph-name="user" unicode="user" horiz-adv-x="448" 
d="M304 320q0 -46 -40 -69t-80 0t-40 69t40 69t80 0t40 -69zM96 320q0 -34 17 -64t47 -47t64 -17t64 17t47 47t17 64q0 23 -7.5 44t-22 38.5t-34.5 28.5q-30 17 -64 17t-64 -17q-20 -11 -34.5 -28.5t-22 -38.5t-7.5 -44zM49 -16q7 48 43.5 80t85.5 32h92q49 0 85.5 -32
t43.5 -80h-350zM0 -34q0 -13 8.5 -21.5t21.5 -8.5h388q13 0 21.5 8.5t8.5 21.5q0 74 -52 126t-126 52h-92q-74 0 -126 -52t-52 -126z" />
    <glyph glyph-name="trash-can" unicode="trash&#x2d;alt" horiz-adv-x="448" 
d="M170 396q3 4 7 4h94q4 0 7 -4l18 -28h-144zM317 423q-16 25 -46 25h-94q-30 0 -47 -25l-36 -55h-14h-48h-8q-10 0 -17 -7t-7 -17t7 -17t17 -7h8v-304q0 -33 23.5 -56.5t56.5 -23.5h224q33 0 56.5 23.5t23.5 56.5v304h8q10 0 17 7t7 17t-7 17t-17 7h-8h-48h-14zM80 320
h288v-304q0 -13 -9.5 -22.5t-22.5 -9.5h-224q-13 0 -22.5 9.5t-9.5 22.5v304zM160 256q0 7 -4.5 11.5t-11.5 4.5t-11.5 -4.5t-4.5 -11.5v-208q0 -7 4.5 -11.5t11.5 -4.5t11.5 4.5t4.5 11.5v208zM240 256q0 7 -4.5 11.5t-11.5 4.5t-11.5 -4.5t-4.5 -11.5v-208q0 -7 4.5 -11.5
t11.5 -4.5t11.5 4.5t4.5 11.5v208zM320 256q0 7 -4.5 11.5t-11.5 4.5t-11.5 -4.5t-4.5 -11.5v-208q0 -7 4.5 -11.5t11.5 -4.5t11.5 4.5t4.5 11.5v208z" />
    <glyph glyph-name="file" unicode="file" horiz-adv-x="384" 
d="M320 -16h-256q-7 0 -11.5 4.5t-4.5 11.5v384q0 7 4.5 11.5t11.5 4.5h160v-80q0 -13 9.5 -22.5t22.5 -9.5h80v-288q0 -7 -4.5 -11.5t-11.5 -4.5zM0 384v-384q0 -26 19 -45t45 -19h256q26 0 45 19t19 45v294q0 26 -19 45l-90 90q-19 19 -45 19h-166q-26 0 -45 -19t-19 -45z
" />
    <glyph glyph-name="clock" unicode="clock&#x2d;four" 
d="M464 192q0 28 -7 54.5t-20.5 49.5t-33 42.5t-43.5 33.5q-48 28 -104 28t-104 -28t-76 -76t-28 -104t28 -104t76 -76t104 -28t104 28t76 76t28 104zM0 192q0 69 34.5 128t93.5 93.5t128 34.5t128 -34.5t93.5 -93.5t34.5 -128t-34.5 -128t-93.5 -93.5t-128 -34.5t-128 34.5
t-93.5 93.5t-34.5 128zM232 328q0 10 7 17t17 7t17 -7t7 -17v-123l85 -57q9 -6 11 -15.5t-4 -18t-15.5 -10.5t-17.5 4l-96 64q-11 7 -11 20v136z" />
    <glyph glyph-name="circle-down" unicode="arrow&#x2d;alt&#x2d;circle&#x2d;down" 
d="M256 -16q56 0 104 28t76 76t28 104t-28 104t-76 76t-104 28t-104 -28t-76 -76t-28 -104t28 -104t76 -76t104 -28zM256 448q69 0 128 -34.5t93.5 -93.5t34.5 -128t-34.5 -128t-93.5 -93.5t-128 -34.5t-128 34.5t-93.5 93.5t-34.5 128t34.5 128t93.5 93.5t128 34.5z
M377 153l-107 -99q-6 -6 -14 -6t-14 6l-107 99q-7 7 -7 17q0 9 6.5 15.5t15.5 6.5h58v96q0 13 9.5 22.5t22.5 9.5h32q13 0 22.5 -9.5t9.5 -22.5v-96h58q9 0 15.5 -6.5t6.5 -15.5q0 -10 -7 -17zM377 153z" />
    <glyph glyph-name="circle-up" unicode="arrow&#x2d;alt&#x2d;circle&#x2d;up" 
d="M256 400q-56 0 -104 -28t-76 -76t-28 -104t28 -104t76 -76t104 -28t104 28t76 76t28 104t-28 104t-76 76t-104 28zM256 -64q-69 0 -128 34.5t-93.5 93.5t-34.5 128t34.5 128t93.5 93.5t128 34.5t128 -34.5t93.5 -93.5t34.5 -128t-34.5 -128t-93.5 -93.5t-128 -34.5z
M135 231l107 99q6 6 14 6t14 -6l107 -99q7 -7 7 -17q0 -9 -6.5 -15.5t-15.5 -6.5h-58v-96q0 -13 -9.5 -22.5t-22.5 -9.5h-32q-13 0 -22.5 9.5t-9.5 22.5v96h-58q-9 0 -15.5 6.5t-6.5 15.5q0 10 7 17z" />
    <glyph glyph-name="circle-play" unicode="circle&#x2d;play" 
d="M464 192q0 -56 -28 -104t-76 -76t-104 -28t-104 28t-76 76t-28 104q0 37 12.5 71.5t36 62.5t55.5 46q48 28 104 28t104 -28t76 -76t28 -104zM0 192q0 -69 34.5 -128t93.5 -93.5t128 -34.5t128 34.5t93.5 93.5t34.5 128t-34.5 128t-93.5 93.5t-128 34.5t-128 -34.5
t-93.5 -93.5t-34.5 -128zM188.5 301q-12.5 -7 -12.5 -21v-176q0 -14 12.5 -21t24.5 0l144 88q11 8 11 21t-11 20l-144 88q-12 8 -24.5 1z" />
    <glyph glyph-name="rectangle-list" unicode="list&#x2d;alt" horiz-adv-x="576" 
d="M64 368h448q7 0 11.5 -4.5t4.5 -11.5v-320q0 -7 -4.5 -11.5t-11.5 -4.5h-448q-7 0 -11.5 4.5t-4.5 11.5v320q0 7 4.5 11.5t11.5 4.5zM0 352v-320q0 -26 19 -45t45 -19h448q26 0 45 19t19 45v320q0 26 -19 45t-45 19h-448q-26 0 -45 -19t-19 -45zM96 288q0 -13 9.5 -22.5
t22.5 -9.5t22.5 9.5t9.5 22.5t-9.5 22.5t-22.5 9.5t-22.5 -9.5t-9.5 -22.5zM200 288q0 -10 7 -17t17 -7h224q10 0 17 7t7 17t-7 17t-17 7h-224q-10 0 -17 -7t-7 -17zM200 192q0 -10 7 -17t17 -7h224q10 0 17 7t7 17t-7 17t-17 7h-224q-10 0 -17 -7t-7 -17zM200 96
q0 -10 7 -17t17 -7h224q10 0 17 7t7 17t-7 17t-17 7h-224q-10 0 -17 -7t-7 -17zM128 160q13 0 22.5 9.5t9.5 22.5t-9.5 22.5t-22.5 9.5t-22.5 -9.5t-9.5 -22.5t9.5 -22.5t22.5 -9.5zM96 96q0 -13 9.5 -22.5t22.5 -9.5t22.5 9.5t9.5 22.5t-9.5 22.5t-22.5 9.5t-22.5 -9.5
t-9.5 -22.5z" />
    <glyph glyph-name="flag" unicode="flag" horiz-adv-x="448" 
d="M48 424v-28l85 21q59 15 114 -12q23 -12 48 -16t50.5 0t48.5 16l9 5q16 7 30.5 -2t14.5 -26v-280q0 -22 -21 -30l-35 -13q-72 -27 -141 8q-59 29 -123 13l-80 -20v-100q0 -10 -7 -17t-17 -7t-17 7t-7 17v88v50v286v40q0 10 7 17t17 7t17 -7t7 -17zM48 347v-237l69 17
q81 20 155 -17q51 -26 104 -6l24 9v242q-89 -36 -175 7q-39 19 -80 9z" />
    <glyph glyph-name="bookmark" unicode="bookmark" horiz-adv-x="384" 
d="M0 400v-440q0 -15 13 -21.5t25 2.5l154 110l154 -110q12 -9 25 -2.5t13 21.5v440q0 20 -14 34t-34 14h-288v-48h288v-393l-130 93q-14 10 -28 0l-130 -93v393v48q-20 0 -34 -14t-14 -34z" />
    <glyph glyph-name="image" unicode="image" 
d="M448 368h-384q-7 0 -11.5 -4.5t-4.5 -11.5v-320l4 6l80 112q8 10 20 10t20 -10l30 -43l83 108q7 9 19 9t19 -9l136 -176l5 -7v320q0 7 -4.5 11.5t-11.5 4.5zM64 416h384q26 0 45 -19t19 -45v-320q0 -26 -19 -45t-45 -19h-384q-26 0 -45 19t-19 45v320q0 26 19 45t45 19z
M144 224q-28 0 -41.5 24t0 48t41.5 24t41.5 -24t0 -48t-41.5 -24z" />
    <glyph glyph-name="pen-to-square" unicode="edit" 
d="M441 389q-7 7 -17 7t-17 -7l-29 -29l46 -46l29 29q7 7 7 17t-7 17zM210 192q-5 -5 -6 -11l-17 -58l58 17q6 1 11 6l134 134l-46 46zM373 423q21 21 51 21t51 -21l12 -12q21 -21 21 -51t-21 -51l-197 -197q-13 -13 -31 -18l-100 -29q-14 -4 -24 6t-6 24l28 100q6 18 19 31
zM88 384h112q10 0 17 -7t7 -17t-7 -17t-17 -7h-112q-17 0 -28.5 -11.5t-11.5 -28.5v-272q0 -17 11.5 -28.5t28.5 -11.5h272q17 0 28.5 11.5t11.5 28.5v112q0 10 7 17t17 7t17 -7t7 -17v-112q0 -36 -26 -62t-62 -26h-272q-36 0 -62 26t-26 62v272q0 36 26 62t62 26z" />
    <glyph glyph-name="share-from-square" unicode="share&#x2d;from&#x2d;square" horiz-adv-x="576" 
d="M400 193l106 95l-106 95v-15v-32q0 -7 -4.5 -11.5t-11.5 -4.5h-32h-16h-48q-46 0 -79 -33t-33 -79q0 -17 5 -32q11 35 41 57.5t68 22.5h46h16h32q7 0 11.5 -4.5t4.5 -11.5v-32v-15zM336 208h-32h-14q-27 0 -46.5 -19t-19.5 -46q0 -13 4 -23l6 -8q0 -1 0.5 -2t1 -1.5
l2.5 -2.5q3 -2 5 -4q1 0 1 -0.5v-0.5q12 -9 12 -19q0 -8 -5 -13t-13 -5h-2q-4 0 -7 1q-4 2 -9 4q-6 3 -11 7q-9 5 -17 11q-64 48 -64 121q0 66 47 113t113 47h16h32h16v45q0 15 10 25t25 10q13 0 23 -9l138 -124q12 -11 12 -27t-12 -27l-139 -125q-9 -8 -21 -8h-4
q-13 0 -22.5 9.5t-9.5 22.5v48h-16zM72 416h64q10 0 17 -7t7 -17t-7 -17t-17 -7h-64q-10 0 -17 -7t-7 -17v-336q0 -10 7 -17t17 -7h336q10 0 17 7t7 17v64q0 10 7 17t17 7t17 -7t7 -17v-64q0 -30 -21 -51t-51 -21h-336q-30 0 -51 21t-21 51v336q0 30 21 51t51 21z" />
    <glyph glyph-name="circle-xmark" unicode="circle&#x2d;xmark" 
d="M256 400q-56 0 -104 -28t-76 -76t-28 -104t28 -104t76 -76t104 -28t104 28t76 76t28 104t-28 104t-76 76t-104 28zM256 -64q-69 0 -128 34.5t-93.5 93.5t-34.5 128t34.5 128t93.5 93.5t128 34.5t128 -34.5t93.5 -93.5t34.5 -128t-34.5 -128t-93.5 -93.5t-128 -34.5z
M175 273q7 7 17 7t17 -7l47 -47l47 47q7 7 17 7t17 -7t7 -17t-7 -17l-47 -47l47 -47q7 -7 7 -17t-7 -17t-17 -7t-17 7l-47 47l-47 -47q-7 -7 -17 -7t-17 7t-7 17t7 17l47 47l-47 47q-7 7 -7 17t7 17z" />
    <glyph glyph-name="circle-check" unicode="check&#x2d;circle" 
d="M256 400q-56 0 -104 -28t-76 -76t-28 -104t28 -104t76 -76t104 -28t104 28t76 76t28 104t-28 104t-76 76t-104 28zM256 -64q-69 0 -128 34.5t-93.5 93.5t-34.5 128t34.5 128t93.5 93.5t128 34.5t128 -34.5t93.5 -93.5t34.5 -128t-34.5 -128t-93.5 -93.5t-128 -34.5z
M369 239l-128 -128q-7 -7 -17 -7t-17 7l-64 64q-7 7 -7 17t7 17t17 7t17 -7l47 -47l111 111q7 7 17 7t17 -7q3 -4 5 -8t2 -9t-2 -9.5t-5 -7.5z" />
    <glyph glyph-name="circle-question" unicode="circle&#x2d;question" 
d="M464 192q0 -56 -28 -104t-76 -76t-104 -28t-104 28t-76 76t-28 104q0 37 12.5 71.5t36 62.5t55.5 46q48 28 104 28t104 -28t76 -76t28 -104zM0 192q0 -69 34.5 -128t93.5 -93.5t128 -34.5t128 34.5t93.5 93.5t34.5 128t-34.5 128t-93.5 93.5t-128 34.5t-128 -34.5
t-93.5 -93.5t-34.5 -128zM170 283v-2q-2 -6 -1 -12t5 -11t10 -7q9 -4 18 0.5t13 13.5v2q2 5 8 5h58q6 0 10.5 -4.5t4.5 -10.5q0 -9 -8 -13l-44 -26q-12 -7 -12 -20v-14q0 -10 7 -17t17 -7t17 7t7 17l32 18q32 18 32 55q0 26 -18.5 44.5t-44.5 18.5h-58q-18 0 -32.5 -10.5
t-20.5 -26.5zM224 96q0 -13 9.5 -22.5t22.5 -9.5t22.5 9.5t9.5 22.5t-9.5 22.5t-22.5 9.5t-22.5 -9.5t-9.5 -22.5z" />
    <glyph glyph-name="eye" unicode="eye" horiz-adv-x="576" 
d="M288 368q87 0 160 -68q51 -47 79 -108q-28 -61 -79 -108q-73 -68 -160 -68t-160 68q-51 47 -79 108q28 61 79 108q73 68 160 68zM95 335q-62 -58 -92 -131q-6 -12 0 -24q30 -73 92 -131q87 -81 193 -81t193 81q62 58 93 131q5 12 0 24q-31 73 -93 131q-87 81 -193 81
t-193 -81zM288 112q-33 0 -56.5 23.5t-23.5 56.5v2q8 -2 16 -2q26 0 45 19t19 45q0 8 -2 16h2q33 0 56.5 -23.5t23.5 -56.5t-23.5 -56.5t-56.5 -23.5zM288 320q-23 0 -44 -7.5t-38.5 -22t-28.5 -34.5q-17 -30 -17 -64t17 -64t47 -47t64 -17t64 17t47 47t17 64t-17 64
q-11 20 -28.5 34.5t-38.5 22t-44 7.5z" />
    <glyph glyph-name="eye-slash" unicode="eye&#x2d;slash" horiz-adv-x="640" 
d="M39 443l112 -88q78 61 169 61q106 0 192 -81q63 -58 93 -131q6 -12 0 -24q-26 -64 -79 -119l105 -82q8 -6 9 -16t-5 -18t-16 -9t-18 5l-592 464q-8 6 -9 16t5 18t16 9t18 -5zM190 325l46 -36q36 31 84 31q53 0 90.5 -37.5t37.5 -90.5q0 -31 -14 -59l54 -42q46 46 71 101
q-28 61 -79 108q-73 68 -160 68q-69 0 -130 -43zM395 164q5 13 5 28q0 33 -23.5 56.5t-56.5 23.5h-2q2 -8 2 -16q0 -15 -7 -28zM404 34l42 -33q-60 -33 -126 -33q-106 0 -192 81q-63 58 -93 131q-6 12 0 24q17 41 48 83l38 -30q-25 -32 -40 -65q28 -61 79 -108
q73 -68 160 -68q43 0 84 18zM192 192v9l56 -45q17 -34 54 -42l56 -44q-18 -6 -38 -6q-53 0 -90.5 37.5t-37.5 90.5zM192 192z" />
    <glyph glyph-name="calendar-days" unicode="calendar&#x2d;days" horiz-adv-x="448" 
d="M152 424v-40h144v40q0 10 7 17t17 7t17 -7t7 -17v-40h40q26 0 45 -19t19 -45v-16v-48v-256q0 -26 -19 -45t-45 -19h-320q-26 0 -45 19t-19 45v256v48v16q0 26 19 45t45 19h40v40q0 10 7 17t17 7t17 -7t7 -17zM48 256v-56h80v56h-80zM48 152v-64h80v64h-80zM176 152v-64
h96v64h-96zM320 152v-64h80v64h-80zM400 200v56h-80v-56h80zM400 40h-80v-56h64q7 0 11.5 4.5t4.5 11.5v40zM272 40h-96v-56h96v56zM128 40h-80v-40q0 -7 4.5 -11.5t11.5 -4.5h64v56zM272 200v56h-96v-56h96z" />
    <glyph glyph-name="comment" unicode="comment" 
d="M124 57q-17 -13 -40 -23q10 25 12 49q1 21 -12 36q-36 40 -36 89q0 40 25.5 76.5t74 60t108.5 23.5q90 0 149 -48.5t59 -111.5t-59 -111.5t-149 -48.5q-46 0 -88 15q-24 9 -44 -6zM21 16v0q-3 -4 -5 -7q-6 -8 -11 -14q-8 -7 -4 -17t15 -10q7 0 15 1h1q5 0 13 2h1h1
q25 5 51 16q30 14 54 31q49 -18 104 -18q106 0 181 61t75 147q0 57 -34.5 104.5t-93 75.5t-128.5 28q-106 0 -181 -61t-75 -147q0 -67 48 -121q-3 -31 -22 -63q-2 -4 -5 -8zM21 16z" />
    <glyph glyph-name="folder" unicode="folder&#x2d;blank" 
d="M0 352v-320q0 -26 19 -45t45 -19h384q26 0 45 19t19 45v256q0 26 -19 45t-45 19h-158l-43 43q-21 21 -51 21h-132q-26 0 -45 -19t-19 -45zM64 368h132q10 0 17 -7l45 -45q12 -12 29 -12h161q7 0 11.5 -4.5t4.5 -11.5v-256q0 -7 -4.5 -11.5t-11.5 -4.5h-384
q-7 0 -11.5 4.5t-4.5 11.5v320q0 7 4.5 11.5t11.5 4.5z" />
    <glyph glyph-name="folder-open" unicode="folder&#x2d;open" horiz-adv-x="576" 
d="M384 -32h-296h-24q-26 0 -45 19t-19 45v320q0 26 19 45t45 19h117q27 0 46 -19l26 -26q19 -19 45 -19h118q26 0 45 -19t19 -45v-32h-48v32q0 7 -4.5 11.5t-11.5 4.5h-118q-46 0 -79 33l-26 26q-5 5 -12 5h-117q-7 0 -11.5 -4.5t-4.5 -11.5v-261l68 117q10 16 28 16h400
q19 0 28 -16t0 -32l-112 -192q-10 -16 -28 -16h-48z" />
    <glyph glyph-name="chart-bar" unicode="bar&#x2d;chart" 
d="M24 416q-10 0 -17 -7t-7 -17v-352q0 -30 21 -51t51 -21h416q10 0 17 7t7 17t-7 17t-17 7h-416q-10 0 -17 7t-7 17v352q0 10 -7 17t-17 7zM128 312q0 -10 7 -17t17 -7h208q10 0 17 7t7 17t-7 17t-17 7h-208q-10 0 -17 -7t-7 -17zM152 240q-10 0 -17 -7t-7 -17t7 -17t17 -7
h144q10 0 17 7t7 17t-7 17t-17 7h-144zM152 144q-10 0 -17 -7t-7 -17t7 -17t17 -7h272q10 0 17 7t7 17t-7 17t-17 7h-272z" />
    <glyph glyph-name="comments" unicode="comments" horiz-adv-x="640" 
d="M88 139q-1 -3 -3 -6l-8 -14q24 7 50 18q6 3 13 6q14 8 30 5q19 -4 38 -4q69 0 114.5 39t45.5 89q0 32 -19.5 61t-57 48t-83.5 19t-83.5 -19t-57 -48t-19.5 -61q0 -43 33 -77q10 -12 12.5 -27t-5.5 -29zM0 272q0 48 28 88.5t75.5 64t104.5 23.5q86 0 147 -51.5t61 -124.5
t-61 -124.5t-147 -51.5q-24 0 -47 4l-14 -6q-66 -30 -123 -30q-16 0 -22 15q-6 14 4 26q20 20 37 52q2 3 3 5q-46 48 -46 110zM432 -32q-61 0 -111 27t-76 72q26 3 50 11q21 -28 56.5 -45t80.5 -17q20 0 38 4q16 3 30 -4q7 -4 13 -6q25 -12 50 -18q-7 10 -8 13l-3 6
q-8 14 -5.5 29.5t12.5 26.5q33 34 33 77q0 47 -40.5 85t-103.5 42v1q0 25 -6 48q83 -3 140.5 -54t57.5 -122q0 -62 -46 -110q0 -1 1 -3t2 -3q18 -31 36 -52q11 -11 5 -25.5t-22 -14.5q-57 0 -123 30l-14 6q-23 -4 -47 -4z" />
    <glyph glyph-name="thumbs-up" unicode="thumbs&#x2d;up" 
d="M323.5 413q28.5 -8 43 -34t6.5 -55l-6 -20q-4 -16 -11 -32h92q27 0 45.5 -19t18.5 -45t-19 -45q3 -10 3 -19q0 -32 -25 -51q1 -7 1 -13q0 -31 -24 -50q-1 -26 -19.5 -44t-44.5 -18h-98q-33 0 -62 19l-61 41q-9 5 -11 15t4 18t15.5 10t17.5 -3l62 -41q16 -11 35 -11h98
q7 0 11.5 4.5t4.5 11.5q0 2 -1 4q-2 9 2 17.5t13 11.5q10 4 10 15q0 6 -3 10q-9 10 -4 23t18 15q13 3 13 16q0 6 -4 11q-8 9 -5 21.5t15 16.5q10 4 10 15q0 7 -4.5 11.5t-11.5 4.5h-134q-14 0 -21 13t2 25q18 25 26 55l6 20q3 10 -2 18.5t-14.5 11.5t-18 -2t-11.5 -14
l-6 -20q-8 -31 -30 -55l-51 -56q-7 -7 -17 -7.5t-17 6t-7.5 16.5t5.5 17l52 57q13 15 19 35l6 20q8 28 34 42.5t54.5 6.5zM32 256h64q13 0 22.5 -9.5t9.5 -22.5v-224q0 -13 -9.5 -22.5t-22.5 -9.5h-64q-13 0 -22.5 9.5t-9.5 22.5v224q0 13 9.5 22.5t22.5 9.5z" />
    <glyph glyph-name="thumbs-down" unicode="thumbs&#x2d;down" 
d="M323.5 -29q28.5 8 43 34t6.5 55l-6 20q-4 16 -11 32h92q27 0 45.5 19t18.5 45t-19 45q3 10 3 19q0 32 -25 51q1 7 1 13q0 31 -24 50q-1 26 -19.5 44t-44.5 18h-98q-33 0 -62 -19l-61 -41q-9 -5 -11 -15t4 -18t15.5 -10t17.5 3l62 41q16 11 35 11h98q7 0 11.5 -4.5
t4.5 -11.5q0 -2 -1 -4q-2 -9 2 -17.5t13 -11.5q10 -4 10 -15q0 -5 -3 -10q-9 -10 -4 -23t18 -15q13 -3 13 -16q0 -6 -4 -11q-8 -9 -5 -21.5t15 -16.5q10 -4 10 -15q0 -7 -4.5 -11.5t-11.5 -4.5h-134q-14 0 -21 -13t2 -25q18 -25 26 -55l6 -20q3 -10 -2 -18.5t-14.5 -11.5
t-18 2t-11.5 14l-6 20q-8 31 -30 55l-51 56q-7 7 -17 7.5t-17 -6t-7.5 -16.5t5.5 -17l52 -57q13 -15 19 -35l6 -20q8 -28 34 -42.5t54.5 -6.5zM32 64h64q13 0 22.5 9.5t9.5 22.5v224q0 13 -9.5 22.5t-22.5 9.5h-64q-13 0 -22.5 -9.5t-9.5 -22.5v-224q0 -13 9.5 -22.5
t22.5 -9.5z" />
    <glyph glyph-name="star-half" unicode="star&#x2d;half" horiz-adv-x="576" 
d="M293.5 447.5q-18.5 4.5 -27.5 -13.5l-68 -141l-154 -22q-14 -3 -18.5 -17t5.5 -24l111 -110l-26 -156q-2 -15 10 -23.5t25 -1.5l148 79q13 7 13 21v385q0 19 -18.5 23.5zM264 320v-266l-93 -50l21 120q2 12 -7 21l-86 85l118 17q13 2 18 14z" />
    <glyph glyph-name="lemon" unicode="lemon" horiz-adv-x="448" 
d="M368 368q13 0 22.5 -9.5t9.5 -22.5q0 -4 -1 -9q-12 -41 -4 -74q7 -30 3 -60t-19.5 -60t-40.5 -55q-38 -38 -85 -53.5t-90 -3.5q-33 8 -74 -4q-4 -1 -9 -1q-13 0 -22.5 9.5t-9.5 22.5q0 4 1 9q12 41 4 74q-12 43 3.5 90t53.5 85t85 53.5t90 3.5q33 -8 74 4q4 1 9 1z
M368 416q-11 0 -22 -3q-29 -8 -49 -3q-57 15 -116 -5t-104.5 -65.5t-65.5 -104.5t-5 -116q5 -20 -3 -49q-3 -11 -3 -22q0 -33 23.5 -56.5t56.5 -23.5q11 0 22 3q29 8 49 3q57 -15 116 5t104.5 65.5t65.5 104.5t5 116q-5 20 3 49q3 11 3 22q0 33 -23.5 56.5t-56.5 23.5z
M247 281q9 3 14 11.5t2 18t-11.5 14.5t-18.5 2q-51 -15 -90 -54t-54 -90q-3 -10 2 -18.5t14.5 -11.5t18 2t11.5 14q11 39 42 70t70 42zM247 281z" />
    <glyph glyph-name="credit-card" unicode="credit&#x2d;card&#x2d;alt" horiz-adv-x="576" 
d="M512 368h-448q-7 0 -11.5 -4.5t-4.5 -11.5v-32h480v32q0 7 -4.5 11.5t-11.5 4.5zM528 224h-480v-192q0 -7 4.5 -11.5t11.5 -4.5h448q7 0 11.5 4.5t4.5 11.5v192zM64 416h448q26 0 45 -19t19 -45v-320q0 -26 -19 -45t-45 -19h-448q-26 0 -45 19t-19 45v320q0 26 19 45
t45 19zM120 112h48q10 0 17 -7t7 -17t-7 -17t-17 -7h-48q-10 0 -17 7t-7 17t7 17t17 7zM248 112h112q10 0 17 -7t7 -17t-7 -17t-17 -7h-112q-10 0 -17 7t-7 17t7 17t17 7z" />
    <glyph glyph-name="hard-drive" unicode="hard&#x2d;drive" 
d="M64 368h384q7 0 11.5 -4.5t4.5 -11.5v-162q-8 2 -16 2h-384q-8 0 -16 -2v162q0 7 4.5 11.5t11.5 4.5zM48 128q0 7 4.5 11.5t11.5 4.5h384q7 0 11.5 -4.5t4.5 -11.5v-96q0 -7 -4.5 -11.5t-11.5 -4.5h-384q-7 0 -11.5 4.5t-4.5 11.5v96zM0 128v-96q0 -26 19 -45t45 -19h384
q26 0 45 19t19 45v96v224q0 26 -19 45t-45 19h-384q-26 0 -45 -19t-19 -45v-224zM280 80q0 -10 7 -17t17 -7t17 7t7 17t-7 17t-17 7t-17 -7t-7 -17zM400 104q-10 0 -17 -7t-7 -17t7 -17t17 -7t17 7t7 17t-7 17t-17 7z" />
    <glyph glyph-name="bell" unicode="bell" horiz-adv-x="448" 
d="M224 448q9 0 16 -4.5t11.5 -11.5t4.5 -16v-18q55 -9 91.5 -51.5t36.5 -98.5v-33q0 -70 44 -125l15 -19q9 -12 2.5 -25.5t-21.5 -13.5h-400q-15 0 -21.5 13.5t2.5 25.5l15 19q44 54 44 125v33q0 56 36.5 98.5t91.5 51.5v18q0 13 9.5 22.5t22.5 9.5zM224 352h-8
q-43 0 -73.5 -30.5t-30.5 -73.5v-33q0 -73 -40 -135h304q-40 62 -40 135v33q0 43 -30.5 73.5t-73.5 30.5h-8zM288 0q0 -27 -18.5 -45.5t-45.5 -18.5t-45.5 18.5t-18.5 45.5h64h64z" />
    <glyph glyph-name="hand-point-right" unicode="hand&#x2d;point&#x2d;right" 
d="M448 320q7 0 11.5 -4.5t4.5 -11.5t-4.5 -11.5t-11.5 -4.5h-144h-32v16q0 8 -2 16h178zM224 304v-40v-40q0 -7 -4.5 -11.5t-11.5 -4.5t-11.5 4.5t-4.5 11.5v40q0 10 -7 17t-17 7t-17 -7t-7 -17v-40q0 -22 14 -40q-14 -18 -14 -40q0 -16 8 -30q-24 -20 -24 -50q0 -5 1 -9
q-36 12 -58.5 43t-22.5 70v48q0 50 35 85t85 35h24q13 0 22.5 -9.5t9.5 -22.5zM192 384h-24q-70 0 -119 -49t-49 -119v-48q0 -70 49 -119t119 -49h24h64q26 0 45 19t19 45q0 16 -8 30q24 20 24 50q0 12 -4 22q16 8 26 23.5t10 34.5q0 8 -2 16h82q26 0 45 19t19 45t-19 45
t-45 19h-208q-21 16 -48 16zM256 48h-64q-7 0 -11.5 4.5t-4.5 11.5t4.5 11.5t11.5 4.5h16h48q7 0 11.5 -4.5t4.5 -11.5t-4.5 -11.5t-11.5 -4.5zM272 224v16h32q7 0 11.5 -4.5t4.5 -11.5t-4.5 -11.5t-11.5 -4.5h-32h-2q2 8 2 16zM248 160h24q7 0 11.5 -4.5t4.5 -11.5
t-4.5 -11.5t-11.5 -4.5h-16h-48q-7 0 -11.5 4.5t-4.5 11.5t4.5 11.5t11.5 4.5h40z" />
    <glyph glyph-name="hand-point-left" unicode="hand&#x2d;point&#x2d;left" 
d="M64 320q-7 0 -11.5 -4.5t-4.5 -11.5t4.5 -11.5t11.5 -4.5h144h32v16q0 8 2 16h-178zM288 304v-40v-40q0 -7 4.5 -11.5t11.5 -4.5t11.5 4.5t4.5 11.5v40q0 10 7 17t17 7t17 -7t7 -17v-40q0 -22 -14 -40q14 -18 14 -40q0 -16 -8 -30q24 -20 24 -50q0 -5 -1 -9
q36 12 58.5 43t22.5 70v48q0 50 -35 85t-85 35h-24q-13 0 -22.5 -9.5t-9.5 -22.5zM320 384h24q70 0 119 -49t49 -119v-48q0 -70 -49 -119t-119 -49h-24h-64q-26 0 -45 19t-19 45q0 16 8 30q-24 20 -24 50q0 12 4 22q-16 8 -26 23.5t-10 34.5q0 8 2 16h-82q-26 0 -45 19
t-19 45t19 45t45 19h208q21 16 48 16zM256 48h64q7 0 11.5 4.5t4.5 11.5t-4.5 11.5t-11.5 4.5h-16h-48q-7 0 -11.5 -4.5t-4.5 -11.5t4.5 -11.5t11.5 -4.5zM240 224v16h-32q-7 0 -11.5 -4.5t-4.5 -11.5t4.5 -11.5t11.5 -4.5h32h2q-2 8 -2 16zM264 160h-24q-7 0 -11.5 -4.5
t-4.5 -11.5t4.5 -11.5t11.5 -4.5h16h48q7 0 11.5 4.5t4.5 11.5t-4.5 11.5t-11.5 4.5h-40z" />
    <glyph glyph-name="hand-point-down" unicode="hand&#x2d;point&#x2d;down" horiz-adv-x="384" 
d="M64 0q0 -7 4.5 -11.5t11.5 -4.5t11.5 4.5t4.5 11.5v144v32h-16q-8 0 -16 2v-178zM80 224h40h40q7 0 11.5 4.5t4.5 11.5t-4.5 11.5t-11.5 4.5h-40q-10 0 -17 7t-7 17t7 17t17 7h40q22 0 40 -14q18 14 40 14q16 0 30 -8q20 24 50 24q5 0 9 -1q-12 36 -43 58.5t-70 22.5h-48
q-50 0 -85 -35t-35 -85v-24q0 -13 9.5 -22.5t22.5 -9.5zM0 256v24q0 70 49 119t119 49h48q70 0 119 -49t49 -119v-24v-64q0 -26 -19 -45t-45 -19q-16 0 -30 8q-20 -24 -50 -24q-12 0 -22 4q-6 -11 -14.5 -19t-20 -12.5t-23.5 -4.5q-8 0 -16 2v-82q0 -26 -19 -45t-45 -19
t-45 19t-19 45v208q-16 21 -16 48zM336 192v64q0 7 -4.5 11.5t-11.5 4.5t-11.5 -4.5t-4.5 -11.5v-16v-48q0 -7 4.5 -11.5t11.5 -4.5t11.5 4.5t4.5 11.5zM160 176h-16v-32q0 -7 4.5 -11.5t11.5 -4.5t11.5 4.5t4.5 11.5v32v2q-8 -2 -16 -2zM224 200v-24q0 -7 4.5 -11.5
t11.5 -4.5t11.5 4.5t4.5 11.5v16v48q0 7 -4.5 11.5t-11.5 4.5t-11.5 -4.5t-4.5 -11.5v-40z" />
    <glyph glyph-name="copy" unicode="copy" horiz-adv-x="448" 
d="M384 112q7 0 11.5 4.5t4.5 11.5v204l-68 68h-140q-7 0 -11.5 -4.5t-4.5 -11.5v-256q0 -7 4.5 -11.5t11.5 -4.5h192zM192 64q-26 0 -45 19t-19 45v256q0 26 19 45t45 19h140q20 0 34 -14l68 -68q14 -14 14 -34v-204q0 -26 -19 -45t-45 -19h-192zM64 320h32v-48h-32
q-7 0 -11.5 -4.5t-4.5 -11.5v-256q0 -7 4.5 -11.5t11.5 -4.5h192q7 0 11.5 4.5t4.5 11.5v32h48v-32q0 -26 -19 -45t-45 -19h-192q-26 0 -45 19t-19 45v256q0 26 19 45t45 19z" />
    <glyph glyph-name="floppy-disk" unicode="floppy&#x2d;disk" horiz-adv-x="448" 
d="M48 352q0 7 4.5 11.5t11.5 4.5h16v-104q0 -10 7 -17t17 -7h192q10 0 17 7t7 17v100l1 -1l74 -74l34 34l-74 74q-19 19 -45 19h-246q-26 0 -45 -19t-19 -45v-320q0 -26 19 -45t45 -19h320q26 0 45 19t19 45v245q0 27 -19 46l-34 -34q5 -5 5 -11v-246q0 -7 -4.5 -11.5
t-11.5 -4.5h-320q-7 0 -11.5 4.5t-4.5 11.5v320zM128 368h144v-80h-144v80zM160 128q0 -37 32 -55.5t64 0t32 55.5t-32 55.5t-64 0t-32 -55.5z" />
    <glyph glyph-name="paste" unicode="file&#x2d;clipboard" 
d="M80 352h-16q-7 0 -11.5 -4.5t-4.5 -11.5v-272q0 -7 4.5 -11.5t11.5 -4.5h96v-48h-96q-26 0 -45 19t-19 45v272q0 26 19 45t45 19h41q2 20 18 34t37 14q14 0 26 -6.5t20 -17.5t9 -24h41q22 0 39.5 -13.5t22.5 -34.5h-62q-26 0 -48.5 -13t-34.5 -35h-61q-13 0 -22.5 9.5
t-9.5 22.5v16zM144 392q0 -7 4.5 -11.5t11.5 -4.5t11.5 4.5t4.5 11.5t-4.5 11.5t-11.5 4.5t-11.5 -4.5t-4.5 -11.5zM256 -16h192q7 0 11.5 4.5t4.5 11.5v192h-48q-13 0 -22.5 9.5t-9.5 22.5v48h-128q-7 0 -11.5 -4.5t-4.5 -11.5v-256q0 -7 4.5 -11.5t11.5 -4.5zM448 -64
h-192q-26 0 -45 19t-19 45v256q0 26 19 45t45 19h156q20 0 34 -14l52 -52q14 -14 14 -34v-220q0 -26 -19 -45t-45 -19z" />
    <glyph glyph-name="lightbulb" unicode="lightbulb" horiz-adv-x="384" 
d="M297 199q-6 -8 -12 -18v0q-29 -38 -40 -59q-14 -26 -19 -58h49q3 19 12 34q10 19 34 52v0q11 14 16 22q31 45 31 100q0 73 -51.5 124.5t-124.5 51.5t-124.5 -51.5t-51.5 -124.5q0 -55 31 -100q5 -7 16 -22v0q24 -33 34 -51q8 -15 12 -35h49q-5 32 -19 58q-11 21 -39 59
q-9 13 -13 18q-23 33 -23 73q0 53 37.5 90.5t90.5 37.5t90.5 -37.5t37.5 -90.5q0 -40 -23 -73zM192 320q7 0 11.5 4.5t4.5 11.5t-4.5 11.5t-11.5 4.5q-33 0 -56.5 -23.5t-23.5 -56.5q0 -7 4.5 -11.5t11.5 -4.5t11.5 4.5t4.5 11.5q0 20 14 34t34 14zM192 -64q33 0 56.5 23.5
t23.5 56.5v16h-160v-16q0 -33 23.5 -56.5t56.5 -23.5z" />
    <glyph glyph-name="file-lines" unicode="file&#x2d;lines" horiz-adv-x="384" 
d="M64 -16h256q7 0 11.5 4.5t4.5 11.5v288h-80q-13 0 -22.5 9.5t-9.5 22.5v80h-160q-7 0 -11.5 -4.5t-4.5 -11.5v-384q0 -7 4.5 -11.5t11.5 -4.5zM64 448h166q26 0 45 -19l90 -90q19 -19 19 -45v-294q0 -26 -19 -45t-45 -19h-256q-26 0 -45 19t-19 45v384q0 26 19 45t45 19z
M120 192h144q10 0 17 -7t7 -17t-7 -17t-17 -7h-144q-10 0 -17 7t-7 17t7 17t17 7zM120 96h144q10 0 17 -7t7 -17t-7 -17t-17 -7h-144q-10 0 -17 7t-7 17t7 17t17 7z" />
    <glyph glyph-name="building" unicode="building" horiz-adv-x="384" 
d="M64 400h256q7 0 11.5 -4.5t4.5 -11.5v-384q0 -7 -4.5 -11.5t-11.5 -4.5h-80v64q0 20 -14 34t-34 14t-34 -14t-14 -34v-64h-80q-7 0 -11.5 4.5t-4.5 11.5v384q0 7 4.5 11.5t11.5 4.5zM0 384v-384q0 -26 19 -45t45 -19h256q26 0 45 19t19 45v384q0 26 -19 45t-45 19h-256
q-26 0 -45 -19t-19 -45zM88 344v-48q0 -7 4.5 -11.5t11.5 -4.5h48q7 0 11.5 4.5t4.5 11.5v48q0 7 -4.5 11.5t-11.5 4.5h-48q-7 0 -11.5 -4.5t-4.5 -11.5zM232 360q-7 0 -11.5 -4.5t-4.5 -11.5v-48q0 -7 4.5 -11.5t11.5 -4.5h48q7 0 11.5 4.5t4.5 11.5v48q0 7 -4.5 11.5
t-11.5 4.5h-48zM88 216v-48q0 -7 4.5 -11.5t11.5 -4.5h48q7 0 11.5 4.5t4.5 11.5v48q0 7 -4.5 11.5t-11.5 4.5h-48q-7 0 -11.5 -4.5t-4.5 -11.5zM232 232q-7 0 -11.5 -4.5t-4.5 -11.5v-48q0 -7 4.5 -11.5t11.5 -4.5h48q7 0 11.5 4.5t4.5 11.5v48q0 7 -4.5 11.5t-11.5 4.5
h-48z" />
    <glyph glyph-name="hospital" unicode="hospital&#x2d;wide" horiz-adv-x="640" 
d="M232 448h176q30 0 51 -21t21 -51v-8h88q30 0 51 -21t21 -51v-288q0 -30 -21 -51t-51 -21h-104h-8h-283v0v0h-1v0v0h-1v0v0h-1v0v0h-1v0v0h-1v0v0h-1v0v0h-1v0v0h-1v0v0h-1v0v0h-1v0v0h-1v0v0h-1v0v0h-1v0v0h-1v0v0h-1v0v0h-1v0v0h-1v0v0h-1v0v0h-1v0v0h-1v0v0h-1v0v0h-1
v0v0h-1v0v0h-1v0v0h-1v0v0h-1v0v0h-1v0v0h-1v0v0h-1v0v0h-1v0v0h-1v0v0h-1v0v0h-1v0v0h-1v0v0h-1v0v0h-1v0v0h-1v0v0h-1v0v0h-1v0v0h-1v0v0h-1v0v0h-1v0v0h-1v0v0h-1v0v0h-1v0v0h-1v0v0h-1v0v0h-1v0v0h-1v0v0h-1v0v0h-1v0v0h-1v0v0h-1v0v0h-1v0v0h-1v0v0h-1v0v0h-1v0v0h-1v0
v0h-1v0v0h-1v0v0h-1v0v0h-1v0v0h-1v0v0h-1v0v0h-1v0v0h-1v0v0h-1v0v0h-1v0v0h-1v0v0h-1v0v0h-1v0v0h-1v0v0h-1v0v0h-1v0v0h-1v0v0h-1v0v0h-1v0v0h-1v0v0h-1v0v0h-1v0v0h-1v0v0h-1v0v0h-1v0v0h-1v0v0h-1v0v0h-1v0v0h-1v0v0h-1v0v0h-1v0v0h-1v0v0h-1v0v0h-1v0v0h-1v0v0h-1v0v0
h-1v0v0h-1v0v0h-1v0v0h-1v0v0h-1v0v0h-1v0v0h-1v0q-30 0 -51 21t-21 51v288q0 30 21 51t51 21h88v8q0 30 21 51t51 21zM480 320v-208v-128h88q10 0 17 7t7 17v104h-56q-10 0 -17 7t-7 17t7 17t17 7h56v48h-56q-10 0 -17 7t-7 17t7 17t17 7h56v40q0 10 -7 17t-17 7h-88z
M72 320q-10 0 -17 -7t-7 -17v-40h56q10 0 17 -7t7 -17t-7 -17t-17 -7h-56v-48h56q10 0 17 -7t7 -17t-7 -17t-17 -7h-56v-104q0 -10 7 -17t17 -7v0h1v0v0h1v0v0h1v0v0h1v0v0h1v0v0h1v0v0h1v0v0h1v0v0h1v0v0h1v0v0h1v0v0h1v0v0h1v0v0h1v0v0h1v0v0h1v0v0h1v0v0h1v0v0h1v0v0h1v0
v0h1v0v0h1v0v0h1v0v0h1v0v0h1v0v0h1v0v0h1v0v0h1v0h1v0v0h1v0v0h1v0v0h1v0v0h1v0h1v0v0h1v0v0h1v0h1v0v0h1v0v0h1v0h1v0v0h1v0v0h1v0h1v0v0h1v0h1v0v0h1v0h1v0v0h1v0h1v0v0h1v0h1v0v0h1v0h1v0v0h1v0h1v0v0h1v0h1v0v0h1v0v0h1v0h1v0v0h1v0h1v0v0h1v0v0h1v0h1v0v0h1v0v0h1v0h1
v0v0h1v0v0h1v0h1v0v0h1v0v0h1v0h1v0h1v0v0h1v0v0h1v0h1v0h1v0v0h1v0v0h1v0h1v0h1v0h1v0v0h1v0v0h1v0h1v0h1v0v336h-88zM208 376v-392h64v64q0 20 14 34t34 14t34 -14t14 -34v-64h64v128v264q0 10 -7 17t-17 7h-176q-10 0 -17 -7t-7 -17zM296 352q0 7 4.5 11.5t11.5 4.5h16
q7 0 11.5 -4.5t4.5 -11.5v-24h24q7 0 11.5 -4.5t4.5 -11.5v-16q0 -7 -4.5 -11.5t-11.5 -4.5h-24v-24q0 -7 -4.5 -11.5t-11.5 -4.5h-16q-7 0 -11.5 4.5t-4.5 11.5v24h-24q-7 0 -11.5 4.5t-4.5 11.5v16q0 7 4.5 11.5t11.5 4.5h24v24z" />
    <glyph glyph-name="square-plus" unicode="plus&#x2d;square" horiz-adv-x="448" 
d="M64 368h320q7 0 11.5 -4.5t4.5 -11.5v-320q0 -7 -4.5 -11.5t-11.5 -4.5h-320q-7 0 -11.5 4.5t-4.5 11.5v320q0 7 4.5 11.5t11.5 4.5zM0 352v-320q0 -26 19 -45t45 -19h320q26 0 45 19t19 45v320q0 26 -19 45t-45 19h-320q-26 0 -45 -19t-19 -45zM200 104q0 -10 7 -17
t17 -7t17 7t7 17v64h64q10 0 17 7t7 17t-7 17t-17 7h-64v64q0 10 -7 17t-17 7t-17 -7t-7 -17v-64h-64q-10 0 -17 -7t-7 -17t7 -17t17 -7h64v-64z" />
    <glyph glyph-name="face-smile" unicode="face&#x2d;smile" 
d="M464 192q0 -56 -28 -104t-76 -76t-104 -28t-104 28t-76 76t-28 104q0 37 12.5 71.5t36 62.5t55.5 46q48 28 104 28t104 -28t76 -76t28 -104zM0 192q0 -69 34.5 -128t93.5 -93.5t128 -34.5t128 34.5t93.5 93.5t34.5 128t-34.5 128t-93.5 93.5t-128 34.5t-128 -34.5
t-93.5 -93.5t-34.5 -128zM178 130q-7 7 -17 7.5t-17 -6t-7.5 -16.5t6.5 -18q45 -49 113 -49t114 49q6 8 6 18t-7.5 16.5t-17.5 6t-17 -7.5q-31 -34 -78 -34t-78 34zM144 240q0 -13 9.5 -22.5t23 -9.5t22.5 9.5t9 22.5t-9 22.5t-22.5 9.5t-23 -9.5t-9.5 -22.5zM336.5 272
q-13.5 0 -23 -9.5t-9.5 -22.5t9.5 -22.5t23 -9.5t22.5 9.5t9 22.5t-9 22.5t-22.5 9.5z" />
    <glyph glyph-name="face-meh" unicode="face&#x2d;meh" 
d="M464 192q0 28 -7 54.5t-20.5 49.5t-33 42.5t-43.5 33.5q-48 28 -104 28t-104 -28t-76 -76t-28 -104t28 -104t76 -76t104 -28t104 28t76 76t28 104zM256 448q69 0 128 -34.5t93.5 -93.5t34.5 -128t-34.5 -128t-93.5 -93.5t-128 -34.5t-128 34.5t-93.5 93.5t-34.5 128
t34.5 128t93.5 93.5t128 34.5zM176.5 208q-13.5 0 -23 9.5t-9.5 22.5t9.5 22.5t23 9.5t22.5 -9.5t9 -22.5t-9 -22.5t-22.5 -9.5zM368 240q0 -13 -9 -22.5t-22.5 -9.5t-23 9.5t-9.5 22.5t9.5 22.5t23 9.5t22.5 -9.5t9 -22.5zM184 120h144q10 0 17 -7t7 -17t-7 -17t-17 -7
h-144q-10 0 -17 7t-7 17t7 17t17 7z" />
    <glyph glyph-name="calendar" unicode="calendar" horiz-adv-x="448" 
d="M152 424v-40h144v40q0 10 7 17t17 7t17 -7t7 -17v-40h40q26 0 45 -19t19 -45v-16v-48v-256q0 -26 -19 -45t-45 -19h-320q-26 0 -45 19t-19 45v256v48v16q0 26 19 45t45 19h40v40q0 10 7 17t17 7t17 -7t7 -17zM48 256v-256q0 -7 4.5 -11.5t11.5 -4.5h320q7 0 11.5 4.5
t4.5 11.5v256h-352z" />
    <glyph glyph-name="square-minus" unicode="minus&#x2d;square" horiz-adv-x="448" 
d="M64 368h320q7 0 11.5 -4.5t4.5 -11.5v-320q0 -7 -4.5 -11.5t-11.5 -4.5h-320q-7 0 -11.5 4.5t-4.5 11.5v320q0 7 4.5 11.5t11.5 4.5zM0 352v-320q0 -26 19 -45t45 -19h320q26 0 45 19t19 45v320q0 26 -19 45t-45 19h-320q-26 0 -45 -19t-19 -45zM152 216q-10 0 -17 -7
t-7 -17t7 -17t17 -7h144q10 0 17 7t7 17t-7 17t-17 7h-144z" />
    <glyph glyph-name="compass" unicode="compass" 
d="M464 192q0 -56 -28 -104t-76 -76t-104 -28t-104 28t-76 76t-28 104q0 37 12.5 71.5t36 62.5t55.5 46q48 28 104 28t104 -28t76 -76t28 -104zM0 192q0 -69 34.5 -128t93.5 -93.5t128 -34.5t128 34.5t93.5 93.5t34.5 128t-34.5 128t-93.5 93.5t-128 34.5t-128 -34.5
t-93.5 -93.5t-34.5 -128zM307 123q13 5 18 18l56 145q5 14 -6 25t-25 6l-145 -56q-13 -5 -18 -18l-56 -145q-5 -14 6 -25t25 -6zM288 192q0 -13 -9.5 -22.5t-22.5 -9.5t-22.5 9.5t-9.5 22.5t9.5 22.5t22.5 9.5t22.5 -9.5t9.5 -22.5z" />
    <glyph glyph-name="square-caret-down" unicode="caret&#x2d;square&#x2d;down" horiz-adv-x="448" 
d="M384 16h-320q-7 0 -11.5 4.5t-4.5 11.5v320q0 7 4.5 11.5t11.5 4.5h320q7 0 11.5 -4.5t4.5 -11.5v-320q0 -7 -4.5 -11.5t-11.5 -4.5zM448 32v320q0 26 -19 45t-45 19h-320q-26 0 -45 -19t-19 -45v-320q0 -26 19 -45t45 -19h320q26 0 45 19t19 45zM224.5 96q10.5 0 17.5 8
l104 112q10 11 4 25.5t-22 14.5h-208q-16 0 -22 -14.5t4 -25.5l104 -112q8 -8 18.5 -8z" />
    <glyph glyph-name="square-caret-up" unicode="caret&#x2d;square&#x2d;up" horiz-adv-x="448" 
d="M64 368h320q7 0 11.5 -4.5t4.5 -11.5v-320q0 -7 -4.5 -11.5t-11.5 -4.5h-320q-7 0 -11.5 4.5t-4.5 11.5v320q0 7 4.5 11.5t11.5 4.5zM0 352v-320q0 -26 19 -45t45 -19h320q26 0 45 19t19 45v320q0 26 -19 45t-45 19h-320q-26 0 -45 -19t-19 -45zM223.5 288
q-10.5 0 -17.5 -8l-104 -112q-10 -11 -4 -25.5t22 -14.5h208q16 0 22 14.5t-4 25.5l-104 112q-8 8 -18.5 8zM224 288z" />
    <glyph glyph-name="square-caret-right" unicode="caret&#x2d;square&#x2d;right" horiz-adv-x="448" 
d="M400 352v-320q0 -7 -4.5 -11.5t-11.5 -4.5h-320q-7 0 -11.5 4.5t-4.5 11.5v320q0 7 4.5 11.5t11.5 4.5h320q7 0 11.5 -4.5t4.5 -11.5zM384 416h-320q-26 0 -45 -19t-19 -45v-320q0 -26 19 -45t45 -19h320q26 0 45 19t19 45v320q0 26 -19 45t-45 19zM320 192.5
q0 10.5 -8 17.5l-112 104q-11 10 -25.5 4t-14.5 -22v-208q0 -16 14.5 -22t25.5 4l112 104q8 8 8 18.5z" />
    <glyph glyph-name="circle-right" unicode="arrow&#x2d;alt&#x2d;circle&#x2d;right" 
d="M464 192q0 28 -7 54.5t-20.5 49.5t-33 42.5t-43.5 33.5q-48 28 -104 28t-104 -28t-76 -76t-28 -104t28 -104t76 -76t104 -28t104 28t76 76t28 104zM0 192q0 69 34.5 128t93.5 93.5t128 34.5t128 -34.5t93.5 -93.5t34.5 -128t-34.5 -128t-93.5 -93.5t-128 -34.5t-128 34.5
t-93.5 93.5t-34.5 128zM295 313l99 -107q6 -6 6 -14t-6 -14l-99 -107q-7 -7 -17 -7q-9 0 -15.5 6.5t-6.5 15.5v58h-96q-13 0 -22.5 9.5t-9.5 22.5v32q0 13 9.5 22.5t22.5 9.5h96v58q0 9 6.5 15.5t15.5 6.5q10 0 17 -7z" />
    <glyph glyph-name="circle-left" unicode="arrow&#x2d;alt&#x2d;circle&#x2d;left" 
d="M48 192q0 -56 28 -104t76 -76t104 -28t104 28t76 76t28 104q0 28 -7 54.5t-20.5 49.5t-33 42.5t-43.5 33.5q-48 28 -104 28t-104 -28t-76 -76t-28 -104zM512 192q0 -69 -34.5 -128t-93.5 -93.5t-128 -34.5t-128 34.5t-93.5 93.5t-34.5 128t34.5 128t93.5 93.5t128 34.5
t128 -34.5t93.5 -93.5t34.5 -128zM217 71l-99 107q-6 6 -6 14t6 14l99 107q7 7 17 7q9 0 15.5 -6.5t6.5 -15.5v-58h96q13 0 22.5 -9.5t9.5 -22.5v-32q0 -13 -9.5 -22.5t-22.5 -9.5h-96v-58q0 -9 -6.5 -15.5t-15.5 -6.5q-10 0 -17 7z" />
    <glyph glyph-name="square-caret-left" unicode="caret&#x2d;square&#x2d;left" horiz-adv-x="448" 
d="M48 32v320q0 7 4.5 11.5t11.5 4.5h320q7 0 11.5 -4.5t4.5 -11.5v-320q0 -7 -4.5 -11.5t-11.5 -4.5h-320q-7 0 -11.5 4.5t-4.5 11.5zM64 -32h320q26 0 45 19t19 45v320q0 26 -19 45t-45 19h-320q-26 0 -45 -19t-19 -45v-320q0 -26 19 -45t45 -19zM128 191.5
q0 -10.5 8 -17.5l112 -104q11 -10 25.5 -4t14.5 22v208q0 16 -14.5 22t-25.5 -4l-112 -104q-8 -8 -8 -18.5zM128 192z" />
    <glyph glyph-name="circle-dot" unicode="circle&#x2d;dot" 
d="M464 192q0 -56 -28 -104t-76 -76t-104 -28t-104 28t-76 76t-28 104q0 37 12.5 71.5t36 62.5t55.5 46q48 28 104 28t104 -28t76 -76t28 -104zM0 192q0 -69 34.5 -128t93.5 -93.5t128 -34.5t128 34.5t93.5 93.5t34.5 128t-34.5 128t-93.5 93.5t-128 34.5t-128 -34.5
t-93.5 -93.5t-34.5 -128zM256 288q-26 0 -48 -13t-35 -35q-28 -48 0 -96q13 -22 35 -35t48 -13t48 13t35 35t13 48t-13 48t-35 35t-48 13z" />
    <glyph glyph-name="file-pdf" unicode="file&#x2d;pdf" 
d="M64 -16q-7 0 -11.5 4.5t-4.5 11.5v384q0 7 4.5 11.5t11.5 4.5h160v-80q0 -13 9.5 -22.5t22.5 -9.5h80v-128h48v134q0 26 -19 45l-90 90q-19 19 -45 19h-166q-26 0 -45 -19t-19 -45v-384q0 -26 19 -45t45 -19h32v48h-32zM176 96q-7 0 -11.5 -4.5t-4.5 -11.5v-80v-48
q0 -7 4.5 -11.5t11.5 -4.5t11.5 4.5t4.5 11.5v32h16q23 0 39.5 16.5t16.5 39.5t-16.5 39.5t-39.5 16.5h-32zM208 16h-16v48h16q10 0 17 -7t7 -17t-7 -17t-17 -7zM304 96q-7 0 -11.5 -4.5t-4.5 -11.5v-128q0 -7 4.5 -11.5t11.5 -4.5h32q20 0 34 14t14 34v64q0 20 -14 34
t-34 14h-32zM336 -32h-16v96h16q7 0 11.5 -4.5t4.5 -11.5v-64q0 -7 -4.5 -11.5t-11.5 -4.5zM416 80v-64v-64q0 -7 4.5 -11.5t11.5 -4.5t11.5 4.5t4.5 11.5v48h32q7 0 11.5 4.5t4.5 11.5t-4.5 11.5t-11.5 4.5h-32v32h32q7 0 11.5 4.5t4.5 11.5t-4.5 11.5t-11.5 4.5h-48
q-7 0 -11.5 -4.5t-4.5 -11.5z" />
    <glyph glyph-name="file-word" unicode="file&#x2d;word" horiz-adv-x="384" 
d="M48 0q0 -7 4.5 -11.5t11.5 -4.5h256q7 0 11.5 4.5t4.5 11.5v288h-80q-13 0 -22.5 9.5t-9.5 22.5v80h-160q-7 0 -11.5 -4.5t-4.5 -11.5v-384zM64 448h166q26 0 45 -19l90 -90q19 -19 19 -45v-294q0 -26 -19 -45t-45 -19h-256q-26 0 -45 19t-19 45v384q0 26 19 45t45 19z
M119 207l25 -84l25 84q5 17 23 17t23 -17l25 -84l25 84q1 5 4.5 8.5t7.5 5.5t8.5 3t9.5 -1q9 -3 14 -11.5t2 -18.5l-48 -160q-5 -17 -23 -17t-23 17l-25 83l-25 -83q-5 -17 -23 -17t-23 17l-48 160q-2 7 -0.5 13t6 10.5t10.5 6.5q10 3 18.5 -2t11.5 -14z" />
    <glyph glyph-name="file-excel" unicode="file&#x2d;excel" horiz-adv-x="384" 
d="M48 0q0 -7 4.5 -11.5t11.5 -4.5h256q7 0 11.5 4.5t4.5 11.5v288h-80q-13 0 -22.5 9.5t-9.5 22.5v80h-160q-7 0 -11.5 -4.5t-4.5 -11.5v-384zM64 448h166q26 0 45 -19l90 -90q19 -19 19 -45v-294q0 -26 -19 -45t-45 -19h-256q-26 0 -45 19t-19 45v384q0 26 19 45t45 19z
M155 215l37 -48l37 48q6 8 16 9t18 -5t9 -16t-5 -18l-45 -57l45 -57q6 -8 5 -18t-9 -16t-18 -5t-16 9l-37 48l-37 -48q-6 -8 -16 -9t-18 5t-9 16t5 18l45 57l-45 57q-6 8 -5 18t9 16t18 5t16 -9zM155 215z" />
    <glyph glyph-name="file-powerpoint" unicode="file&#x2d;powerpoint" horiz-adv-x="384" 
d="M64 -16h256q7 0 11.5 4.5t4.5 11.5v288h-80q-13 0 -22.5 9.5t-9.5 22.5v80h-160q-7 0 -11.5 -4.5t-4.5 -11.5v-384q0 -7 4.5 -11.5t11.5 -4.5zM64 448h166q26 0 45 -19l90 -90q19 -19 19 -45v-294q0 -26 -19 -45t-45 -19h-256q-26 0 -45 19t-19 45v384q0 26 19 45t45 19z
M136 240h68q32 0 54 -22t22 -54t-22 -54t-54 -22h-44v-32q0 -10 -7 -17t-17 -7t-17 7t-7 17v56v104q0 10 7 17t17 7zM204 136q12 0 20 8t8 20t-8 20t-20 8h-44v-56h44z" />
    <glyph glyph-name="file-image" unicode="file&#x2d;image" horiz-adv-x="384" 
d="M64 -16h256q7 0 11.5 4.5t4.5 11.5v288h-80q-13 0 -22.5 9.5t-9.5 22.5v80h-160q-7 0 -11.5 -4.5t-4.5 -11.5v-384q0 -7 4.5 -11.5t11.5 -4.5zM64 448h166q26 0 45 -19l90 -90q19 -19 19 -45v-294q0 -26 -19 -45t-45 -19h-256q-26 0 -45 19t-19 45v384q0 26 19 45t45 19z
M160 192q0 -13 -9.5 -22.5t-22.5 -9.5t-22.5 9.5t-9.5 22.5t9.5 22.5t22.5 9.5t22.5 -9.5t9.5 -22.5zM229 145l72 -104q6 -8 1.5 -16.5t-14.5 -8.5h-72h-40h-32h-48q-9 0 -14 8.5t0 15.5l40 64q5 8 14 8t14 -8l12 -19l41 60q5 7 13 7t13 -7zM229 145z" />
    <glyph glyph-name="file-zipper" unicode="file&#x2d;archive" horiz-adv-x="384" 
d="M64 -16h256q7 0 11.5 4.5t4.5 11.5v288h-80q-13 0 -22.5 9.5t-9.5 22.5v80h-48q0 -7 -4.5 -11.5t-11.5 -4.5h-32q-7 0 -11.5 4.5t-4.5 11.5h-48q-7 0 -11.5 -4.5t-4.5 -11.5v-384q0 -7 4.5 -11.5t11.5 -4.5zM64 448h166q26 0 45 -19l90 -90q19 -19 19 -45v-294
q0 -26 -19 -45t-45 -19h-256q-26 0 -45 19t-19 45v384q0 26 19 45t45 19zM112 336q0 7 4.5 11.5t11.5 4.5h32q7 0 11.5 -4.5t4.5 -11.5t-4.5 -11.5t-11.5 -4.5h-32q-7 0 -11.5 4.5t-4.5 11.5zM112 272q0 7 4.5 11.5t11.5 4.5h32q7 0 11.5 -4.5t4.5 -11.5t-4.5 -11.5
t-11.5 -4.5h-32q-7 0 -11.5 4.5t-4.5 11.5zM106 200q1 4 2.5 7t3.5 5.5t5 5t6 4t6.5 2t7.5 0.5h14q11 0 20 -6.5t11 -17.5l24 -88q2 -8 2 -16q0 -27 -19 -45.5t-45 -18.5t-45 18.5t-19 45.5q0 8 2 16zM128 112q-7 0 -11.5 -4.5t-4.5 -11.5t4.5 -11.5t11.5 -4.5h32
q7 0 11.5 4.5t4.5 11.5t-4.5 11.5t-11.5 4.5h-32z" />
    <glyph glyph-name="file-audio" unicode="file&#x2d;audio" horiz-adv-x="384" 
d="M64 -16q-7 0 -11.5 4.5t-4.5 11.5v384q0 7 4.5 11.5t11.5 4.5h160v-80q0 -13 9.5 -22.5t22.5 -9.5h80v-288q0 -7 -4.5 -11.5t-11.5 -4.5h-256zM0 384v-384q0 -26 19 -45t45 -19h256q26 0 45 19t19 45v294q0 26 -19 45l-90 90q-19 19 -45 19h-166q-26 0 -45 -19t-19 -45z
M192 176q0 11 -10 15t-17 -4l-36 -35h-17q-7 0 -11.5 -4.5t-4.5 -11.5v-48q0 -7 4.5 -11.5t11.5 -4.5h17l36 -35q7 -8 17 -4t10 15v128zM278 180q-5 9 -14.5 11.5t-18.5 -2.5t-11.5 -14.5t2.5 -18.5q12 -20 12 -44t-12 -44q-5 -9 -2.5 -18.5t11.5 -14.5t18.5 -2.5t14.5 11.5
q18 31 18 68t-18 68z" />
    <glyph glyph-name="file-video" unicode="file&#x2d;video" horiz-adv-x="384" 
d="M320 -16h-256q-7 0 -11.5 4.5t-4.5 11.5v384q0 7 4.5 11.5t11.5 4.5h160v-80q0 -13 9.5 -22.5t22.5 -9.5h80v-288q0 -7 -4.5 -11.5t-11.5 -4.5zM0 384v-384q0 -26 19 -45t45 -19h256q26 0 45 19t19 45v294q0 26 -19 45l-90 90q-19 19 -45 19h-166q-26 0 -45 -19t-19 -45z
M80 160v-96q0 -13 9.5 -22.5t22.5 -9.5h96q13 0 22.5 9.5t9.5 22.5v16l45 -30q3 -2 7 -2q5 0 8.5 3.5t3.5 8.5v104q0 5 -3.5 8.5t-8.5 3.5q-4 0 -7 -2l-45 -30v16q0 13 -9.5 22.5t-22.5 9.5h-96q-13 0 -22.5 -9.5t-9.5 -22.5z" />
    <glyph glyph-name="file-code" unicode="file&#x2d;code" horiz-adv-x="384" 
d="M64 -16h256q7 0 11.5 4.5t4.5 11.5v288h-80q-13 0 -22.5 9.5t-9.5 22.5v80h-160q-7 0 -11.5 -4.5t-4.5 -11.5v-384q0 -7 4.5 -11.5t11.5 -4.5zM64 448h166q26 0 45 -19l90 -90q19 -19 19 -45v-294q0 -26 -19 -45t-45 -19h-256q-26 0 -45 19t-19 45v384q0 26 19 45t45 19z
M161 159l-31 -31l31 -31q7 -7 7 -17t-7 -17t-17 -7t-17 7l-48 48q-7 7 -7 17t7 17l48 48q7 7 17 7t17 -7t7 -17t-7 -17zM257 193l48 -48q7 -7 7 -17t-7 -17l-48 -48q-7 -7 -17 -7t-17 7q-5 5 -6.5 11t0 12t6.5 11l31 31l-31 31q-7 7 -7 17t7 17t17 7t17 -7zM257 193z" />
    <glyph glyph-name="life-ring" unicode="life&#x2d;ring" 
d="M385 29l-80 80q-22 -13 -49 -13q-26 0 -49 13l-80 -80q56 -45 129 -45t129 45zM453 29l12 -12q7 -7 7 -17t-7 -17t-17 -7t-17 7l-12 12q-71 -59 -163 -59t-163 59l-12 -12q-7 -7 -17 -7t-17 7t-7 17t7 17l12 12q-59 71 -59 163t59 163l-12 12q-7 7 -7 17t7 17t17 7t17 -7
l12 -12q71 59 163 59t163 -59l12 12q7 7 17 7t17 -7t7 -17t-7 -17l-12 -12q59 -71 59 -163t-59 -163zM419 63q45 56 45 128.5t-45 129.5l-80 -80q13 -23 13 -49t-13 -49zM385 355q-56 45 -129 45t-129 -45l80 -80q22 13 49 13q26 0 49 -13zM173 143q-13 22 -13 49
q0 26 13 49l-80 80q-45 -56 -45 -129t45 -129zM208 192q0 -28 24 -41.5t48 0t24 41.5t-24 41.5t-48 0t-24 -41.5z" />
    <glyph glyph-name="paper-plane" unicode="paper&#x2d;plane" 
d="M16 188l448 256q18 10 34.5 -1.5t13.5 -31.5l-64 -416q-3 -15 -16.5 -22.5t-27.5 -2.5l-124 52l-62 -74q-10 -12 -25 -12q-14 0 -23.5 9.5t-9.5 23.5v103l-140 58q-18 8 -19.5 28t15.5 30zM68 162l123 -51l-1 1l220 245zM403 23l48 308l-214 -239z" />
    <glyph glyph-name="newspaper" unicode="newspaper" 
d="M168 368h272q10 0 17 -7t7 -17v-304q0 -10 -7 -17t-17 -7h-300q4 11 4 24v304q0 10 7 17t17 7zM72 -32h368q30 0 51 21t21 51v304q0 30 -21 51t-51 21h-272q-30 0 -51 -21t-21 -51v-304q0 -10 -7 -17t-17 -7t-17 7t-7 17v296q0 10 -7 17t-17 7t-17 -7t-7 -17v-296
q0 -30 21 -51t51 -21zM176 312v-80q0 -10 7 -17t17 -7h96q10 0 17 7t7 17v80q0 10 -7 17t-17 7h-96q-10 0 -17 -7t-7 -17zM376 336q-10 0 -17 -7t-7 -17t7 -17t17 -7h32q10 0 17 7t7 17t-7 17t-17 7h-32zM376 256q-10 0 -17 -7t-7 -17t7 -17t17 -7h32q10 0 17 7t7 17t-7 17
t-17 7h-32zM200 176q-10 0 -17 -7t-7 -17t7 -17t17 -7h208q10 0 17 7t7 17t-7 17t-17 7h-208zM200 96q-10 0 -17 -7t-7 -17t7 -17t17 -7h208q10 0 17 7t7 17t-7 17t-17 7h-208z" />
    <glyph glyph-name="bell-slash" unicode="bell&#x2d;slash" horiz-adv-x="640" 
d="M39 443l145 -114q36 58 104 69v18q0 13 9.5 22.5t22.5 9.5t22.5 -9.5t9.5 -22.5v-18q36 -6 65 -27t46 -53.5t17 -69.5v-33q0 -70 44 -125l15 -19q8 -10 4 -23l88 -69q8 -6 9 -16t-5 -18t-16 -9t-18 5l-592 464q-8 6 -9 16t5 18t16 9t18 -5zM222 300l229 -180
q-19 45 -19 95v33q0 43 -30.5 73.5t-73.5 30.5h-8h-8q-19 0 -36.5 -6.5t-31 -18.5t-22.5 -27zM406 32h-286q-15 0 -21.5 13.5t2.5 25.5l15 19q44 54 44 124v12l47 -37q-6 -59 -39 -109h177zM384 0q0 -27 -18.5 -45.5t-45.5 -18.5t-45.5 18.5t-18.5 45.5h64h64z" />
    <glyph glyph-name="closed-captioning" unicode="closed&#x2d;captioning" horiz-adv-x="576" 
d="M512 368h-448q-7 0 -11.5 -4.5t-4.5 -11.5v-320q0 -7 4.5 -11.5t11.5 -4.5h448q7 0 11.5 4.5t4.5 11.5v320q0 7 -4.5 11.5t-11.5 4.5zM64 416h448q26 0 45 -19t19 -45v-320q0 -26 -19 -45t-45 -19h-448q-26 0 -45 19t-19 45v320q0 26 19 45t45 19zM200 240q-20 0 -34 -14
t-14 -34t14 -34t34 -14q22 0 36 16q6 7 16 8t17.5 -6t8 -17t-5.5 -17q-29 -32 -72 -32q-40 0 -68 28t-28 68t28 68t68 28q43 0 72 -32q6 -7 5.5 -17t-8 -17t-17.5 -6t-16 8q-14 16 -36 16zM344 192q0 -20 14 -34t34 -14q22 0 36 16q6 7 16 8t17.5 -6t8 -17t-5.5 -17
q-29 -32 -72 -32q-40 0 -68 28t-28 68t28 68t68 28q43 0 72 -32q6 -7 5.5 -17t-8 -17t-17.5 -6t-16 8q-14 16 -36 16q-20 0 -34 -14t-14 -34z" />
    <glyph glyph-name="object-group" unicode="object&#x2d;group" horiz-adv-x="576" 
d="M48 332v-280q-16 -15 -16 -36q0 -20 14 -34t34 -14q21 0 36 16h344q15 -16 36 -16q20 0 34 14t14 34q0 21 -16 36v280q16 15 16 36q0 20 -14 34t-34 14q-21 0 -36 -16h-344q-15 16 -36 16q-20 0 -34 -14t-14 -34q0 -21 16 -36zM125 352h326q7 -22 29 -29v-262
q-22 -7 -29 -29h-326q-7 22 -29 29v262q22 7 29 29zM128 288v-96q0 -13 9.5 -22.5t22.5 -9.5h128q13 0 22.5 9.5t9.5 22.5v96q0 13 -9.5 22.5t-22.5 9.5h-128q-13 0 -22.5 -9.5t-9.5 -22.5zM256 128v-32q0 -13 9.5 -22.5t22.5 -9.5h128q13 0 22.5 9.5t9.5 22.5v96
q0 13 -9.5 22.5t-22.5 9.5h-64v-32q0 -26 -19 -45t-45 -19h-32z" />
    <glyph glyph-name="object-ungroup" unicode="object&#x2d;ungroup" horiz-adv-x="640" 
d="M48 381q2 -13 16 -13q7 0 11.5 4.5t4.5 11.5q0 14 -13 16h-3q-7 0 -11.5 -5t-4.5 -11v-3zM0 384q0 26 19 45t45 19q20 0 36 -11t23 -29h202q7 18 23 29t36 11q26 0 45 -19t19 -45q0 -20 -11 -36t-29 -23v-106q18 -7 29 -23t11 -36q0 -26 -19 -45t-45 -19q-20 0 -36 11
t-23 29h-202q-7 -18 -23 -29t-36 -11q-26 0 -45 19t-19 45q0 20 11 36t29 23v106q-18 7 -29 23t-11 36zM368 384q0 -7 4.5 -11.5t11.5 -4.5t11.5 4.5t4.5 11.5t-4.5 11.5t-11.5 4.5t-11.5 -4.5t-4.5 -11.5zM325 360h-202q-10 -25 -35 -35v-106q25 -10 35 -35h202
q10 25 35 35v106q-25 10 -35 35zM384 176q-7 0 -11.5 -4.5t-4.5 -11.5t4.5 -11.5t11.5 -4.5t11.5 4.5t4.5 11.5t-4.5 11.5t-11.5 4.5zM80 160q0 7 -4.5 11.5t-11.5 4.5q-14 0 -16 -13v-3q0 -7 5 -11.5t11 -4.5h3q13 2 13 16zM471 200q-8 18 -23 32v16h69q4 12 13 21t21 14
t25 5q26 0 45 -19t19 -45q0 -20 -11 -36t-29 -23v-106q18 -7 29 -23t11 -36q0 -26 -19 -45t-45 -19q-20 0 -36 11t-23 29h-202q-7 -18 -23 -29t-36 -11q-26 0 -45 19t-19 45q0 20 11 36t29 23v37h48v-37q25 -10 35 -35h202q10 25 35 35v106q-25 10 -35 35h-46zM560 227
q-2 -10 5.5 -16t16 -2.5t10.5 12.5q2 10 -5.5 16t-16.5 2.5t-10 -12.5zM272 -3q2 10 -5.5 16t-16 2.5t-10.5 -12.5t5.5 -15.5t16.5 -3t10 12.5zM573 -16h3q7 0 11.5 5t4.5 11v3q-2 13 -16 13q-7 0 -11.5 -4.5t-4.5 -11.5q0 -13 13 -16zM573 -16z" />
    <glyph glyph-name="note-sticky" unicode="note&#x2d;sticky" horiz-adv-x="448" 
d="M64 368h320q7 0 11.5 -4.5t4.5 -11.5v-224h-80q-13 0 -22.5 -9.5t-9.5 -22.5v-80h-224q-7 0 -11.5 4.5t-4.5 11.5v320q0 7 4.5 11.5t11.5 4.5zM288 -32h6q26 0 45 19l90 90q19 19 19 45v6v224q0 26 -19 45t-45 19h-320q-26 0 -45 -19t-19 -45v-320q0 -26 19 -45t45 -19
h224z" />
    <glyph glyph-name="clone" unicode="clone" 
d="M64 -16q-7 0 -11.5 4.5t-4.5 11.5v224q0 7 4.5 11.5t11.5 4.5h64v48h-64q-26 0 -45 -19t-19 -45v-224q0 -26 19 -45t45 -19h224q26 0 45 19t19 45v64h-48v-64q0 -7 -4.5 -11.5t-11.5 -4.5h-224zM224 144q-7 0 -11.5 4.5t-4.5 11.5v224q0 7 4.5 11.5t11.5 4.5h224
q7 0 11.5 -4.5t4.5 -11.5v-224q0 -7 -4.5 -11.5t-11.5 -4.5h-224zM160 160q0 -26 19 -45t45 -19h224q26 0 45 19t19 45v224q0 26 -19 45t-45 19h-224q-26 0 -45 -19t-19 -45v-224z" />
    <glyph glyph-name="hourglass-half" unicode="hourglass&#x2d;half" horiz-adv-x="384" 
d="M0 424q0 -10 7 -17t17 -7h8v-19q0 -63 44 -107l82 -82l-82 -82q-44 -44 -44 -107v-19h-8q-10 0 -17 -7t-7 -17t7 -17t17 -7h336q10 0 17 7t7 17t-7 17t-17 7h-8v19q0 63 -45 107l-81 82l82 82q44 44 44 107v19h8q10 0 17 7t7 17t-7 17t-17 7h-336q-10 0 -17 -7t-7 -17z
M110 76v1l82 81l82 -82q5 -5 10 -12h-184q5 7 10 12zM284 320h-184q-20 27 -20 61v19h224v-19q0 -34 -20 -61z" />
    <glyph glyph-name="hand-back-fist" unicode="hand&#x2d;back&#x2d;fist" horiz-adv-x="448" 
d="M144 384v-64v-14v-66q0 -7 -4.5 -11.5t-11.5 -4.5t-11.5 4.5t-4.5 11.5v32q-6 -5 -12 -11l-10 -11q-10 -11 -10 -27v-12q0 -54 44 -86l9 -6l-13 -19l13 19q9 -6 21 -7q9 -1 15.5 -7.5t6.5 -16.5v-128q0 -10 -7 -17t-17 -7t-17 7t-7 17v109q-12 4 -22 11l-9 6l14 20
l-14 -20q-31 21 -48 54t-17 71v12q0 34 23 59l9 11l18 -16l-18 16q14 15 32 27v64q0 26 19 45t45 19q37 0 56 -32h8q37 0 56 -32h8q37 0 56 -32h8q26 0 45 -19t19 -45v-104q0 -34 -17.5 -62.5t-46.5 -43.5v-118q0 -10 -7 -17t-17 -7t-17 7t-7 17v134q0 16 16 22
q21 8 34.5 26.5t13.5 41.5v104q0 7 -4.5 11.5t-11.5 4.5q-5 0 -10 -3q-11 -9 -24.5 -2.5t-13.5 21.5q0 7 -4.5 11.5t-11.5 4.5q-5 0 -10 -3q-11 -9 -24.5 -2.5t-13.5 21.5q0 7 -4.5 11.5t-11.5 4.5q-5 0 -10 -3q-11 -9 -24.5 -2.5t-13.5 21.5q0 7 -4.5 11.5t-11.5 4.5
t-11.5 -4.5t-4.5 -11.5z" />
    <glyph glyph-name="hand-scissors" unicode="hand&#x2d;scissors" 
d="M0 171.5q1 -26.5 20.5 -44.5t45.5 -17l126 4v-2q0 -37 32 -56v-8q0 -26 19 -45t45 -19h96h8q50 0 85 35t35 85v125q0 42 -21 77l-1 3q-21 35 -56 55t-76 20h-10q-38 0 -65 -29l-18 -20q-5 -6 -7 -9l-173 39q-26 6 -48.5 -8.5t-28 -40.5t8.5 -48t40 -28l8 -2h-3
q-27 -1 -45 -20.5t-17 -46zM64 190l187 6q10 1 17 8.5t6 18.5v1q-2 17 -19 21l-188 42q-4 1 -7 3.5t-4.5 7t-0.5 8.5q2 6 7.5 9.5t11.5 2.5l189 -42l85 -20q4 -1 7 0t5.5 2.5t4.5 4t3 5.5q1 7 -2.5 12.5t-9.5 6.5l-57 14l0.5 0.5t0.5 1.5l19 20l-18 16l18 -16q12 13 29 13
h10q28 0 52 -14t38 -38l2 -2q14 -24 14 -53v-125q0 -30 -21 -51t-51 -21h-8h-96q-7 0 -11.5 4.5t-4.5 11.5q0 5 3 10q9 11 2.5 24.5t-21.5 13.5q-7 0 -11.5 4.5t-4.5 11t4 11.5q11 12 4.5 26.5t-22.5 14.5l-161 -6q-5 0 -8.5 2t-6 5.5t-2.5 7.5q0 7 4.5 12t11.5 5zM64 190z
" />
    <glyph glyph-name="hand-lizard" unicode="hand&#x2d;lizard" 
d="M72 336h210q50 0 82 -40l78 -100q22 -28 22 -64v-108q0 -10 7 -17t17 -7t17 7t7 17v108q0 52 -32 94l-79 100q-45 58 -119 58h-210q-30 0 -51 -21t-21 -51t21 -51t51 -21h168q7 0 11.5 -4.5t4.5 -11.5t-4.5 -11.5t-11.5 -4.5h-104q-30 0 -51 -21t-21 -51t21 -51t51 -21
h145l47 -29v-11q0 -10 7 -17t17 -7t17 7t7 17v24q0 13 -11 20l-64 40q-6 4 -13 4h-152q-10 0 -17 7t-7 17t7 17t17 7h104q26 0 45 19t19 45t-19 45t-45 19h-168q-10 0 -17 7t-7 17t7 17t17 7zM72 336z" />
    <glyph glyph-name="hand-spock" unicode="hand&#x2d;spock" horiz-adv-x="576" 
d="M170 367q-17 3 -34 -3q-24 -10 -34.5 -34.5t-1.5 -48.5l52 -132l-17 14q-21 16 -47 12.5t-42.5 -24.5t-13 -47t24.5 -42l92 -72q69 -54 157 -54h34q52 0 93 32t54 83l55 221q6 26 -7.5 49t-39.5 29q-15 4 -31 0q1 23 -14 41.5t-38 23.5q-26 5 -48 -10t-27 -41l-13 -70
l-30 107q-8 26 -31 39t-48.5 5.5t-38.5 -30t-6 -48.5zM247 388l58 -202q5 -18 23 -18q9 0 16 5.5t8 14.5l32 167q1 7 6.5 10.5t12.5 2.5t10.5 -6.5t2.5 -12.5l-29 -150q-2 -12 6 -21.5t20 -9.5q9 0 16 5.5t9 14.5l26 104q2 6 8 9.5t12 2t9.5 -7.5t2.5 -12l-56 -222
q-9 -34 -37 -56t-63 -22h-34q-72 0 -128 44l-92 71q-12 10 -2.5 22.5t22.5 3.5l63 -49q19 -16 38.5 -1t10.5 38l-73 185q-1 4 -0.5 8t3 7.5t6.5 5.5q6 2 12 -0.5t9 -8.5l51 -128q4 -9 12.5 -13t17.5 -1t13.5 11.5t1.5 17.5l-54 183q-1 4 -0.5 8t3.5 7t8 4q6 2 11.5 -1
t7.5 -10zM247 388z" />
    <glyph glyph-name="hand-pointer" unicode="hand&#x2d;pointer" horiz-adv-x="448" 
d="M160 384v-256v-20q0 -18 -17 -23t-27 10l-39 58q-3 5 -9.5 6.5t-12.5 -2.5q-13 -9 -4 -22l67 -101q16 -23 40.5 -36.5t52.5 -13.5h1h60h56q30 0 51 21t21 51v104v16q0 6 -4.5 11t-11.5 5q-6 0 -10 -4q-10 -8 -23 -3q-13 4 -15 18q-3 13 -16 13q-8 0 -13 -7
q-10 -13 -26.5 -7.5t-16.5 22.5q0 7 -4.5 11.5t-11.5 4.5q-8 0 -13 -6q-10 -14 -26.5 -8.5t-16.5 22.5v136q0 7 -4.5 11.5t-11.5 4.5t-11.5 -4.5t-4.5 -11.5zM176 448q26 0 45 -19t19 -45v-96h8q33 0 52 -27q10 3 20 3q32 0 51 -25q7 1 13 1q26 0 45 -19t19 -45v-16v-104
q0 -50 -35 -85t-85 -35h-56h-60h-1q-40 0 -75 19t-58 52l-67 102q-15 22 -10 48t27 40q21 14 44.5 10.5t39.5 -21.5v198q0 26 19 45t45 19zM224 144v-96q0 -7 -4.5 -11.5t-11.5 -4.5t-11.5 4.5t-4.5 11.5v96q0 7 4.5 11.5t11.5 4.5t11.5 -4.5t4.5 -11.5zM272 160
q7 0 11.5 -4.5t4.5 -11.5v-96q0 -7 -4.5 -11.5t-11.5 -4.5t-11.5 4.5t-4.5 11.5v96q0 7 4.5 11.5t11.5 4.5zM352 144v-96q0 -7 -4.5 -11.5t-11.5 -4.5t-11.5 4.5t-4.5 11.5v96q0 7 4.5 11.5t11.5 4.5t11.5 -4.5t4.5 -11.5z" />
    <glyph glyph-name="calendar-plus" unicode="calendar&#x2d;plus" 
d="M184 424v-40h144v40q0 10 7 17t17 7t17 -7t7 -17v-40h40q26 0 45 -19t19 -45v-16v-48v-256q0 -26 -19 -45t-45 -19h-320q-26 0 -45 19t-19 45v256v48v16q0 26 19 45t45 19h40v40q0 10 7 17t17 7t17 -7t7 -17zM80 256v-256q0 -7 4.5 -11.5t11.5 -4.5h320q7 0 11.5 4.5
t4.5 11.5v256h-352zM256 216q10 0 17 -7t7 -17v-48h48q10 0 17 -7t7 -17t-7 -17t-17 -7h-48v-48q0 -10 -7 -17t-17 -7t-17 7t-7 17v48h-48q-10 0 -17 7t-7 17t7 17t17 7h48v48q0 10 7 17t17 7z" />
    <glyph glyph-name="calendar-minus" unicode="calendar&#x2d;minus" 
d="M160 448q-10 0 -17 -7t-7 -17v-40h-40q-26 0 -45 -19t-19 -45v-16v-48v-256q0 -26 19 -45t45 -19h320q26 0 45 19t19 45v256v48v16q0 26 -19 45t-45 19h-40v40q0 10 -7 17t-17 7t-17 -7t-7 -17v-40h-144v40q0 10 -7 17t-17 7zM432 256v-256q0 -7 -4.5 -11.5t-11.5 -4.5
h-320q-7 0 -11.5 4.5t-4.5 11.5v256h352zM328 96q10 0 17 7t7 17t-7 17t-17 7h-144q-10 0 -17 -7t-7 -17t7 -17t17 -7h144z" />
    <glyph glyph-name="calendar-xmark" unicode="calendar&#x2d;xmark" 
d="M160 448q-10 0 -17 -7t-7 -17v-40h-40q-26 0 -45 -19t-19 -45v-16v-48v-256q0 -26 19 -45t45 -19h320q26 0 45 19t19 45v256v48v16q0 26 -19 45t-45 19h-40v40q0 10 -7 17t-17 7t-17 -7t-7 -17v-40h-144v40q0 10 -7 17t-17 7zM432 256v-256q0 -7 -4.5 -11.5t-11.5 -4.5
h-320q-7 0 -11.5 4.5t-4.5 11.5v256h352zM337 167q7 7 7 17t-7 17t-17 7t-17 -7l-47 -47l-47 47q-7 7 -17 7t-17 -7t-7 -17t7 -17l47 -47l-47 -47q-7 -7 -7 -17t7 -17t17 -7t17 7l47 47l47 -47q7 -7 17 -7t17 7t7 17t-7 17l-47 47z" />
    <glyph glyph-name="calendar-check" unicode="calendar&#x2d;check" horiz-adv-x="448" 
d="M128 448q-10 0 -17 -7t-7 -17v-40h-40q-26 0 -45 -19t-19 -45v-16v-48v-256q0 -26 19 -45t45 -19h320q26 0 45 19t19 45v256v48v16q0 26 -19 45t-45 19h-40v40q0 10 -7 17t-17 7t-17 -7t-7 -17v-40h-144v40q0 10 -7 17t-17 7zM400 256v-256q0 -7 -4.5 -11.5t-11.5 -4.5
h-320q-7 0 -11.5 4.5t-4.5 11.5v256h352zM329 151q7 7 7 17t-7 17t-17 7t-17 -7l-95 -95l-47 47q-7 7 -17 7t-17 -7t-7 -17t7 -17l64 -64q7 -7 17 -7t17 7zM329 151z" />
    <glyph glyph-name="map" unicode="map" horiz-adv-x="576" 
d="M565.5 412q-10.5 7 -21.5 2l-160 -60l-184 61q-8 2 -17 -1l-168 -64q-15 -5 -15 -22v-336q0 -13 10.5 -20t21.5 -3l160 61l184 -61q8 -2 16 1l168 64q16 5 16 22v336q0 13 -10.5 20zM48 312l120 45v-285l-120 -45v285zM360 25l-144 48v286l144 -48v-286zM408 27v285
l120 45v-285z" />
    <glyph glyph-name="message" unicode="comment&#x2d;alt" 
d="M160 80h-96q-7 0 -11.5 4.5t-4.5 11.5v288q0 7 4.5 11.5t11.5 4.5h384q7 0 11.5 -4.5t4.5 -11.5v-288q0 -7 -4.5 -11.5t-11.5 -4.5h-139q-16 0 -29 -10l-72 -54v16q0 20 -14 34t-34 14zM208 -44l101 76h139q26 0 45 19t19 45v288q0 26 -19 45t-45 19h-384q-26 0 -45 -19
t-19 -45v-288q0 -26 19 -45t45 -19h48h48v-48v-4v-7v-21q0 -10 9 -14.5t17 1.5l17 13z" />
    <glyph glyph-name="comment-dots" unicode="comment&#x2d;dots" 
d="M168 63q42 -15 88 -15q90 0 149 48.5t59 111.5q0 40 -25.5 76.5t-74 60t-108.5 23.5q-90 0 -149 -48.5t-59 -111.5q0 -49 36 -89q13 -16 12 -36q-2 -24 -12 -49q23 10 40 23q20 15 44 6zM26 24q19 32 22 63q-48 54 -48 121q0 86 75 147t181 61q70 0 129 -28t93 -75.5
t34 -104.5q0 -86 -75 -147t-181 -61q-54 0 -104 18q-23 -17 -54 -31q-26 -11 -50 -16h-3q-5 -1 -13 -2q-9 -1 -16 -1q-10 0 -14.5 10t3.5 17q6 6 11 14l5 7q3 4 5 8zM144 176q-13 0 -22.5 9.5t-9.5 22.5t9.5 22.5t22.5 9.5t22.5 -9.5t9.5 -22.5t-9.5 -22.5t-22.5 -9.5z
M288 208q0 -13 -9.5 -22.5t-22.5 -9.5t-22.5 9.5t-9.5 22.5t9.5 22.5t22.5 9.5t22.5 -9.5t9.5 -22.5zM368 176q-13 0 -22.5 9.5t-9.5 22.5t9.5 22.5t22.5 9.5t22.5 -9.5t9.5 -22.5t-9.5 -22.5t-22.5 -9.5z" />
    <glyph glyph-name="circle-pause" unicode="circle&#x2d;pause" 
d="M464 192q0 -56 -28 -104t-76 -76t-104 -28t-104 28t-76 76t-28 104q0 37 12.5 71.5t36 62.5t55.5 46q48 28 104 28t104 -28t76 -76t28 -104zM0 192q0 -69 34.5 -128t93.5 -93.5t128 -34.5t128 34.5t93.5 93.5t34.5 128t-34.5 128t-93.5 93.5t-128 34.5t-128 -34.5
t-93.5 -93.5t-34.5 -128zM224 264q0 10 -7 17t-17 7t-17 -7t-7 -17v-144q0 -10 7 -17t17 -7t17 7t7 17v144zM336 264q0 10 -7 17t-17 7t-17 -7t-7 -17v-144q0 -10 7 -17t17 -7t17 7t7 17v144z" />
    <glyph glyph-name="circle-stop" unicode="circle&#x2d;stop" 
d="M464 192q0 -56 -28 -104t-76 -76t-104 -28t-104 28t-76 76t-28 104q0 37 12.5 71.5t36 62.5t55.5 46q48 28 104 28t104 -28t76 -76t28 -104zM0 192q0 -69 34.5 -128t93.5 -93.5t128 -34.5t128 34.5t93.5 93.5t34.5 128t-34.5 128t-93.5 93.5t-128 34.5t-128 -34.5
t-93.5 -93.5t-34.5 -128zM192 288q-13 0 -22.5 -9.5t-9.5 -22.5v-128q0 -13 9.5 -22.5t22.5 -9.5h128q13 0 22.5 9.5t9.5 22.5v128q0 13 -9.5 22.5t-22.5 9.5h-128z" />
    <glyph glyph-name="font-awesome" unicode="font&#x2d;awesome&#x2d;logo&#x2d;full" horiz-adv-x="448" 
d="M48 392v-19h3q13 3 35 10q2 1 4.5 2l5 2t4.5 1q34 12 66 12q35 0 79 -16h1q37 -13 64 -13q25 0 81 19q24 8 25 9l32 11v-34v-288v-17l-16 -6q-2 0 -11 -3.5t-14 -4.5q-63 -23 -98 -23q-34 0 -79 16q-38 14 -64 14q-17 0 -33 -4q-9 -2 -17.5 3t-11.5 15q-1 6 1 12.5
t6.5 10.5t10.5 6q22 5 44 5q35 0 79 -16h1q37 -13 63 -13t81 19l10 3v237q-56 -19 -90.5 -19t-79.5 16q-38 13 -64 13q-24 0 -51 -9q-2 -1 -5.5 -2t-4.5 -2v0q-27 -10 -45 -13l-12 -2v-332q0 -10 -7 -17t-17 -7t-17 7t-7 17v400q0 10 7 17t17 7t17 -7t7 -17z" />
    <glyph glyph-name="handshake" unicode="handshake" horiz-adv-x="640" 
d="M272 383q-6 1 -13 1h-10q-58 0 -101 -38l-27 -24q-2 -2 -5 -2h-20h-40h-40q-7 0 -11.5 -4.5t-4.5 -11.5v-208q0 -13 9.5 -22.5t22.5 -9.5h32q13 0 22.5 9.5t9.5 22.5q12 -1 20 -9l36 -36l7 -7l27 -27q17 -18 42 -19t44 15q23 -17 51.5 -14.5t48.5 22.5q9 9 15 20
q37 -6 63 20q8 8 13 19h85q9 -16 28 -16h32q13 0 22.5 9.5t9.5 22.5v208q0 7 -4.5 11.5t-11.5 4.5h-40h-40h-39l-30 27q-42 37 -98 37q-59 0 -101 -40l-70 -66q-23 -22 -22.5 -54t23.5 -53q21 -18 49 -18t48 19l36 33l76 -76q7 -7 7 -17t-7 -17q-14 -14 -31 -2q-11 8 -24 2
t-14 -21q0 -11 -9 -19q-8 -9 -20.5 -9t-20.5 9l-11 11q-10 9 -22.5 6t-17.5 -15q-1 -3 -3 -6q-5 -5 -11.5 -5t-11.5 5l-27 27l-7 7l-36 36q-22 22 -54 23v128h20q21 0 37 14l27 24q18 16 41 22zM544 128h-75q-4 20 -19 35l-75 75h1q7 7 7.5 17t-6 17.5t-16.5 7.5t-17 -6
l-72 -67q-7 -6 -16.5 -6t-16.5 6q-8 7 -8 17.5t8 18.5l70 66q29 27 68 27q38 0 66 -25l37 -33q7 -6 16 -6h48v-144zM64 112q0 -7 -4.5 -11.5t-11.5 -4.5t-11.5 4.5t-4.5 11.5t4.5 11.5t11.5 4.5t11.5 -4.5t4.5 -11.5zM592 96q-7 0 -11.5 4.5t-4.5 11.5t4.5 11.5t11.5 4.5
t11.5 -4.5t4.5 -11.5t-4.5 -11.5t-11.5 -4.5z" />
    <glyph glyph-name="envelope-open" unicode="envelope&#x2d;open" 
d="M255 400l-204 -146q-3 -2 -3 -6v-14l172 -142q16 -12 36 -12t36 12l172 142v14q0 4 -3 6l-204 146h-1h-1zM48 172v-180q0 -8 8 -8h400q8 0 8 8v180l-142 -117q-29 -23 -66 -23t-66 23zM256 448q16 0 28 -9l205 -146q23 -17 23 -45v-256q0 -23 -16.5 -39.5t-39.5 -16.5
h-400q-23 0 -39.5 16.5t-16.5 39.5v256q0 28 24 45l204 146q12 9 28 9z" />
    <glyph glyph-name="address-book" unicode="address&#x2d;book" 
d="M384 400h-288q-7 0 -11.5 -4.5t-4.5 -11.5v-384q0 -7 4.5 -11.5t11.5 -4.5h288q7 0 11.5 4.5t4.5 11.5v384q0 7 -4.5 11.5t-11.5 4.5zM96 448h288q26 0 45 -19t19 -45v-384q0 -26 -19 -45t-45 -19h-288q-26 0 -45 19t-19 45v384q0 26 19 45t45 19zM240 192
q-37 0 -55.5 32t0 64t55.5 32t55.5 -32t0 -64t-55.5 -32zM208 160h64q33 0 56.5 -23.5t23.5 -56.5q0 -7 -4.5 -11.5t-11.5 -4.5h-192q-7 0 -11.5 4.5t-4.5 11.5q0 33 23.5 56.5t56.5 23.5zM512 368v-64q0 -7 -4.5 -11.5t-11.5 -4.5t-11.5 4.5t-4.5 11.5v64q0 7 4.5 11.5
t11.5 4.5t11.5 -4.5t4.5 -11.5zM496 256q7 0 11.5 -4.5t4.5 -11.5v-64q0 -7 -4.5 -11.5t-11.5 -4.5t-11.5 4.5t-4.5 11.5v64q0 7 4.5 11.5t11.5 4.5zM512 112v-64q0 -7 -4.5 -11.5t-11.5 -4.5t-11.5 4.5t-4.5 11.5v64q0 7 4.5 11.5t11.5 4.5t11.5 -4.5t4.5 -11.5z" />
    <glyph glyph-name="address-card" unicode="address&#x2d;card" horiz-adv-x="576" 
d="M512 368h-448q-7 0 -11.5 -4.5t-4.5 -11.5v-320q0 -7 4.5 -11.5t11.5 -4.5h448q7 0 11.5 4.5t4.5 11.5v320q0 7 -4.5 11.5t-11.5 4.5zM64 416h448q26 0 45 -19t19 -45v-320q0 -26 -19 -45t-45 -19h-448q-26 0 -45 19t-19 45v320q0 26 19 45t45 19zM208 192
q-37 0 -55.5 32t0 64t55.5 32t55.5 -32t0 -64t-55.5 -32zM176 160h64q33 0 56.5 -23.5t23.5 -56.5q0 -7 -4.5 -11.5t-11.5 -4.5h-192q-7 0 -11.5 4.5t-4.5 11.5q0 33 23.5 56.5t56.5 23.5zM376 304h80q10 0 17 -7t7 -17t-7 -17t-17 -7h-80q-10 0 -17 7t-7 17t7 17t17 7z
M376 208h80q10 0 17 -7t7 -17t-7 -17t-17 -7h-80q-10 0 -17 7t-7 17t7 17t17 7z" />
    <glyph glyph-name="circle-user" unicode="circle&#x2d;user" 
d="M406 48q58 61 58 144q0 86 -61 147t-147 61t-147 -61t-61 -147q0 -83 58 -144q14 36 46 58t72 22h64q26 0 50 -10t41.5 -28t26.5 -42zM366 16h1q-6 27 -28 45.5t-51 18.5h-64q-29 0 -51 -18.5t-27 -45.5q50 -32 110 -32t110 32zM256 -64q-69 0 -128 34.5t-93.5 93.5
t-34.5 128t34.5 128t93.5 93.5t128 34.5t128 -34.5t93.5 -93.5t34.5 -128t-34.5 -128t-93.5 -93.5t-128 -34.5zM256 208q23 0 34.5 20t0 40t-34.5 20t-34.5 -20t0 -40t34.5 -20zM168 248q0 24 12 44t32 32q44 26 88 0q20 -12 32 -32t12 -44t-12 -44t-32 -32q-44 -26 -88 0
q-20 12 -32 32t-12 44z" />
    <glyph glyph-name="id-badge" unicode="id&#x2d;badge" horiz-adv-x="384" 
d="M256 400h64q7 0 11.5 -4.5t4.5 -11.5v-384q0 -7 -4.5 -11.5t-11.5 -4.5h-256q-7 0 -11.5 4.5t-4.5 11.5v384q0 7 4.5 11.5t11.5 4.5h64v-16q0 -13 9.5 -22.5t22.5 -9.5h64q13 0 22.5 9.5t9.5 22.5v16zM0 384v-384q0 -26 19 -45t45 -19h256q26 0 45 19t19 45v384
q0 26 -19 45t-45 19h-256q-26 0 -45 -19t-19 -45zM160 128q-33 0 -56.5 -23.5t-23.5 -56.5q0 -7 4.5 -11.5t11.5 -4.5h192q7 0 11.5 4.5t4.5 11.5q0 33 -23.5 56.5t-56.5 23.5h-64zM128 224q0 -37 32 -55.5t64 0t32 55.5t-32 55.5t-64 0t-32 -55.5z" />
    <glyph glyph-name="id-card" unicode="drivers&#x2d;license" horiz-adv-x="576" 
d="M528 288h-480v-256q0 -7 4.5 -11.5t11.5 -4.5h32q0 33 23.5 56.5t56.5 23.5h64q33 0 56.5 -23.5t23.5 -56.5h192q7 0 11.5 4.5t4.5 11.5v256zM64 416h448q26 0 45 -19t19 -45v-320q0 -26 -19 -45t-45 -19h-448q-26 0 -45 19t-19 45v320q0 26 19 45t45 19zM272 192
q0 -37 -32 -55q-15 -9 -32 -9t-32 9q-32 18 -32 55t32 55q15 9 32 9t32 -9q32 -18 32 -55zM376 240h80q10 0 17 -7t7 -17t-7 -17t-17 -7h-80q-10 0 -17 7t-7 17t7 17t17 7zM376 144h80q10 0 17 -7t7 -17t-7 -17t-17 -7h-80q-10 0 -17 7t-7 17t7 17t17 7z" />
    <glyph glyph-name="window-maximize" unicode="window&#x2d;maximize" 
d="M0 358q2 13 8 24q8 16 24 25q12 7 26 9h6h384q26 0 45 -19t19 -45v-128v-192q0 -26 -19 -45t-45 -19h-384q-26 0 -45 19t-19 45v192v128v6zM48 224v-192q0 -7 4.5 -11.5t11.5 -4.5h384q7 0 11.5 4.5t4.5 11.5v192h-416z" />
    <glyph glyph-name="window-minimize" unicode="window&#x2d;minimize" 
d="M24 16h464q10 0 17 -7t7 -17t-7 -17t-17 -7h-464q-10 0 -17 7t-7 17t7 17t17 7z" />
    <glyph glyph-name="window-restore" unicode="window&#x2d;restore" 
d="M432 400q13 0 22.5 -9.5t9.5 -22.5v-224q0 -13 -9.5 -22.5t-22.5 -9.5h-16v-48h16q33 0 56.5 23.5t23.5 56.5v224q0 33 -23.5 56.5t-56.5 23.5h-224q-33 0 -56.5 -23.5t-23.5 -56.5v-16h48v16q0 13 9.5 22.5t22.5 9.5h224zM48 0v192h288v-192q0 -7 -4.5 -11.5t-11.5 -4.5
h-256q-7 0 -11.5 4.5t-4.5 11.5zM64 320q-26 0 -45 -19t-19 -45v-256q0 -26 19 -45t45 -19h256q26 0 45 19t19 45v256q0 26 -19 45t-45 19h-256z" />
    <glyph glyph-name="rectangle-xmark" unicode="rectangle&#x2d;times" 
d="M64 368h384q7 0 11.5 -4.5t4.5 -11.5v-320q0 -7 -4.5 -11.5t-11.5 -4.5h-384q-7 0 -11.5 4.5t-4.5 11.5v320q0 7 4.5 11.5t11.5 4.5zM0 352v-320q0 -26 19 -45t45 -19h384q26 0 45 19t19 45v320q0 26 -19 45t-45 19h-384q-26 0 -45 -19t-19 -45zM175 273q-7 -7 -7 -17
t7 -17l47 -47l-47 -47q-7 -7 -7 -17t7 -17t17 -7t17 7l47 47l47 -47q7 -7 17 -7t17 7t7 17t-7 17l-47 47l47 47q7 7 7 17t-7 17t-17 7t-17 -7l-47 -47l-47 47q-7 7 -17 7t-17 -7z" />
    <glyph glyph-name="images" unicode="images" horiz-adv-x="576" 
d="M160 368q-7 0 -11.5 -4.5t-4.5 -11.5v-224q0 -7 4.5 -11.5t11.5 -4.5h16l68 94q8 10 20 10t19 -10l13 -17l52 80q7 11 20 11t20 -11l103 -157h21q7 0 11.5 4.5t4.5 11.5v224q0 7 -4.5 11.5t-11.5 4.5h-352zM96 352q0 26 19 45t45 19h352q26 0 45 -19t19 -45v-224
q0 -26 -19 -45t-45 -19h-352q-26 0 -45 19t-19 45v224zM48 328v-224q0 -36 26 -62t62 -26h320q10 0 17 -7t7 -17t-7 -17t-17 -7h-320q-56 0 -96 40t-40 96v224q0 10 7 17t17 7t17 -7t7 -17zM256 304q0 -13 -9.5 -22.5t-22.5 -9.5t-22.5 9.5t-9.5 22.5t9.5 22.5t22.5 9.5
t22.5 -9.5t9.5 -22.5z" />
    <glyph glyph-name="clipboard" unicode="clipboard" horiz-adv-x="384" 
d="M280 384h-10q-5 28 -27 46t-51 18t-51 -18t-27 -46h-10h-40q-26 0 -45 -19t-19 -45v-320q0 -26 19 -45t45 -19h256q26 0 45 19t19 45v320q0 26 -19 45t-45 19h-40zM64 336h16v-24q0 -10 7 -17t17 -7h88h88q10 0 17 7t7 17v24h16q7 0 11.5 -4.5t4.5 -11.5v-320
q0 -7 -4.5 -11.5t-11.5 -4.5h-256q-7 0 -11.5 4.5t-4.5 11.5v320q0 7 4.5 11.5t11.5 4.5zM192 344q-10 0 -17 7t-7 17t7 17t17 7t17 -7t7 -17t-7 -17t-17 -7z" />
    <glyph glyph-name="gem" unicode="gem" 
d="M168 376h176l-88 -93zM384 349l56 -77h-128zM434 224l-178 -196l-178 196h178h178zM72 272l56 77l72 -77h-128zM506 232q13 15 1 30l-112 152q-7 10 -19 10h-240q-12 0 -19 -10l-112 -152q-12 -16 1 -30l232 -256q7 -8 18 -8t18 8z" />
    <glyph glyph-name="money-bill-1" unicode="money&#x2d;bill&#x2d;alt" horiz-adv-x="576" 
d="M112 336h352q0 -26 19 -45t45 -19v-160q-26 0 -45 -19t-19 -45h-352q0 26 -19 45t-45 19v160q26 0 45 19t19 45zM0 320v-256q0 -26 19 -45t45 -19h448q26 0 45 19t19 45v256q0 26 -19 45t-45 19h-448q-26 0 -45 -19t-19 -45zM176 192q0 -30 15 -56t41 -41t56 -15t56 15
t41 41t15 56t-15 56t-41 41t-56 15t-56 -15t-41 -41t-15 -56zM256 240q0 7 4.5 11.5t11.5 4.5h16q7 0 11.5 -4.5t4.5 -11.5v-80h8q7 0 11.5 -4.5t4.5 -11.5t-4.5 -11.5t-11.5 -4.5h-24h-24q-7 0 -11.5 4.5t-4.5 11.5t4.5 11.5t11.5 4.5h8v64q-7 0 -11.5 4.5t-4.5 11.5z" />
    <glyph glyph-name="face-smile-wink" unicode="face&#x2d;smile&#x2d;wink" 
d="M464 192q0 -56 -28 -104t-76 -76t-104 -28t-104 28t-76 76t-28 104q0 37 12.5 71.5t36 62.5t55.5 46q48 28 104 28t104 -28t76 -76t28 -104zM0 192q0 -69 34.5 -128t93.5 -93.5t128 -34.5t128 34.5t93.5 93.5t34.5 128t-34.5 128t-93.5 93.5t-128 34.5t-128 -34.5
t-93.5 -93.5t-34.5 -128zM178 130q-7 7 -17 7.5t-17 -6t-7.5 -16.5t6.5 -18q45 -49 113 -49t114 49q6 8 6 18t-7.5 16.5t-17.5 6t-17 -7.5q-31 -34 -78 -34t-78 34zM144 240q0 -13 9.5 -22.5t23 -9.5t22.5 9.5t9 22.5t-9 22.5t-22.5 9.5t-23 -9.5t-9.5 -22.5zM310 218
q9 10 25.5 10t25.5 -10q6 -6 14 -6t14 5.5t6.5 14t-5.5 14.5q-21 22 -54.5 22t-54.5 -22q-6 -6 -5.5 -14.5t6.5 -14t14.5 -5.5t13.5 6zM310 218z" />
    <glyph glyph-name="face-angry" unicode="angry" 
d="M256 400q-56 0 -104 -28t-76 -76t-28 -104t28 -104t76 -76t104 -28t104 28t76 76t28 104t-28 104t-76 76t-104 28zM256 -64q-69 0 -128 34.5t-93.5 93.5t-34.5 128t34.5 128t93.5 93.5t128 34.5t128 -34.5t93.5 -93.5t34.5 -128t-34.5 -128t-93.5 -93.5t-128 -34.5z
M328 54h1q-8 -6 -18 -6t-16 8q-16 16 -39 16t-38 -16q-7 -8 -17 -8t-17.5 6.5t-7.5 16.5t7 17q29 32 73 32t74 -32q6 -7 6 -17t-8 -17zM176.5 176q-13.5 0 -23 9.5t-9.5 22.5t10 23l-31 10q-6 2 -9 8t-1 12t8 9t12 1l96 -32q6 -2 9 -8t1 -12t-8 -9t-12 -1l-11 3v-4
q0 -13 -9 -22.5t-22.5 -9.5zM368 208h1q0 -13 -9.5 -22.5t-23 -9.5t-22.5 9.5t-9 22.5v5l-12 -4q-6 -2 -12 1t-8 9t1 12t9 8l96 32q4 1 8 0.5t7.5 -3.5t4.5 -7q2 -6 -1 -12t-9 -8l-30 -10q9 -10 9 -23zM368 208z" />
    <glyph glyph-name="face-dizzy" unicode="dizzy" 
d="M464 192q0 -56 -28 -104t-76 -76t-104 -28t-104 28t-76 76t-28 104q0 37 12.5 71.5t36 62.5t55.5 46q48 28 104 28t104 -28t76 -76t28 -104zM0 192q0 -69 34.5 -128t93.5 -93.5t128 -34.5t128 34.5t93.5 93.5t34.5 128t-34.5 128t-93.5 93.5t-128 34.5t-128 -34.5
t-93.5 -93.5t-34.5 -128zM256 160q-37 0 -55.5 -32t0 -64t55.5 -32t55.5 32t0 64t-55.5 32zM103 313q-7 -7 -7 -17t7 -17l23 -23l-23 -23q-7 -7 -7 -17t7 -17t17 -7t17 7l23 23l23 -23q7 -7 17 -7t17 7t7 17t-7 17l-23 23l23 23q7 7 7 17t-7 17t-17 7t-17 -7l-23 -23l-23 23
q-4 3 -8 5t-9 2t-9.5 -2t-7.5 -5zM295 313q-7 -7 -7 -17t7 -17l23 -23l-23 -23q-7 -7 -7 -17t7 -17t17 -7t17 7l23 23l23 -23q7 -7 17 -7t17 7t7 17t-7 17l-23 23l23 23q7 7 7 17t-7 17t-17 7t-17 -7l-23 -23l-23 23q-7 7 -17 7t-17 -7z" />
    <glyph glyph-name="face-flushed" unicode="face&#x2d;flushed" 
d="M464 192q0 28 -7 54.5t-20.5 49.5t-33 42.5t-43.5 33.5q-48 28 -104 28t-104 -28t-76 -76t-28 -104t28 -104t76 -76t104 -28t104 28t76 76t28 104zM256 448q69 0 128 -34.5t93.5 -93.5t34.5 -128t-34.5 -128t-93.5 -93.5t-128 -34.5t-128 34.5t-93.5 93.5t-34.5 128
t34.5 128t93.5 93.5t128 34.5zM160 200q-10 0 -17 7t-7 17t7 17t17 7t17 -7t7 -17t-7 -17t-17 -7zM376 224q0 -10 -7 -17t-17 -7t-17 7t-7 17t7 17t17 7t17 -7t7 -17zM192 112h128q10 0 17 -7t7 -17t-7 -17t-17 -7h-128q-10 0 -17 7t-7 17t7 17t17 7zM160 272
q-28 0 -41.5 -24t0 -48t41.5 -24t41.5 24t0 48t-41.5 24zM160 144q-46 0 -69 40t0 80t69 40t69 -40t0 -80t-69 -40zM304 224q0 -28 24 -41.5t48 0t24 41.5t-24 41.5t-48 0t-24 -41.5zM432 224q0 -46 -40 -69t-80 0t-40 69t40 69t80 0t40 -69z" />
    <glyph glyph-name="face-frown-open" unicode="face&#x2d;frown&#x2d;open" 
d="M464 192q0 -56 -28 -104t-76 -76t-104 -28t-104 28t-76 76t-28 104q0 37 12.5 71.5t36 62.5t55.5 46q48 28 104 28t104 -28t76 -76t28 -104zM0 192q0 -69 34.5 -128t93.5 -93.5t128 -34.5t128 34.5t93.5 93.5t34.5 128t-34.5 128t-93.5 93.5t-128 34.5t-128 -34.5
t-93.5 -93.5t-34.5 -128zM182 66q35 14 74 14t74 -14q9 -4 17 1.5t4 14.5q-12 28 -38 45t-57 17q-21 0 -39.5 -8t-33 -22t-22.5 -32q-4 -9 4 -14.5t17 -1.5zM144 240q0 -13 9.5 -22.5t23 -9.5t22.5 9.5t9 22.5t-9 22.5t-22.5 9.5t-23 -9.5t-9.5 -22.5zM336.5 272
q-13.5 0 -23 -9.5t-9.5 -22.5t9.5 -22.5t23 -9.5t22.5 9.5t9 22.5t-9 22.5t-22.5 9.5z" />
    <glyph glyph-name="face-grimace" unicode="face&#x2d;grimace" 
d="M256 400q56 0 104 -28t76 -76t28 -104t-28 -104t-76 -76t-104 -28t-104 28t-76 76t-28 104t28 104t76 76t104 28zM512 192q0 69 -34.5 128t-93.5 93.5t-128 34.5t-128 -34.5t-93.5 -93.5t-34.5 -128t34.5 -128t93.5 -93.5t128 -34.5t128 34.5t93.5 93.5t34.5 128z
M168 128h8v-48h-8q-10 0 -17 7t-7 17t7 17t17 7zM208 80v48h32v-48h-32zM304 80h-32v48h32v-48zM336 80v48h8q10 0 17 -7t7 -17t-7 -17t-17 -7h-8zM168 160q-23 0 -39.5 -16.5t-16.5 -39.5t16.5 -39.5t39.5 -16.5h176q23 0 39.5 16.5t16.5 39.5t-16.5 39.5t-39.5 16.5h-176z
M144 240q0 -13 9.5 -22.5t23 -9.5t22.5 9.5t9 22.5t-9 22.5t-22.5 9.5t-23 -9.5t-9.5 -22.5zM336.5 272q-13.5 0 -23 -9.5t-9.5 -22.5t9.5 -22.5t23 -9.5t22.5 9.5t9 22.5t-9 22.5t-22.5 9.5z" />
    <glyph glyph-name="face-grin" unicode="face&#x2d;grin" 
d="M464 192q0 -56 -28 -104t-76 -76t-104 -28t-104 28t-76 76t-28 104q0 37 12.5 71.5t36 62.5t55.5 46q48 28 104 28t104 -28t76 -76t28 -104zM0 192q0 -69 34.5 -128t93.5 -93.5t128 -34.5t128 34.5t93.5 93.5t34.5 128t-34.5 128t-93.5 93.5t-128 34.5t-128 -34.5
t-93.5 -93.5t-34.5 -128zM350 140q-45 -11 -94 -11t-94 11q-14 3 -23.5 -7t-1.5 -21q19 -30 50.5 -47t68.5 -17t68.5 17t50.5 47q8 11 -1.5 21t-23.5 7zM144 240q0 -13 9.5 -22.5t23 -9.5t22.5 9.5t9 22.5t-9 22.5t-22.5 9.5t-23 -9.5t-9.5 -22.5zM336.5 272
q-13.5 0 -23 -9.5t-9.5 -22.5t9.5 -22.5t23 -9.5t22.5 9.5t9 22.5t-9 22.5t-22.5 9.5z" />
    <glyph glyph-name="face-grin-wide" unicode="face&#x2d;grin&#x2d;wide" 
d="M464 192q0 -56 -28 -104t-76 -76t-104 -28t-104 28t-76 76t-28 104q0 37 12.5 71.5t36 62.5t55.5 46q48 28 104 28t104 -28t76 -76t28 -104zM0 192q0 -69 34.5 -128t93.5 -93.5t128 -34.5t128 34.5t93.5 93.5t34.5 128t-34.5 128t-93.5 93.5t-128 34.5t-128 -34.5
t-93.5 -93.5t-34.5 -128zM350 140q-45 -11 -94 -11t-94 11q-14 3 -23.5 -7t-1.5 -21q19 -30 50.5 -47t68.5 -17t68.5 17t50.5 47q8 11 -1.5 21t-23.5 7zM224 256q0 26 -9.5 45t-22.5 19t-22.5 -19t-9.5 -45t9.5 -45t22.5 -19t22.5 19t9.5 45zM320 192q13 0 22.5 19t9.5 45
t-9.5 45t-22.5 19t-22.5 -19t-9.5 -45t9.5 -45t22.5 -19z" />
    <glyph glyph-name="face-grin-beam" unicode="face&#x2d;grin&#x2d;beam" 
d="M464 192q0 -56 -28 -104t-76 -76t-104 -28t-104 28t-76 76t-28 104q0 37 12.5 71.5t36 62.5t55.5 46q48 28 104 28t104 -28t76 -76t28 -104zM0 192q0 -69 34.5 -128t93.5 -93.5t128 -34.5t128 34.5t93.5 93.5t34.5 128t-34.5 128t-93.5 93.5t-128 34.5t-128 -34.5
t-93.5 -93.5t-34.5 -128zM350 140q-45 -11 -94 -11t-94 11q-14 3 -23.5 -7t-1.5 -21q19 -30 50.5 -47t68.5 -17t68.5 17t50.5 47q8 11 -1.5 21t-23.5 7zM218 219v0q3 -4 8.5 -2.5t5.5 7.5q0 27 -17 49q-17 23 -39 23t-39 -23q-17 -22 -17 -49q0 -6 5.5 -7.5t8.5 2.5v0h1v1
q1 1 3 4l10 10q16 14 28 14t28 -14l10 -10q2 -3 3 -4v-1h1v0zM378 219v0q3 -4 8.5 -2.5t5.5 7.5q0 27 -17 49q-17 23 -39 23t-39 -23q-17 -22 -17 -49q0 -6 5.5 -7.5t8.5 2.5v0h1v1q1 1 3 4l10 10q16 14 28 14t28 -14l10 -10q2 -3 3 -4v-1h1zM378 219z" />
    <glyph glyph-name="face-grin-beam-sweat" unicode="face&#x2d;grin&#x2d;beam&#x2d;sweat" 
d="M477 322q-7 -2 -13 -2q-13 0 -24 6.5t-17.5 17t-6.5 23.5q0 7 5 18l1 2q10 24 36 58q2 3 6 3t6 -3q42 -56 42 -78q0 -16 -10 -28.5t-25 -16.5zM395 407q-2 -4 -4 -9q-7 -18 -7 -31q0 -6 1 -12q-57 45 -129 45q-86 0 -147 -61t-61 -147t61 -147t147 -61t147 61t61 147
q0 54 -26 100q13 -4 26 -4q14 0 27 5q21 -48 21 -101q0 -106 -75 -181t-181 -75t-181 75t-75 181t75 181t181 75q76 0 139 -41zM375 111q-19 -29 -50.5 -46t-68.5 -17t-68.5 17t-50.5 46q-8 12 1.5 22t23.5 7q45 -11 94 -11t94 11q14 3 23.5 -7t1.5 -22zM218 219h-1v1
q-1 1 -3 4l-10 10q-16 14 -28 14t-28 -14l-10 -10q-2 -3 -3 -4v-1h-1v0q-3 -4 -8.5 -2.5t-5.5 7.5q0 27 17 49q17 23 39 23t39 -23q17 -22 17 -49q0 -6 -5.5 -7.5t-8.5 2.5v0zM378 219v0h-1v1q-1 1 -3 4l-10 10q-16 14 -28 14t-28 -14l-10 -10q-2 -3 -3 -4v-1h-1v0
q-3 -4 -8.5 -2.5t-5.5 7.5q0 27 17 49q17 23 39 23t39 -23q17 -22 17 -49q0 -6 -5.5 -7.5t-8.5 2.5v0zM378 219z" />
    <glyph glyph-name="face-grin-hearts" unicode="face&#x2d;grin&#x2d;hearts" 
d="M464 192q0 -56 -28 -104t-76 -76t-104 -28t-104 28t-76 76t-28 104q0 37 12.5 71.5t36 62.5t55.5 46q48 28 104 28t104 -28t76 -76t28 -104zM0 192q0 -69 34.5 -128t93.5 -93.5t128 -34.5t128 34.5t93.5 93.5t34.5 128t-34.5 128t-93.5 93.5t-128 34.5t-128 -34.5
t-93.5 -93.5t-34.5 -128zM350 140q-45 -11 -94 -11t-94 11q-14 3 -23.5 -7t-1.5 -21q19 -30 50.5 -47t68.5 -17t68.5 17t50.5 47q8 11 -1.5 21t-23.5 7zM215 311q-13 4 -25 -3t-16 -21l-4 -16l-16 5q-13 3 -25 -4t-15.5 -20t3 -25t20.5 -16l65 -17q6 -2 12 1.5t7 9.5l18 65
q2 9 0 17.5t-8.5 15t-15.5 8.5zM338 287q-3 9 -9 15t-15 8.5t-17 0.5q-14 -4 -21 -16t-3 -25l17 -65q2 -6 8 -9.5t12 -1.5l65 17q14 4 20.5 16t3 25t-15.5 20t-25 4l-16 -5zM338 287z" />
    <glyph glyph-name="face-grin-squint" unicode="face&#x2d;grin&#x2d;squint" 
d="M464 192q0 -56 -28 -104t-76 -76t-104 -28t-104 28t-76 76t-28 104q0 37 12.5 71.5t36 62.5t55.5 46q48 28 104 28t104 -28t76 -76t28 -104zM0 192q0 -69 34.5 -128t93.5 -93.5t128 -34.5t128 34.5t93.5 93.5t34.5 128t-34.5 128t-93.5 93.5t-128 34.5t-128 -34.5
t-93.5 -93.5t-34.5 -128zM350 140q-45 -11 -94 -11t-94 11q-14 3 -23.5 -7t-1.5 -21q19 -30 50.5 -47t68.5 -17t68.5 17t50.5 47q8 11 -1.5 21t-23.5 7zM134 301q-6 3 -12 0t-6 -10q0 -5 3 -8l36 -43l-36 -43q-3 -3 -3 -8q0 -7 6 -10t12 0l89 48q8 4 8 13t-8 13zM396 291
q0 7 -6 10.5t-12 -0.5l-89 -48q-8 -4 -8 -13t8 -13l89 -48q3 -2 6.5 -1.5t6 2t4 4t1.5 5.5q0 5 -3 8l-36 43l36 43q3 4 3 8z" />
    <glyph glyph-name="face-grin-squint-tears" unicode="face&#x2d;grin&#x2d;squint&#x2d;tears" 
d="M427 434q-16 -16 -27 -88q-1 -5 2 -8t8 -2q71 10 88 27q14 14 14 34.5t-15 35.5t-35.5 15t-34.5 -14zM75 373q-62 -62 -73 -148.5t31 -158.5q6 2 14 4q16 4 35 7q-40 60 -33 134.5t60 127.5t127.5 60t134.5 -34q3 20 7 35q2 7 4 15q-72 42 -158.5 31t-148.5 -73zM465 314
h-1q-15 -4 -35 -7q41 -60 34 -134.5t-60 -127.5t-127.5 -60t-134.5 33q-3 -19 -7 -35q-2 -8 -4 -14q72 -42 158.5 -31t148.5 73t73 148.5t-31 158.5q-6 -2 -14 -4zM359 221q-24 -39 -58.5 -73.5t-73.5 -58.5q-13 -8 -12.5 -21.5t14.5 -16.5q34 -7 68.5 3t60.5 36t36 60.5
t3 68.5q-3 14 -16.5 14.5t-21.5 -12.5zM92 183q-6 -2 -8 -8.5t3 -11.5q3 -3 7 -3l56 -6l5 -56q1 -4 4 -7q5 -5 11.5 -3t8.5 8l29 97q2 6 -0.5 11t-7.5 7.5t-11 0.5zM285 361q-5 5 -11.5 3t-8.5 -8l-29 -97q-3 -9 3.5 -15.5t15.5 -3.5l97 29q6 2 8 8.5t-3 11.5q-3 3 -7 3
l-56 6l-6 56q0 4 -3 7zM15 -49q15 -15 35.5 -15t34.5 14q17 17 27 88q1 5 -2 8t-8 2q-71 -10 -88 -27q-14 -14 -14 -34.5t15 -35.5z" />
    <glyph glyph-name="face-grin-stars" unicode="face&#x2d;grin&#x2d;stars" 
d="M256 400q-56 0 -104 -28t-76 -76t-28 -104t28 -104t76 -76t104 -28t104 28t76 76t28 104t-28 104t-76 76t-104 28zM256 -64q-69 0 -128 34.5t-93.5 93.5t-34.5 128t34.5 128t93.5 93.5t128 34.5t128 -34.5t93.5 -93.5t34.5 -128t-34.5 -128t-93.5 -93.5t-128 -34.5z
M183 315v1l17 -35l38 -5q5 -1 6.5 -5.5t-2.5 -8.5l-27 -26l7 -38q0 -5 -4 -8t-8 -1l-34 19l-34 -19q-4 -2 -8 1t-3 8l7 37l-28 27q-4 3 -2.5 8t6.5 6l38 5l17 34q2 5 7 5t7 -5zM343 315v1l17 -35l38 -5q5 -1 6.5 -5.5t-2.5 -8.5l-27 -26l7 -38q0 -5 -4 -8t-8 -1l-34 19
l-34 -19q-4 -2 -8 1t-3 8l7 37l-28 27q-4 3 -2.5 8t6.5 6l38 5l17 34q2 5 7 5t7 -5zM350 140q14 3 23.5 -7t1.5 -21q-19 -30 -50.5 -47t-68.5 -17t-68.5 17t-50.5 47q-8 11 1.5 21t23.5 7q45 -11 94 -11t94 11z" />
    <glyph glyph-name="face-grin-tears" unicode="face&#x2d;grin&#x2d;tears" horiz-adv-x="640" 
d="M516 122q-22 -61 -75.5 -99.5t-120.5 -38.5t-120.5 38.5t-75.5 99.5q-2 -4 -3 -8q-7 -18 -17 -27q-6 -6 -13 -10q33 -64 94 -102.5t135 -38.5t135 38.5t94 102.5q-7 4 -13 10q-10 10 -17 27q-1 4 -3 8zM320 400q75 0 132.5 -48t71.5 -120q11 4 23 3q12 -2 26 -5
q-14 93 -85.5 155.5t-167.5 62.5t-167.5 -62.5t-85.5 -155.5q14 3 26 4.5t23 -2.5q14 72 71.5 120t132.5 48zM78 107h1q2 2 2 3q16 15 26 84q1 4 -2 7t-7 2q-18 -2 -34 -6q-40 -9 -50 -19q-14 -14 -14 -34t14 -34q14 -13 32.5 -14t31.5 11zM561 107q14 -12 32.5 -11t32.5 14
q14 14 14 34t-14 33q-11 11 -50 20q-14 3 -31 6h-3q-3 0 -5 -1t-3 -3t-1 -5q10 -68 25 -84l1 -1zM439 111q4 9 2 16t-10 11t-18 2q-44 -11 -93 -11t-94 11q-14 3 -23.5 -7t-1.5 -22q19 -29 50.5 -46t68.5 -17t68.5 17t50.5 46zM282 219v0q3 -4 8.5 -2.5t5.5 7.5q0 27 -17 49
q-17 23 -39 23t-39 -23q-17 -22 -17 -49q0 -6 5.5 -7.5t8.5 2.5v0h1v1q1 1 3 4l10 10q16 14 28 14t28 -14l10 -10q2 -3 3 -4v-1h1zM442 219v0q3 -4 8.5 -2.5t5.5 7.5q0 27 -17 49q-17 23 -39 23t-39 -23q-17 -22 -17 -49q0 -6 5.5 -7.5t8.5 2.5v0h1v1q1 1 3 4l10 10
q16 14 28 14t28 -14l10 -10q2 -3 3 -4v-1h1v0zM442 219z" />
    <glyph glyph-name="face-grin-tongue" unicode="face&#x2d;grin&#x2d;tongue" 
d="M464 192q0 -60 -31.5 -110t-84.5 -76q4 13 4 26v52q14 13 23 28q8 11 -1.5 21t-23.5 7q-45 -11 -94 -11t-94 11q-14 3 -23.5 -7t-1.5 -21q9 -15 23 -28v-52q0 -13 4 -26q-53 26 -84.5 76t-31.5 110q0 86 61 147t147 61t147 -61t61 -147zM0 192q0 -69 34.5 -128
t93.5 -93.5t128 -34.5t128 34.5t93.5 93.5t34.5 128t-34.5 128t-93.5 93.5t-128 34.5t-128 -34.5t-93.5 -93.5t-34.5 -128zM176.5 272q-13.5 0 -23 -9.5t-9.5 -22.5t9.5 -22.5t23 -9.5t22.5 9.5t9 22.5t-9 22.5t-22.5 9.5zM304 240q0 -13 9.5 -22.5t23 -9.5t22.5 9.5t9 22.5
t-9 22.5t-22.5 9.5t-23 -9.5t-9.5 -22.5zM320 32q0 -26 -19 -45t-45 -19t-45 19t-19 45v37q0 11 8 19t19 8h2q19 0 23 -19q2 -9 12 -9t12 9q2 8 8.5 13.5t14.5 5.5h2q11 0 19 -8t8 -19v-37zM320 32z" />
    <glyph glyph-name="face-grin-tongue-squint" unicode="face&#x2d;grin&#x2d;tongue&#x2d;squint" 
d="M464 192q0 -60 -31.5 -110t-84.5 -76q4 13 4 26v23q38 27 55 69q3 6 0.5 11t-8 7.5t-11.5 0.5q-62 -19 -132 -19t-132 19q-9 3 -16 -3.5t-3 -15.5q18 -42 55 -69v-23q0 -13 4 -26q-53 26 -84.5 76t-31.5 110q0 86 61 147t147 61t147 -61t61 -147zM0 192q0 -69 34.5 -128
t93.5 -93.5t128 -34.5t128 34.5t93.5 93.5t34.5 128t-34.5 128t-93.5 93.5t-128 34.5t-128 -34.5t-93.5 -93.5t-34.5 -128zM116 291q0 -4 3 -8l36 -43l-36 -43q-3 -3 -3 -8q0 -6 6 -9.5t11 -0.5l90 48q8 4 8 13t-8 14l-90 47q-5 4 -11 0.5t-6 -10.5zM378 301l-89 -47
q-8 -5 -8 -14t8 -13l89 -48q6 -3 12 0.5t6 9.5q0 5 -3 8l-36 43l36 43q3 4 3 8q0 7 -6 10.5t-12 -0.5zM320 32q0 -26 -19 -45t-45 -19t-45 19t-19 45v37q0 11 8 19t19 8h2q19 0 23 -19q2 -9 12 -9t12 9q2 8 8.5 13.5t14.5 5.5h2q11 0 19 -8t8 -19v-37zM320 32z" />
    <glyph glyph-name="face-grin-tongue-wink" unicode="face&#x2d;grin&#x2d;tongue&#x2d;wink" 
d="M348 6q53 26 84.5 76t31.5 110q0 86 -61 147t-147 61t-147 -61t-61 -147q0 -60 31.5 -110t84.5 -76q-4 13 -4 26v52q-14 13 -23 28q-8 11 1.5 21t23.5 7q45 -11 94 -11t94 11q14 3 23.5 -7t1.5 -21q-10 -15 -23 -28v-52q0 -13 -4 -26zM256 -64q-69 0 -128 34.5
t-93.5 93.5t-34.5 128t34.5 128t93.5 93.5t128 34.5t128 -34.5t93.5 -93.5t34.5 -128t-34.5 -128t-93.5 -93.5t-128 -34.5zM159.5 228q-16.5 0 -25.5 -10q-6 -6 -14 -6t-14 5.5t-6.5 14t5.5 14.5q21 22 54.5 22t54.5 -22q6 -6 5.5 -14.5t-6.5 -14t-14 -5.5t-14 6
q-9 10 -25.5 10zM336 216q-10 0 -17 7t-7 17t7 17t17 7t17 -7t7 -17t-7 -17t-17 -7zM336 288q-28 0 -42 -24t0 -48t42 -24t41.5 24t0 48t-41.5 24zM336 160q-46 0 -69 40q-11 19 -11 40t11 40q23 40 69 40t69 -40q11 -19 11 -40t-11 -40q-23 -40 -69 -40zM320 32v37
q0 11 -8 19t-19 8h-2q-19 0 -23 -19q-2 -9 -12 -9t-12 9q-2 8 -8.5 13.5t-14.5 5.5h-2q-11 0 -19 -8t-8 -19v-37q0 -26 19 -45t45 -19t45 19t19 45zM320 32z" />
    <glyph glyph-name="face-grin-wink" unicode="face&#x2d;grin&#x2d;wink" 
d="M464 192q0 -56 -28 -104t-76 -76t-104 -28t-104 28t-76 76t-28 104q0 37 12.5 71.5t36 62.5t55.5 46q48 28 104 28t104 -28t76 -76t28 -104zM0 192q0 -69 34.5 -128t93.5 -93.5t128 -34.5t128 34.5t93.5 93.5t34.5 128t-34.5 128t-93.5 93.5t-128 34.5t-128 -34.5
t-93.5 -93.5t-34.5 -128zM350 140q-45 -11 -94 -11t-94 11q-14 3 -23.5 -7t-1.5 -21q19 -30 50.5 -47t68.5 -17t68.5 17t50.5 47q8 11 -1.5 21t-23.5 7zM144 240q0 -13 9.5 -22.5t23 -9.5t22.5 9.5t9 22.5t-9 22.5t-22.5 9.5t-23 -9.5t-9.5 -22.5zM310 218q9 10 25.5 10
t25.5 -10q6 -6 14 -6t14 5.5t6.5 14t-5.5 14.5q-21 22 -54.5 22t-54.5 -22q-6 -6 -5.5 -14.5t6.5 -14t14.5 -5.5t13.5 6zM310 218z" />
    <glyph glyph-name="face-kiss" unicode="face&#x2d;kiss" 
d="M464 192q0 -56 -28 -104t-76 -76t-104 -28t-104 28t-76 76t-28 104q0 37 12.5 71.5t36 62.5t55.5 46q48 28 104 28t104 -28t76 -76t28 -104zM0 192q0 -69 34.5 -128t93.5 -93.5t128 -34.5t128 34.5t93.5 93.5t34.5 128t-34.5 128t-93.5 93.5t-128 34.5t-128 -34.5
t-93.5 -93.5t-34.5 -128zM305 166q-6 8 -17 14q-22 12 -48 12q-6 0 -7.5 -6t3.5 -9v0v0h1q0 -1 1.5 -1.5t2.5 -1.5q6 -4 10 -7q6 -6 9 -10q4 -5 4 -9t-3.5 -8.5t-9.5 -10.5q-4 -3 -10 -7q-1 -1 -3 -2h-1v-1h-1v0v0v0q-4 -2 -4 -7t4 -7v0v0l1 -1l1.5 -0.5t2.5 -1.5
q6 -4 10 -7q6 -6 9 -10q4 -5 4 -9t-3.5 -8.5t-9.5 -10.5q-4 -3 -10 -7q-1 -1 -2.5 -1.5t-1.5 -1v-0.5h-1v0v0q-5 -3 -3.5 -9t7.5 -6q26 0 48 12q10 6 17 14q7 9 7 18q0 10 -7 18q-6 8 -17 14q-4 2 -9 4q5 2 9 4q10 6 17 14q7 9 7 18q0 10 -7 18zM144 240q0 -13 9.5 -22.5
t23 -9.5t22.5 9.5t9 22.5t-9 22.5t-22.5 9.5t-23 -9.5t-9.5 -22.5zM336.5 272q-13.5 0 -23 -9.5t-9.5 -22.5t9.5 -22.5t23 -9.5t22.5 9.5t9 22.5t-9 22.5t-22.5 9.5z" />
    <glyph glyph-name="face-kiss-beam" unicode="face&#x2d;kiss&#x2d;beam" 
d="M464 192q0 -56 -28 -104t-76 -76t-104 -28t-104 28t-76 76t-28 104q0 37 12.5 71.5t36 62.5t55.5 46q48 28 104 28t104 -28t76 -76t28 -104zM0 192q0 -69 34.5 -128t93.5 -93.5t128 -34.5t128 34.5t93.5 93.5t34.5 128t-34.5 128t-93.5 93.5t-128 34.5t-128 -34.5
t-93.5 -93.5t-34.5 -128zM305 150q-6 8 -17 14q-22 12 -48 12q-6 0 -7.5 -6t3.5 -9v0v0h0.5t0.5 -0.5t1.5 -1t2.5 -1.5q6 -4 10 -7q6 -6 9 -10q4 -5 4 -9t-3.5 -8.5t-9.5 -10.5q-4 -3 -10 -7q-1 -1 -3 -2q-1 0 -1 -0.5v-0.5h-1v0v0v0q-4 -2 -4 -7t4 -7v0v0h0.5t0.5 -0.5
t1.5 -1t2.5 -1.5q6 -4 10 -7q6 -6 9 -10q4 -5 4 -9t-3.5 -8.5t-9.5 -10.5q-4 -3 -10 -7q-1 -1 -3 -2q-1 0 -1 -0.5v-0.5h-1v0v0q-5 -3 -3.5 -9t7.5 -6q26 0 48 12q10 6 17 14q7 9 7 18q0 10 -7 18q-6 8 -17 14q-4 2 -9 4q5 2 9 4q10 6 17 14q7 9 7 18q0 10 -7 18zM218 219v0
q3 -4 8.5 -2.5t5.5 7.5q0 27 -17 49q-17 23 -39 23t-39 -23q-17 -22 -17 -49q0 -6 5.5 -7.5t8.5 2.5v0h1v1q1 1 3 4l10 10q16 14 28 14t28 -14l10 -10q2 -3 3 -4v-1h1v0zM378 219v0q3 -4 8.5 -2.5t5.5 7.5q0 27 -17 49q-17 23 -39 23t-39 -23q-17 -22 -17 -49q0 -6 5.5 -7.5
t8.5 2.5v0h1v1q1 1 3 4l10 10q16 14 28 14t28 -14l10 -10q2 -3 3 -4v-1h1zM378 219z" />
    <glyph glyph-name="face-kiss-wink-heart" unicode="face&#x2d;kiss&#x2d;wink&#x2d;heart" 
d="M339 1l6 -25q3 -11 11 -20q-48 -20 -100 -20q-106 0 -181 75t-75 181t75 181t181 75t181 -75t75 -181q0 -43 -14 -84q-18 8 -36 5q-3 8 -8 15q10 31 10 64q0 86 -61 147t-147 61t-147 -61t-61 -147t61 -147t147 -61q43 0 83 17zM296 132q0 -10 -7 -18q-6 -8 -17 -14
q-4 -2 -9 -4q5 -2 9 -4q10 -6 17 -14q7 -9 7 -18q0 -10 -7 -18q-6 -8 -17 -14q-22 -12 -48 -12q-6 0 -7.5 6t3.5 9v0v0h0.5t0.5 0.5t1.5 1t2.5 1.5q6 4 10 7q6 6 9 10q4 5 4 9t-3.5 8.5t-9.5 10.5q-4 3 -10 7q-1 1 -2.5 1.5t-1.5 1t-0.5 0.5h-0.5v0v0q-4 2 -4 7t4 7v0v0v0
h0.5t0.5 0.5t1.5 1t2.5 1.5q6 4 10 7q6 6 9 10q4 5 4 9t-3.5 8.5t-9.5 10.5q-4 3 -10 7q-1 1 -2.5 1.5t-1.5 1t-0.5 0.5h-0.5v0v0q-5 3 -3.5 9t7.5 6q26 0 48 -12q10 -6 17 -14q7 -9 7 -18zM176.5 208q-13.5 0 -23 9.5t-9.5 22.5t9.5 22.5t23 9.5t22.5 -9.5t9 -22.5
t-9 -22.5t-22.5 -9.5zM335.5 228q-16.5 0 -25.5 -10q-6 -6 -14 -6t-14 5.5t-6.5 14t5.5 14.5q21 22 54.5 22t54.5 -22q6 -6 5.5 -14.5t-6.5 -14t-14 -5.5t-14 6q-9 10 -25.5 10zM434 96l5 -21l20 5q17 5 32 -4t19.5 -26.5t-4 -33t-25.5 -20.5l-85 -24q-6 -1 -12 2t-8 10
l-23 89q-4 18 4.5 33.5t25.5 20t31.5 -4.5t19.5 -26zM434 96z" />
    <glyph glyph-name="face-laugh" unicode="face&#x2d;laugh" 
d="M464 192q0 -56 -28 -104t-76 -76t-104 -28t-104 28t-76 76t-28 104q0 37 12.5 71.5t36 62.5t55.5 46q48 28 104 28t104 -28t76 -76t28 -104zM0 192q0 -69 34.5 -128t93.5 -93.5t128 -34.5t128 34.5t93.5 93.5t34.5 128t-34.5 128t-93.5 93.5t-128 34.5t-128 -34.5
t-93.5 -93.5t-34.5 -128zM131 134q12 -41 47.5 -67.5t80 -26.5t79.5 26.5t48 67.5q3 10 -4 18t-18 8h-212q-11 0 -17.5 -8t-3.5 -18zM144 256q0 -13 9.5 -22.5t23 -9.5t22.5 9.5t9 22.5t-9 22.5t-22.5 9.5t-23 -9.5t-9.5 -22.5zM336.5 288q-13.5 0 -23 -9.5t-9.5 -22.5
t9.5 -22.5t23 -9.5t22.5 9.5t9 22.5t-9 22.5t-22.5 9.5z" />
    <glyph glyph-name="face-laugh-beam" unicode="face&#x2d;laugh&#x2d;beam" 
d="M464 192q0 -56 -28 -104t-76 -76t-104 -28t-104 28t-76 76t-28 104q0 37 12.5 71.5t36 62.5t55.5 46q48 28 104 28t104 -28t76 -76t28 -104zM0 192q0 -69 34.5 -128t93.5 -93.5t128 -34.5t128 34.5t93.5 93.5t34.5 128t-34.5 128t-93.5 93.5t-128 34.5t-128 -34.5
t-93.5 -93.5t-34.5 -128zM131 134q12 -41 47.5 -67.5t80 -26.5t79.5 26.5t48 67.5q3 10 -4 18t-18 8h-212q-11 0 -17.5 -8t-3.5 -18zM218 219v0q3 -4 8.5 -2.5t5.5 7.5q0 27 -17 49q-17 23 -39 23t-39 -23q-17 -22 -17 -49q0 -6 5.5 -7.5t8.5 2.5v0h1v1q1 1 3 4l10 10
q16 14 28 14t28 -14l10 -10q2 -3 3 -4v-1h1v0zM378 219v0q3 -4 8.5 -2.5t5.5 7.5q0 27 -17 49q-17 23 -39 23t-39 -23q-17 -22 -17 -49q0 -6 5.5 -7.5t8.5 2.5v0h1v1q1 1 3 4l10 10q16 14 28 14t28 -14l10 -10q2 -3 3 -4v-1h1zM378 219z" />
    <glyph glyph-name="face-laugh-squint" unicode="face&#x2d;laugh&#x2d;squint" 
d="M464 192q0 -56 -28 -104t-76 -76t-104 -28t-104 28t-76 76t-28 104q0 37 12.5 71.5t36 62.5t55.5 46q48 28 104 28t104 -28t76 -76t28 -104zM0 192q0 -69 34.5 -128t93.5 -93.5t128 -34.5t128 34.5t93.5 93.5t34.5 128t-34.5 128t-93.5 93.5t-128 34.5t-128 -34.5
t-93.5 -93.5t-34.5 -128zM131 134q12 -41 47.5 -67.5t80 -26.5t79.5 26.5t48 67.5q3 10 -4 18t-18 8h-212q-11 0 -17.5 -8t-3.5 -18zM134 317q-6 4 -12 0.5t-6 -10.5q0 -4 3 -8l36 -43l-36 -43q-3 -3 -3 -8q0 -6 6 -9.5t12 -0.5l89 48q8 4 8 13t-8 13zM396 307q0 7 -6 10.5
t-12 -0.5l-89 -48q-8 -4 -8 -13t8 -13l89 -48q6 -3 12 0.5t6 9.5q0 5 -3 8l-36 43l36 43q3 4 3 8z" />
    <glyph glyph-name="face-laugh-wink" unicode="face&#x2d;laugh&#x2d;wink" 
d="M464 192q0 -56 -28 -104t-76 -76t-104 -28t-104 28t-76 76t-28 104q0 37 12.5 71.5t36 62.5t55.5 46q48 28 104 28t104 -28t76 -76t28 -104zM0 192q0 -69 34.5 -128t93.5 -93.5t128 -34.5t128 34.5t93.5 93.5t34.5 128t-34.5 128t-93.5 93.5t-128 34.5t-128 -34.5
t-93.5 -93.5t-34.5 -128zM131 134q12 -41 47.5 -67.5t80 -26.5t79.5 26.5t48 67.5q3 10 -4 18t-18 8h-212q-11 0 -17.5 -8t-3.5 -18zM144 256q0 -13 9.5 -22.5t23 -9.5t22.5 9.5t9 22.5t-9 22.5t-22.5 9.5t-23 -9.5t-9.5 -22.5zM310 234q9 10 25.5 10t25.5 -10q6 -6 14 -6
t14 5.5t6.5 14t-5.5 14.5q-21 22 -54.5 22t-54.5 -22q-6 -6 -5.5 -14.5t6.5 -14t14.5 -5.5t13.5 6zM310 234z" />
    <glyph glyph-name="face-meh-blank" unicode="face&#x2d;meh&#x2d;blank" 
d="M256 400q56 0 104 -28t76 -76t28 -104t-28 -104t-76 -76t-104 -28t-104 28t-76 76t-28 104t28 104t76 76t104 28zM512 192q0 69 -34.5 128t-93.5 93.5t-128 34.5t-128 -34.5t-93.5 -93.5t-34.5 -128t34.5 -128t93.5 -93.5t128 -34.5t128 34.5t93.5 93.5t34.5 128z
M144 240q0 -13 9.5 -22.5t23 -9.5t22.5 9.5t9 22.5t-9 22.5t-22.5 9.5t-23 -9.5t-9.5 -22.5zM336.5 272q-13.5 0 -23 -9.5t-9.5 -22.5t9.5 -22.5t23 -9.5t22.5 9.5t9 22.5t-9 22.5t-22.5 9.5z" />
    <glyph glyph-name="face-rolling-eyes" unicode="face&#x2d;rolling&#x2d;eyes" 
d="M256 400q-56 0 -104 -28t-76 -76t-28 -104t28 -104t76 -76t104 -28t104 28t76 76t28 104t-28 104t-76 76t-104 28zM256 -64q-69 0 -128 34.5t-93.5 93.5t-34.5 128t34.5 128t93.5 93.5t128 34.5t128 -34.5t93.5 -93.5t34.5 -128t-34.5 -128t-93.5 -93.5t-128 -34.5z
M168 72q0 10 7 17t17 7h128q10 0 17 -7t7 -17t-7 -17t-17 -7h-128q-10 0 -17 7t-7 17zM160 176q20 0 34 14t14 34q0 22 -16 36v-4q0 -13 -9.5 -22.5t-22.5 -9.5t-22.5 9.5t-9.5 22.5v4q-16 -14 -16 -36q0 -20 14 -34t34 -14zM160 144q-46 0 -69 40t0 80t69 40t69 -40t0 -80
t-69 -40zM352 176q20 0 34 14t14 34q0 22 -16 36v-4q0 -13 -9.5 -22.5t-22.5 -9.5t-22.5 9.5t-9.5 22.5v4q-16 -14 -16 -36q0 -20 14 -34t34 -14zM352 144q-46 0 -69 40t0 80t69 40t69 -40q11 -19 11 -40t-11 -40q-23 -40 -69 -40z" />
    <glyph glyph-name="face-sad-cry" unicode="face&#x2d;sad&#x2d;cry" 
d="M400 42q64 61 64 150q0 86 -61 147t-147 61t-147 -61t-61 -147q0 -89 64 -150v118q0 10 7 17t17 7t17 -7t7 -17v-153q45 -23 96 -23t96 23v153q0 10 7 17t17 7t17 -7t7 -17v-118zM256 -64q-69 0 -128 34.5t-93.5 93.5t-34.5 128t34.5 128t93.5 93.5t128 34.5t128 -34.5
t93.5 -93.5t34.5 -128t-34.5 -128t-93.5 -93.5t-128 -34.5zM159.5 228q-16.5 0 -25.5 -10q-6 -6 -14 -6t-14 5.5t-6.5 14t5.5 14.5q21 22 54.5 22t54.5 -22q6 -6 5.5 -14.5t-6.5 -14t-14 -5.5t-14 6q-9 10 -25.5 10zM326 218q-6 -6 -14 -6t-14 5.5t-6.5 14t5.5 14.5
q21 22 54.5 22t54.5 -22q6 -6 5.5 -14.5t-6.5 -14t-14 -5.5t-14 6q-9 10 -25.5 10t-25.5 -10zM208 128q0 20 14 34t34 14t34 -14t14 -34v-32q0 -20 -14 -34t-34 -14t-34 14t-14 34v32z" />
    <glyph glyph-name="face-sad-tear" unicode="face&#x2d;sad&#x2d;tear" 
d="M176 0q38 -16 80 -16q86 0 147 61t61 147t-61 147t-147 61t-147 -61t-61 -147q0 -79 52 -137q8 -25 29 -40t47 -15zM0 192q0 69 34.5 128t93.5 93.5t128 34.5t128 -34.5t93.5 -93.5t34.5 -128t-34.5 -128t-93.5 -93.5t-128 -34.5t-128 34.5t-93.5 93.5t-34.5 128zM128 79
q0 22 42 78q2 3 6 3t6 -3q42 -55 42 -78q0 -13 -6.5 -23.5t-17.5 -17t-24 -6.5q-20 0 -34 14t-14 33zM256 144q64 0 112 -43q7 -6 8 -16t-6 -17.5t-17 -8t-17 5.5q-34 31 -80 31q-10 0 -17 7t-7 17t7 17t17 7zM304 240q0 13 9 22.5t22.5 9.5t23 -9.5t9.5 -22.5t-9.5 -22.5
t-23 -9.5t-22.5 9.5t-9 22.5zM175.5 208q-13.5 0 -22.5 9.5t-9 22.5t9 22.5t22.5 9.5t23 -9.5t9.5 -22.5t-9.5 -22.5t-23 -9.5z" />
    <glyph glyph-name="face-smile-beam" unicode="face&#x2d;smile&#x2d;beam" 
d="M464 192q0 -56 -28 -104t-76 -76t-104 -28t-104 28t-76 76t-28 104q0 37 12.5 71.5t36 62.5t55.5 46q48 28 104 28t104 -28t76 -76t28 -104zM0 192q0 -69 34.5 -128t93.5 -93.5t128 -34.5t128 34.5t93.5 93.5t34.5 128t-34.5 128t-93.5 93.5t-128 34.5t-128 -34.5
t-93.5 -93.5t-34.5 -128zM178 130q-7 7 -17 7.5t-17 -6t-7.5 -16.5t6.5 -18q45 -49 113 -49t114 49q6 8 6 18t-7.5 16.5t-17.5 6t-17 -7.5q-31 -34 -78 -34t-78 34zM218 219v0q3 -4 8.5 -2.5t5.5 7.5q0 27 -17 49q-17 23 -39 23t-39 -23q-17 -22 -17 -49q0 -6 5.5 -7.5
t8.5 2.5v0h1v1q1 1 3 4l10 10q16 14 28 14t28 -14l10 -10q2 -3 3 -4v-1h1v0zM378 219v0q3 -4 8.5 -2.5t5.5 7.5q0 27 -17 49q-17 23 -39 23t-39 -23q-17 -22 -17 -49q0 -6 5.5 -7.5t8.5 2.5v0h1v1q1 1 3 4l10 10q16 14 28 14t28 -14l10 -10q2 -3 3 -4v-1h1zM378 219z" />
    <glyph glyph-name="star-half-stroke" unicode="star&#x2d;half&#x2d;stroke" horiz-adv-x="640" 
d="M342 434l68 -141l153 -22q15 -3 19.5 -17t-5.5 -24l-111 -110l26 -156q2 -15 -10 -23.5t-25 -1.5l-137 73l-137 -73q-13 -7 -25 1.5t-10 23.5l26 156l-111 110q-10 10 -5.5 24t18.5 16l154 23l68 141q7 14 22 14t22 -14zM320 63q6 0 11 -3l105 -56l-20 120q-2 12 7 21
l86 85l-118 17q-13 2 -19 14l-52 108v-306z" />
    <glyph glyph-name="face-surprise" unicode="face&#x2d;surprise" 
d="M464 192q0 -56 -28 -104t-76 -76t-104 -28t-104 28t-76 76t-28 104q0 37 12.5 71.5t36 62.5t55.5 46q48 28 104 28t104 -28t76 -76t28 -104zM0 192q0 -69 34.5 -128t93.5 -93.5t128 -34.5t128 34.5t93.5 93.5t34.5 128t-34.5 128t-93.5 93.5t-128 34.5t-128 -34.5
t-93.5 -93.5t-34.5 -128zM176.5 272q-13.5 0 -23 -9.5t-9.5 -22.5t9.5 -22.5t23 -9.5t22.5 9.5t9 22.5t-9 22.5t-22.5 9.5zM304 240q0 -13 9.5 -22.5t23 -9.5t22.5 9.5t9 22.5t-9 22.5t-22.5 9.5t-23 -9.5t-9.5 -22.5zM256 160q-37 0 -55.5 -32t0 -64t55.5 -32t55.5 32t0 64
t-55.5 32z" />
    <glyph glyph-name="face-tired" unicode="face&#x2d;tired" 
d="M464 192q0 -56 -28 -104t-76 -76t-104 -28t-104 28t-76 76t-28 104q0 37 12.5 71.5t36 62.5t55.5 46q48 28 104 28t104 -28t76 -76t28 -104zM0 192q0 -69 34.5 -128t93.5 -93.5t128 -34.5t128 34.5t93.5 93.5t34.5 128t-34.5 128t-93.5 93.5t-128 34.5t-128 -34.5
t-93.5 -93.5t-34.5 -128zM176 128q-32 -31 -32 -64q0 -9 7 -13.5t15 -1.5l18 8q34 15 72 15t72 -15l18 -8q8 -3 15 1.5t7 13.5q0 33 -32 64q-35 32 -80 32t-80 -32zM133 301q-4 2 -7.5 1.5t-6.5 -4t-3 -8t3 -7.5l36 -43l-36 -43q-3 -3 -3 -8q0 -7 6 -10t11 0l90 48q8 4 8 13
t-8 13zM396 291q0 7 -6 10.5t-12 -0.5l-89 -48q-8 -4 -8 -13t8 -13l89 -48q6 -3 12 0.5t6 9.5q0 5 -3 8l-36 43l36 43q3 4 3 8z" />
    <glyph glyph-name=".notdef" horiz-adv-x="384" 
d="M48 26v332l115 -166zM77 -16l115 166l115 -166h-230zM221 192l115 166v-332zM307 400l-115 -166l-115 166h230zM0 400v-416q0 -20 14 -34t34 -14h288q20 0 34 14t14 34v416q0 20 -14 34t-34 14h-288q-20 0 -34 -14t-14 -34z" />
    <glyph glyph-name=".null" horiz-adv-x="0" 
 />
    <glyph glyph-name="nonmarkingreturn" horiz-adv-x="170" 
 />
    <glyph glyph-name="space" unicode=" " horiz-adv-x="192" 
 />
    <glyph glyph-name="zero-width-space" unicode="&#x20ac;" horiz-adv-x="0" 
 />
    <glyph glyph-name="zero-width-space" unicode="&#x2033;" horiz-adv-x="0" 
 />
    <glyph glyph-name="zero-width-space" unicode="&#x2032;" horiz-adv-x="0" 
 />
    <glyph glyph-name="zero-width-space" unicode="&#x2030;" horiz-adv-x="0" 
 />
    <glyph glyph-name="zero-width-space" unicode="&#x2026;" horiz-adv-x="0" 
 />
    <glyph glyph-name="zero-width-space" unicode="&#x2021;" horiz-adv-x="0" 
 />
    <glyph glyph-name="zero-width-space" unicode="&#x2020;" horiz-adv-x="0" 
 />
    <glyph glyph-name="zero-width-space" unicode="&#x201d;" horiz-adv-x="0" 
 />
    <glyph glyph-name="zero-width-space" unicode="&#x201c;" horiz-adv-x="0" 
 />
    <glyph glyph-name="zero-width-space" unicode="&#x2019;" horiz-adv-x="0" 
 />
    <glyph glyph-name="zero-width-space" unicode="&#x2018;" horiz-adv-x="0" 
 />
    <glyph glyph-name="zero-width-space" unicode="&#x2014;" horiz-adv-x="0" 
 />
    <glyph glyph-name="zero-width-space" unicode="&#x2013;" horiz-adv-x="0" 
 />
    <glyph glyph-name="zero-width-space" unicode="&#x2011;" horiz-adv-x="0" 
 />
    <glyph glyph-name="zero-width-space" unicode="&#x2010;" horiz-adv-x="0" 
 />
    <glyph glyph-name="zero-width-space" unicode="&#x200b;" horiz-adv-x="0" 
 />
    <glyph glyph-name="zero-width-space" unicode="&#x52f;" horiz-adv-x="0" 
 />
    <glyph glyph-name="zero-width-space" unicode="&#x52e;" horiz-adv-x="0" 
 />
    <glyph glyph-name="zero-width-space" unicode="&#x52d;" horiz-adv-x="0" 
 />
    <glyph glyph-name="zero-width-space" unicode="&#x52c;" horiz-adv-x="0" 
 />
    <glyph glyph-name="zero-width-space" unicode="&#x52b;" horiz-adv-x="0" 
 />
    <glyph glyph-name="zero-width-space" unicode="&#x52a;" horiz-adv-x="0" 
 />
    <glyph glyph-name="zero-width-space" unicode="&#x529;" horiz-adv-x="0" 
 />
    <glyph glyph-name="zero-width-space" unicode="&#x528;" horiz-adv-x="0" 
 />
    <glyph glyph-name="zero-width-space" unicode="&#x527;" horiz-adv-x="0" 
 />
    <glyph glyph-name="zero-width-space" unicode="&#x526;" horiz-adv-x="0" 
 />
    <glyph glyph-name="zero-width-space" unicode="&#x525;" horiz-adv-x="0" 
 />
    <glyph glyph-name="zero-width-space" unicode="&#x524;" horiz-adv-x="0" 
 />
    <glyph glyph-name="zero-width-space" unicode="&#x523;" horiz-adv-x="0" 
 />
    <glyph glyph-name="zero-width-space" unicode="&#x522;" horiz-adv-x="0" 
 />
    <glyph glyph-name="zero-width-space" unicode="&#x521;" horiz-adv-x="0" 
 />
    <glyph glyph-name="zero-width-space" unicode="&#x520;" horiz-adv-x="0" 
 />
    <glyph glyph-name="zero-width-space" unicode="&#x51f;" horiz-adv-x="0" 
 />
    <glyph glyph-name="zero-width-space" unicode="&#x51e;" horiz-adv-x="0" 
 />
    <glyph glyph-name="zero-width-space" unicode="&#x51d;" horiz-adv-x="0" 
 />
    <glyph glyph-name="zero-width-space" unicode="&#x51c;" horiz-adv-x="0" 
 />
    <glyph glyph-name="zero-width-space" unicode="&#x51b;" horiz-adv-x="0" 
 />
    <glyph glyph-name="zero-width-space" unicode="&#x51a;" horiz-adv-x="0" 
 />
    <glyph glyph-name="zero-width-space" unicode="&#x519;" horiz-adv-x="0" 
 />
    <glyph glyph-name="zero-width-space" unicode="&#x518;" horiz-adv-x="0" 
 />
    <glyph glyph-name="zero-width-space" unicode="&#x517;" horiz-adv-x="0" 
 />
    <glyph glyph-name="zero-width-space" unicode="&#x516;" horiz-adv-x="0" 
 />
    <glyph glyph-name="zero-width-space" unicode="&#x515;" horiz-adv-x="0" 
 />
    <glyph glyph-name="zero-width-space" unicode="&#x514;" horiz-adv-x="0" 
 />
    <glyph glyph-name="zero-width-space" unicode="&#x513;" horiz-adv-x="0" 
 />
    <glyph glyph-name="zero-width-space" unicode="&#x512;" horiz-adv-x="0" 
 />
    <glyph glyph-name="zero-width-space" unicode="&#x511;" horiz-adv-x="0" 
 />
    <glyph glyph-name="zero-width-space" unicode="&#x510;" horiz-adv-x="0" 
 />
    <glyph glyph-name="zero-width-space" unicode="&#x50f;" horiz-adv-x="0" 
 />
    <glyph glyph-name="zero-width-space" unicode="&#x50e;" horiz-adv-x="0" 
 />
    <glyph glyph-name="zero-width-space" unicode="&#x50d;" horiz-adv-x="0" 
 />
    <glyph glyph-name="zero-width-space" unicode="&#x50c;" horiz-adv-x="0" 
 />
    <glyph glyph-name="zero-width-space" unicode="&#x50b;" horiz-adv-x="0" 
 />
    <glyph glyph-name="zero-width-space" unicode="&#x50a;" horiz-adv-x="0" 
 />
    <glyph glyph-name="zero-width-space" unicode="&#x509;" horiz-adv-x="0" 
 />
    <glyph glyph-name="zero-width-space" unicode="&#x508;" horiz-adv-x="0" 
 />
    <glyph glyph-name="zero-width-space" unicode="&#x507;" horiz-adv-x="0" 
 />
    <glyph glyph-name="zero-width-space" unicode="&#x506;" horiz-adv-x="0" 
 />
    <glyph glyph-name="zero-width-space" unicode="&#x505;" horiz-adv-x="0" 
 />
    <glyph glyph-name="zero-width-space" unicode="&#x504;" horiz-adv-x="0" 
 />
    <glyph glyph-name="zero-width-space" unicode="&#x503;" horiz-adv-x="0" 
 />
    <glyph glyph-name="zero-width-space" unicode="&#x502;" horiz-adv-x="0" 
 />
    <glyph glyph-name="zero-width-space" unicode="&#x501;" horiz-adv-x="0" 
 />
    <glyph glyph-name="zero-width-space" unicode="&#x500;" horiz-adv-x="0" 
 />
    <glyph glyph-name="zero-width-space" unicode="&#x4ff;" horiz-adv-x="0" 
 />
    <glyph glyph-name="zero-width-space" unicode="&#x4fe;" horiz-adv-x="0" 
 />
    <glyph glyph-name="zero-width-space" unicode="&#x4fd;" horiz-adv-x="0" 
 />
    <glyph glyph-name="zero-width-space" unicode="&#x4fc;" horiz-adv-x="0" 
 />
    <glyph glyph-name="zero-width-space" unicode="&#x4fb;" horiz-adv-x="0" 
 />
    <glyph glyph-name="zero-width-space" unicode="&#x4fa;" horiz-adv-x="0" 
 />
    <glyph glyph-name="zero-width-space" unicode="&#x4f9;" horiz-adv-x="0" 
 />
    <glyph glyph-name="zero-width-space" unicode="&#x4f8;" horiz-adv-x="0" 
 />
    <glyph glyph-name="zero-width-space" unicode="&#x4f7;" horiz-adv-x="0" 
 />
    <glyph glyph-name="zero-width-space" unicode="&#x4f6;" horiz-adv-x="0" 
 />
    <glyph glyph-name="zero-width-space" unicode="&#x4f5;" horiz-adv-x="0" 
 />
    <glyph glyph-name="zero-width-space" unicode="&#x4f4;" horiz-adv-x="0" 
 />
    <glyph glyph-name="zero-width-space" unicode="&#x4f3;" horiz-adv-x="0" 
 />
    <glyph glyph-name="zero-width-space" unicode="&#x4f2;" horiz-adv-x="0" 
 />
    <glyph glyph-name="zero-width-space" unicode="&#x4f1;" horiz-adv-x="0" 
 />
    <glyph glyph-name="zero-width-space" unicode="&#x4f0;" horiz-adv-x="0" 
 />
    <glyph glyph-name="zero-width-space" unicode="&#x4ef;" horiz-adv-x="0" 
 />
    <glyph glyph-name="zero-width-space" unicode="&#x4ee;" horiz-adv-x="0" 
 />
    <glyph glyph-name="zero-width-space" unicode="&#x4ed;" horiz-adv-x="0" 
 />
    <glyph glyph-name="zero-width-space" unicode="&#x4ec;" horiz-adv-x="0" 
 />
    <glyph glyph-name="zero-width-space" unicode="&#x4eb;" horiz-adv-x="0" 
 />
    <glyph glyph-name="zero-width-space" unicode="&#x4ea;" horiz-adv-x="0" 
 />
    <glyph glyph-name="zero-width-space" unicode="&#x4e9;" horiz-adv-x="0" 
 />
    <glyph glyph-name="zero-width-space" unicode="&#x4e8;" horiz-adv-x="0" 
 />
    <glyph glyph-name="zero-width-space" unicode="&#x4e7;" horiz-adv-x="0" 
 />
    <glyph glyph-name="zero-width-space" unicode="&#x4e6;" horiz-adv-x="0" 
 />
    <glyph glyph-name="zero-width-space" unicode="&#x4e5;" horiz-adv-x="0" 
 />
    <glyph glyph-name="zero-width-space" unicode="&#x4e4;" horiz-adv-x="0" 
 />
    <glyph glyph-name="zero-width-space" unicode="&#x4e3;" horiz-adv-x="0" 
 />
    <glyph glyph-name="zero-width-space" unicode="&#x4e2;" horiz-adv-x="0" 
 />
    <glyph glyph-name="zero-width-space" unicode="&#x4e1;" horiz-adv-x="0" 
 />
    <glyph glyph-name="zero-width-space" unicode="&#x4e0;" horiz-adv-x="0" 
 />
    <glyph glyph-name="zero-width-space" unicode="&#x4df;" horiz-adv-x="0" 
 />
    <glyph glyph-name="zero-width-space" unicode="&#x4de;" horiz-adv-x="0" 
 />
    <glyph glyph-name="zero-width-space" unicode="&#x4dd;" horiz-adv-x="0" 
 />
    <glyph glyph-name="zero-width-space" unicode="&#x4dc;" horiz-adv-x="0" 
 />
    <glyph glyph-name="zero-width-space" unicode="&#x4db;" horiz-adv-x="0" 
 />
    <glyph glyph-name="zero-width-space" unicode="&#x4da;" horiz-adv-x="0" 
 />
    <glyph glyph-name="zero-width-space" unicode="&#x4d9;" horiz-adv-x="0" 
 />
    <glyph glyph-name="zero-width-space" unicode="&#x4d8;" horiz-adv-x="0" 
 />
    <glyph glyph-name="zero-width-space" unicode="&#x4d7;" horiz-adv-x="0" 
 />
    <glyph glyph-name="zero-width-space" unicode="&#x4d6;" horiz-adv-x="0" 
 />
    <glyph glyph-name="zero-width-space" unicode="&#x4d5;" horiz-adv-x="0" 
 />
    <glyph glyph-name="zero-width-space" unicode="&#x4d4;" horiz-adv-x="0" 
 />
    <glyph glyph-name="zero-width-space" unicode="&#x4d3;" horiz-adv-x="0" 
 />
    <glyph glyph-name="zero-width-space" unicode="&#x4d2;" horiz-adv-x="0" 
 />
    <glyph glyph-name="zero-width-space" unicode="&#x4d1;" horiz-adv-x="0" 
 />
    <glyph glyph-name="zero-width-space" unicode="&#x4d0;" horiz-adv-x="0" 
 />
    <glyph glyph-name="zero-width-space" unicode="&#x4cf;" horiz-adv-x="0" 
 />
    <glyph glyph-name="zero-width-space" unicode="&#x4ce;" horiz-adv-x="0" 
 />
    <glyph glyph-name="zero-width-space" unicode="&#x4cd;" horiz-adv-x="0" 
 />
    <glyph glyph-name="zero-width-space" unicode="&#x4cc;" horiz-adv-x="0" 
 />
    <glyph glyph-name="zero-width-space" unicode="&#x4cb;" horiz-adv-x="0" 
 />
    <glyph glyph-name="zero-width-space" unicode="&#x4ca;" horiz-adv-x="0" 
 />
    <glyph glyph-name="zero-width-space" unicode="&#x4c9;" horiz-adv-x="0" 
 />
    <glyph glyph-name="zero-width-space" unicode="&#x4c8;" horiz-adv-x="0" 
 />
    <glyph glyph-name="zero-width-space" unicode="&#x4c7;" horiz-adv-x="0" 
 />
    <glyph glyph-name="zero-width-space" unicode="&#x4c6;" horiz-adv-x="0" 
 />
    <glyph glyph-name="zero-width-space" unicode="&#x4c5;" horiz-adv-x="0" 
 />
    <glyph glyph-name="zero-width-space" unicode="&#x4c4;" horiz-adv-x="0" 
 />
    <glyph glyph-name="zero-width-space" unicode="&#x4c3;" horiz-adv-x="0" 
 />
    <glyph glyph-name="zero-width-space" unicode="&#x4c2;" horiz-adv-x="0" 
 />
    <glyph glyph-name="zero-width-space" unicode="&#x4c1;" horiz-adv-x="0" 
 />
    <glyph glyph-name="zero-width-space" unicode="&#x4c0;" horiz-adv-x="0" 
 />
    <glyph glyph-name="zero-width-space" unicode="&#x4bf;" horiz-adv-x="0" 
 />
    <glyph glyph-name="zero-width-space" unicode="&#x4be;" horiz-adv-x="0" 
 />
    <glyph glyph-name="zero-width-space" unicode="&#x4bd;" horiz-adv-x="0" 
 />
    <glyph glyph-name="zero-width-space" unicode="&#x4bc;" horiz-adv-x="0" 
 />
    <glyph glyph-name="zero-width-space" unicode="&#x4bb;" horiz-adv-x="0" 
 />
    <glyph glyph-name="zero-width-space" unicode="&#x4ba;" horiz-adv-x="0" 
 />
    <glyph glyph-name="zero-width-space" unicode="&#x4b9;" horiz-adv-x="0" 
 />
    <glyph glyph-name="zero-width-space" unicode="&#x4b8;" horiz-adv-x="0" 
 />
    <glyph glyph-name="zero-width-space" unicode="&#x4b7;" horiz-adv-x="0" 
 />
    <glyph glyph-name="zero-width-space" unicode="&#x4b6;" horiz-adv-x="0" 
 />
    <glyph glyph-name="zero-width-space" unicode="&#x4b5;" horiz-adv-x="0" 
 />
    <glyph glyph-name="zero-width-space" unicode="&#x4b4;" horiz-adv-x="0" 
 />
    <glyph glyph-name="zero-width-space" unicode="&#x4b3;" horiz-adv-x="0" 
 />
    <glyph glyph-name="zero-width-space" unicode="&#x4b2;" horiz-adv-x="0" 
 />
    <glyph glyph-name="zero-width-space" unicode="&#x4b1;" horiz-adv-x="0" 
 />
    <glyph glyph-name="zero-width-space" unicode="&#x4b0;" horiz-adv-x="0" 
 />
    <glyph glyph-name="zero-width-space" unicode="&#x4af;" horiz-adv-x="0" 
 />
    <glyph glyph-name="zero-width-space" unicode="&#x4ae;" horiz-adv-x="0" 
 />
    <glyph glyph-name="zero-width-space" unicode="&#x4ad;" horiz-adv-x="0" 
 />
    <glyph glyph-name="zero-width-space" unicode="&#x4ac;" horiz-adv-x="0" 
 />
    <glyph glyph-name="zero-width-space" unicode="&#x4ab;" horiz-adv-x="0" 
 />
    <glyph glyph-name="zero-width-space" unicode="&#x4aa;" horiz-adv-x="0" 
 />
    <glyph glyph-name="zero-width-space" unicode="&#x4a9;" horiz-adv-x="0" 
 />
    <glyph glyph-name="zero-width-space" unicode="&#x4a8;" horiz-adv-x="0" 
 />
    <glyph glyph-name="zero-width-space" unicode="&#x4a7;" horiz-adv-x="0" 
 />
    <glyph glyph-name="zero-width-space" unicode="&#x4a6;" horiz-adv-x="0" 
 />
    <glyph glyph-name="zero-width-space" unicode="&#x4a5;" horiz-adv-x="0" 
 />
    <glyph glyph-name="zero-width-space" unicode="&#x4a4;" horiz-adv-x="0" 
 />
    <glyph glyph-name="zero-width-space" unicode="&#x4a3;" horiz-adv-x="0" 
 />
    <glyph glyph-name="zero-width-space" unicode="&#x4a2;" horiz-adv-x="0" 
 />
    <glyph glyph-name="zero-width-space" unicode="&#x4a1;" horiz-adv-x="0" 
 />
    <glyph glyph-name="zero-width-space" unicode="&#x4a0;" horiz-adv-x="0" 
 />
    <glyph glyph-name="zero-width-space" unicode="&#x49f;" horiz-adv-x="0" 
 />
    <glyph glyph-name="zero-width-space" unicode="&#x49e;" horiz-adv-x="0" 
 />
    <glyph glyph-name="zero-width-space" unicode="&#x49d;" horiz-adv-x="0" 
 />
    <glyph glyph-name="zero-width-space" unicode="&#x49c;" horiz-adv-x="0" 
 />
    <glyph glyph-name="zero-width-space" unicode="&#x49b;" horiz-adv-x="0" 
 />
    <glyph glyph-name="zero-width-space" unicode="&#x49a;" horiz-adv-x="0" 
 />
    <glyph glyph-name="zero-width-space" unicode="&#x499;" horiz-adv-x="0" 
 />
    <glyph glyph-name="zero-width-space" unicode="&#x498;" horiz-adv-x="0" 
 />
    <glyph glyph-name="zero-width-space" unicode="&#x497;" horiz-adv-x="0" 
 />
    <glyph glyph-name="zero-width-space" unicode="&#x496;" horiz-adv-x="0" 
 />
    <glyph glyph-name="zero-width-space" unicode="&#x495;" horiz-adv-x="0" 
 />
    <glyph glyph-name="zero-width-space" unicode="&#x494;" horiz-adv-x="0" 
 />
    <glyph glyph-name="zero-width-space" unicode="&#x493;" horiz-adv-x="0" 
 />
    <glyph glyph-name="zero-width-space" unicode="&#x492;" horiz-adv-x="0" 
 />
    <glyph glyph-name="zero-width-space" unicode="&#x491;" horiz-adv-x="0" 
 />
    <glyph glyph-name="zero-width-space" unicode="&#x490;" horiz-adv-x="0" 
 />
    <glyph glyph-name="zero-width-space" unicode="&#x48f;" horiz-adv-x="0" 
 />
    <glyph glyph-name="zero-width-space" unicode="&#x48e;" horiz-adv-x="0" 
 />
    <glyph glyph-name="zero-width-space" unicode="&#x48d;" horiz-adv-x="0" 
 />
    <glyph glyph-name="zero-width-space" unicode="&#x48c;" horiz-adv-x="0" 
 />
    <glyph glyph-name="zero-width-space" unicode="&#x48b;" horiz-adv-x="0" 
 />
    <glyph glyph-name="zero-width-space" unicode="&#x48a;" horiz-adv-x="0" 
 />
    <glyph glyph-name="zero-width-space" unicode="&#x489;" horiz-adv-x="0" 
 />
    <glyph glyph-name="zero-width-space" unicode="&#x488;" horiz-adv-x="0" 
 />
    <glyph glyph-name="zero-width-space" unicode="&#x487;" horiz-adv-x="0" 
 />
    <glyph glyph-name="zero-width-space" unicode="&#x486;" horiz-adv-x="0" 
 />
    <glyph glyph-name="zero-width-space" unicode="&#x485;" horiz-adv-x="0" 
 />
    <glyph glyph-name="zero-width-space" unicode="&#x484;" horiz-adv-x="0" 
 />
    <glyph glyph-name="zero-width-space" unicode="&#x483;" horiz-adv-x="0" 
 />
    <glyph glyph-name="zero-width-space" unicode="&#x482;" horiz-adv-x="0" 
 />
    <glyph glyph-name="zero-width-space" unicode="&#x481;" horiz-adv-x="0" 
 />
    <glyph glyph-name="zero-width-space" unicode="&#x480;" horiz-adv-x="0" 
 />
    <glyph glyph-name="zero-width-space" unicode="&#x47f;" horiz-adv-x="0" 
 />
    <glyph glyph-name="zero-width-space" unicode="&#x47e;" horiz-adv-x="0" 
 />
    <glyph glyph-name="zero-width-space" unicode="&#x47d;" horiz-adv-x="0" 
 />
    <glyph glyph-name="zero-width-space" unicode="&#x47c;" horiz-adv-x="0" 
 />
    <glyph glyph-name="zero-width-space" unicode="&#x47b;" horiz-adv-x="0" 
 />
    <glyph glyph-name="zero-width-space" unicode="&#x47a;" horiz-adv-x="0" 
 />
    <glyph glyph-name="zero-width-space" unicode="&#x479;" horiz-adv-x="0" 
 />
    <glyph glyph-name="zero-width-space" unicode="&#x478;" horiz-adv-x="0" 
 />
    <glyph glyph-name="zero-width-space" unicode="&#x477;" horiz-adv-x="0" 
 />
    <glyph glyph-name="zero-width-space" unicode="&#x476;" horiz-adv-x="0" 
 />
    <glyph glyph-name="zero-width-space" unicode="&#x475;" horiz-adv-x="0" 
 />
    <glyph glyph-name="zero-width-space" unicode="&#x474;" horiz-adv-x="0" 
 />
    <glyph glyph-name="zero-width-space" unicode="&#x473;" horiz-adv-x="0" 
 />
    <glyph glyph-name="zero-width-space" unicode="&#x472;" horiz-adv-x="0" 
 />
    <glyph glyph-name="zero-width-space" unicode="&#x471;" horiz-adv-x="0" 
 />
    <glyph glyph-name="zero-width-space" unicode="&#x470;" horiz-adv-x="0" 
 />
    <glyph glyph-name="zero-width-space" unicode="&#x46f;" horiz-adv-x="0" 
 />
    <glyph glyph-name="zero-width-space" unicode="&#x46e;" horiz-adv-x="0" 
 />
    <glyph glyph-name="zero-width-space" unicode="&#x46d;" horiz-adv-x="0" 
 />
    <glyph glyph-name="zero-width-space" unicode="&#x46c;" horiz-adv-x="0" 
 />
    <glyph glyph-name="zero-width-space" unicode="&#x46b;" horiz-adv-x="0" 
 />
    <glyph glyph-name="zero-width-space" unicode="&#x46a;" horiz-adv-x="0" 
 />
    <glyph glyph-name="zero-width-space" unicode="&#x469;" horiz-adv-x="0" 
 />
    <glyph glyph-name="zero-width-space" unicode="&#x468;" horiz-adv-x="0" 
 />
    <glyph glyph-name="zero-width-space" unicode="&#x467;" horiz-adv-x="0" 
 />
    <glyph glyph-name="zero-width-space" unicode="&#x466;" horiz-adv-x="0" 
 />
    <glyph glyph-name="zero-width-space" unicode="&#x465;" horiz-adv-x="0" 
 />
    <glyph glyph-name="zero-width-space" unicode="&#x464;" horiz-adv-x="0" 
 />
    <glyph glyph-name="zero-width-space" unicode="&#x463;" horiz-adv-x="0" 
 />
    <glyph glyph-name="zero-width-space" unicode="&#x462;" horiz-adv-x="0" 
 />
    <glyph glyph-name="zero-width-space" unicode="&#x461;" horiz-adv-x="0" 
 />
    <glyph glyph-name="zero-width-space" unicode="&#x460;" horiz-adv-x="0" 
 />
    <glyph glyph-name="zero-width-space" unicode="&#x45f;" horiz-adv-x="0" 
 />
    <glyph glyph-name="zero-width-space" unicode="&#x45e;" horiz-adv-x="0" 
 />
    <glyph glyph-name="zero-width-space" unicode="&#x45d;" horiz-adv-x="0" 
 />
    <glyph glyph-name="zero-width-space" unicode="&#x45c;" horiz-adv-x="0" 
 />
    <glyph glyph-name="zero-width-space" unicode="&#x45b;" horiz-adv-x="0" 
 />
    <glyph glyph-name="zero-width-space" unicode="&#x45a;" horiz-adv-x="0" 
 />
    <glyph glyph-name="zero-width-space" unicode="&#x459;" horiz-adv-x="0" 
 />
    <glyph glyph-name="zero-width-space" unicode="&#x458;" horiz-adv-x="0" 
 />
    <glyph glyph-name="zero-width-space" unicode="&#x457;" horiz-adv-x="0" 
 />
    <glyph glyph-name="zero-width-space" unicode="&#x456;" horiz-adv-x="0" 
 />
    <glyph glyph-name="zero-width-space" unicode="&#x455;" horiz-adv-x="0" 
 />
    <glyph glyph-name="zero-width-space" unicode="&#x454;" horiz-adv-x="0" 
 />
    <glyph glyph-name="zero-width-space" unicode="&#x453;" horiz-adv-x="0" 
 />
    <glyph glyph-name="zero-width-space" unicode="&#x452;" horiz-adv-x="0" 
 />
    <glyph glyph-name="zero-width-space" unicode="&#x451;" horiz-adv-x="0" 
 />
    <glyph glyph-name="zero-width-space" unicode="&#x450;" horiz-adv-x="0" 
 />
    <glyph glyph-name="zero-width-space" unicode="&#x44f;" horiz-adv-x="0" 
 />
    <glyph glyph-name="zero-width-space" unicode="&#x44e;" horiz-adv-x="0" 
 />
    <glyph glyph-name="zero-width-space" unicode="&#x44d;" horiz-adv-x="0" 
 />
    <glyph glyph-name="zero-width-space" unicode="&#x44c;" horiz-adv-x="0" 
 />
    <glyph glyph-name="zero-width-space" unicode="&#x44b;" horiz-adv-x="0" 
 />
    <glyph glyph-name="zero-width-space" unicode="&#x44a;" horiz-adv-x="0" 
 />
    <glyph glyph-name="zero-width-space" unicode="&#x449;" horiz-adv-x="0" 
 />
    <glyph glyph-name="zero-width-space" unicode="&#x448;" horiz-adv-x="0" 
 />
    <glyph glyph-name="zero-width-space" unicode="&#x447;" horiz-adv-x="0" 
 />
    <glyph glyph-name="zero-width-space" unicode="&#x446;" horiz-adv-x="0" 
 />
    <glyph glyph-name="zero-width-space" unicode="&#x445;" horiz-adv-x="0" 
 />
    <glyph glyph-name="zero-width-space" unicode="&#x444;" horiz-adv-x="0" 
 />
    <glyph glyph-name="zero-width-space" unicode="&#x443;" horiz-adv-x="0" 
 />
    <glyph glyph-name="zero-width-space" unicode="&#x442;" horiz-adv-x="0" 
 />
    <glyph glyph-name="zero-width-space" unicode="&#x441;" horiz-adv-x="0" 
 />
    <glyph glyph-name="zero-width-space" unicode="&#x440;" horiz-adv-x="0" 
 />
    <glyph glyph-name="zero-width-space" unicode="&#x43f;" horiz-adv-x="0" 
 />
    <glyph glyph-name="zero-width-space" unicode="&#x43e;" horiz-adv-x="0" 
 />
    <glyph glyph-name="zero-width-space" unicode="&#x43d;" horiz-adv-x="0" 
 />
    <glyph glyph-name="zero-width-space" unicode="&#x43c;" horiz-adv-x="0" 
 />
    <glyph glyph-name="zero-width-space" unicode="&#x43b;" horiz-adv-x="0" 
 />
    <glyph glyph-name="zero-width-space" unicode="&#x43a;" horiz-adv-x="0" 
 />
    <glyph glyph-name="zero-width-space" unicode="&#x439;" horiz-adv-x="0" 
 />
    <glyph glyph-name="zero-width-space" unicode="&#x438;" horiz-adv-x="0" 
 />
    <glyph glyph-name="zero-width-space" unicode="&#x437;" horiz-adv-x="0" 
 />
    <glyph glyph-name="zero-width-space" unicode="&#x436;" horiz-adv-x="0" 
 />
    <glyph glyph-name="zero-width-space" unicode="&#x435;" horiz-adv-x="0" 
 />
    <glyph glyph-name="zero-width-space" unicode="&#x434;" horiz-adv-x="0" 
 />
    <glyph glyph-name="zero-width-space" unicode="&#x433;" horiz-adv-x="0" 
 />
    <glyph glyph-name="zero-width-space" unicode="&#x432;" horiz-adv-x="0" 
 />
    <glyph glyph-name="zero-width-space" unicode="&#x431;" horiz-adv-x="0" 
 />
    <glyph glyph-name="zero-width-space" unicode="&#x430;" horiz-adv-x="0" 
 />
    <glyph glyph-name="zero-width-space" unicode="&#x42f;" horiz-adv-x="0" 
 />
    <glyph glyph-name="zero-width-space" unicode="&#x42e;" horiz-adv-x="0" 
 />
    <glyph glyph-name="zero-width-space" unicode="&#x42d;" horiz-adv-x="0" 
 />
    <glyph glyph-name="zero-width-space" unicode="&#x42c;" horiz-adv-x="0" 
 />
    <glyph glyph-name="zero-width-space" unicode="&#x42b;" horiz-adv-x="0" 
 />
    <glyph glyph-name="zero-width-space" unicode="&#x42a;" horiz-adv-x="0" 
 />
    <glyph glyph-name="zero-width-space" unicode="&#x429;" horiz-adv-x="0" 
 />
    <glyph glyph-name="zero-width-space" unicode="&#x428;" horiz-adv-x="0" 
 />
    <glyph glyph-name="zero-width-space" unicode="&#x427;" horiz-adv-x="0" 
 />
    <glyph glyph-name="zero-width-space" unicode="&#x426;" horiz-adv-x="0" 
 />
    <glyph glyph-name="zero-width-space" unicode="&#x425;" horiz-adv-x="0" 
 />
    <glyph glyph-name="zero-width-space" unicode="&#x424;" horiz-adv-x="0" 
 />
    <glyph glyph-name="zero-width-space" unicode="&#x423;" horiz-adv-x="0" 
 />
    <glyph glyph-name="zero-width-space" unicode="&#x422;" horiz-adv-x="0" 
 />
    <glyph glyph-name="zero-width-space" unicode="&#x421;" horiz-adv-x="0" 
 />
    <glyph glyph-name="zero-width-space" unicode="&#x420;" horiz-adv-x="0" 
 />
    <glyph glyph-name="zero-width-space" unicode="&#x41f;" horiz-adv-x="0" 
 />
    <glyph glyph-name="zero-width-space" unicode="&#x41e;" horiz-adv-x="0" 
 />
    <glyph glyph-name="zero-width-space" unicode="&#x41d;" horiz-adv-x="0" 
 />
    <glyph glyph-name="zero-width-space" unicode="&#x41c;" horiz-adv-x="0" 
 />
    <glyph glyph-name="zero-width-space" unicode="&#x41b;" horiz-adv-x="0" 
 />
    <glyph glyph-name="zero-width-space" unicode="&#x41a;" horiz-adv-x="0" 
 />
    <glyph glyph-name="zero-width-space" unicode="&#x419;" horiz-adv-x="0" 
 />
    <glyph glyph-name="zero-width-space" unicode="&#x418;" horiz-adv-x="0" 
 />
    <glyph glyph-name="zero-width-space" unicode="&#x417;" horiz-adv-x="0" 
 />
    <glyph glyph-name="zero-width-space" unicode="&#x416;" horiz-adv-x="0" 
 />
    <glyph glyph-name="zero-width-space" unicode="&#x415;" horiz-adv-x="0" 
 />
    <glyph glyph-name="zero-width-space" unicode="&#x414;" horiz-adv-x="0" 
 />
    <glyph glyph-name="zero-width-space" unicode="&#x413;" horiz-adv-x="0" 
 />
    <glyph glyph-name="zero-width-space" unicode="&#x412;" horiz-adv-x="0" 
 />
    <glyph glyph-name="zero-width-space" unicode="&#x411;" horiz-adv-x="0" 
 />
    <glyph glyph-name="zero-width-space" unicode="&#x410;" horiz-adv-x="0" 
 />
    <glyph glyph-name="zero-width-space" unicode="&#x40f;" horiz-adv-x="0" 
 />
    <glyph glyph-name="zero-width-space" unicode="&#x40e;" horiz-adv-x="0" 
 />
    <glyph glyph-name="zero-width-space" unicode="&#x40d;" horiz-adv-x="0" 
 />
    <glyph glyph-name="zero-width-space" unicode="&#x40c;" horiz-adv-x="0" 
 />
    <glyph glyph-name="zero-width-space" unicode="&#x40b;" horiz-adv-x="0" 
 />
    <glyph glyph-name="zero-width-space" unicode="&#x40a;" horiz-adv-x="0" 
 />
    <glyph glyph-name="zero-width-space" unicode="&#x409;" horiz-adv-x="0" 
 />
    <glyph glyph-name="zero-width-space" unicode="&#x408;" horiz-adv-x="0" 
 />
    <glyph glyph-name="zero-width-space" unicode="&#x407;" horiz-adv-x="0" 
 />
    <glyph glyph-name="zero-width-space" unicode="&#x406;" horiz-adv-x="0" 
 />
    <glyph glyph-name="zero-width-space" unicode="&#x405;" horiz-adv-x="0" 
 />
    <glyph glyph-name="zero-width-space" unicode="&#x404;" horiz-adv-x="0" 
 />
    <glyph glyph-name="zero-width-space" unicode="&#x403;" horiz-adv-x="0" 
 />
    <glyph glyph-name="zero-width-space" unicode="&#x402;" horiz-adv-x="0" 
 />
    <glyph glyph-name="zero-width-space" unicode="&#x401;" horiz-adv-x="0" 
 />
    <glyph glyph-name="zero-width-space" unicode="&#x400;" horiz-adv-x="0" 
 />
    <glyph glyph-name="zero-width-space" unicode="&#x3ff;" horiz-adv-x="0" 
 />
    <glyph glyph-name="zero-width-space" unicode="&#x3fe;" horiz-adv-x="0" 
 />
    <glyph glyph-name="zero-width-space" unicode="&#x3fd;" horiz-adv-x="0" 
 />
    <glyph glyph-name="zero-width-space" unicode="&#x3fc;" horiz-adv-x="0" 
 />
    <glyph glyph-name="zero-width-space" unicode="&#x3fb;" horiz-adv-x="0" 
 />
    <glyph glyph-name="zero-width-space" unicode="&#x3fa;" horiz-adv-x="0" 
 />
    <glyph glyph-name="zero-width-space" unicode="&#x3f9;" horiz-adv-x="0" 
 />
    <glyph glyph-name="zero-width-space" unicode="&#x3f8;" horiz-adv-x="0" 
 />
    <glyph glyph-name="zero-width-space" unicode="&#x3f7;" horiz-adv-x="0" 
 />
    <glyph glyph-name="zero-width-space" unicode="&#x3f6;" horiz-adv-x="0" 
 />
    <glyph glyph-name="zero-width-space" unicode="&#x3f5;" horiz-adv-x="0" 
 />
    <glyph glyph-name="zero-width-space" unicode="&#x3f4;" horiz-adv-x="0" 
 />
    <glyph glyph-name="zero-width-space" unicode="&#x3f3;" horiz-adv-x="0" 
 />
    <glyph glyph-name="zero-width-space" unicode="&#x3f2;" horiz-adv-x="0" 
 />
    <glyph glyph-name="zero-width-space" unicode="&#x3f1;" horiz-adv-x="0" 
 />
    <glyph glyph-name="zero-width-space" unicode="&#x3f0;" horiz-adv-x="0" 
 />
    <glyph glyph-name="zero-width-space" unicode="&#x3ef;" horiz-adv-x="0" 
 />
    <glyph glyph-name="zero-width-space" unicode="&#x3ee;" horiz-adv-x="0" 
 />
    <glyph glyph-name="zero-width-space" unicode="&#x3ed;" horiz-adv-x="0" 
 />
    <glyph glyph-name="zero-width-space" unicode="&#x3ec;" horiz-adv-x="0" 
 />
    <glyph glyph-name="zero-width-space" unicode="&#x3eb;" horiz-adv-x="0" 
 />
    <glyph glyph-name="zero-width-space" unicode="&#x3ea;" horiz-adv-x="0" 
 />
    <glyph glyph-name="zero-width-space" unicode="&#x3e9;" horiz-adv-x="0" 
 />
    <glyph glyph-name="zero-width-space" unicode="&#x3e8;" horiz-adv-x="0" 
 />
    <glyph glyph-name="zero-width-space" unicode="&#x3e7;" horiz-adv-x="0" 
 />
    <glyph glyph-name="zero-width-space" unicode="&#x3e6;" horiz-adv-x="0" 
 />
    <glyph glyph-name="zero-width-space" unicode="&#x3e5;" horiz-adv-x="0" 
 />
    <glyph glyph-name="zero-width-space" unicode="&#x3e4;" horiz-adv-x="0" 
 />
    <glyph glyph-name="zero-width-space" unicode="&#x3e3;" horiz-adv-x="0" 
 />
    <glyph glyph-name="zero-width-space" unicode="&#x3e2;" horiz-adv-x="0" 
 />
    <glyph glyph-name="zero-width-space" unicode="&#x3e1;" horiz-adv-x="0" 
 />
    <glyph glyph-name="zero-width-space" unicode="&#x3e0;" horiz-adv-x="0" 
 />
    <glyph glyph-name="zero-width-space" unicode="&#x3df;" horiz-adv-x="0" 
 />
    <glyph glyph-name="zero-width-space" unicode="&#x3de;" horiz-adv-x="0" 
 />
    <glyph glyph-name="zero-width-space" unicode="&#x3dd;" horiz-adv-x="0" 
 />
    <glyph glyph-name="zero-width-space" unicode="&#x3dc;" horiz-adv-x="0" 
 />
    <glyph glyph-name="zero-width-space" unicode="&#x3db;" horiz-adv-x="0" 
 />
    <glyph glyph-name="zero-width-space" unicode="&#x3da;" horiz-adv-x="0" 
 />
    <glyph glyph-name="zero-width-space" unicode="&#x3d9;" horiz-adv-x="0" 
 />
    <glyph glyph-name="zero-width-space" unicode="&#x3d8;" horiz-adv-x="0" 
 />
    <glyph glyph-name="zero-width-space" unicode="&#x3d7;" horiz-adv-x="0" 
 />
    <glyph glyph-name="zero-width-space" unicode="&#x3d6;" horiz-adv-x="0" 
 />
    <glyph glyph-name="zero-width-space" unicode="&#x3d5;" horiz-adv-x="0" 
 />
    <glyph glyph-name="zero-width-space" unicode="&#x3d4;" horiz-adv-x="0" 
 />
    <glyph glyph-name="zero-width-space" unicode="&#x3d3;" horiz-adv-x="0" 
 />
    <glyph glyph-name="zero-width-space" unicode="&#x3d2;" horiz-adv-x="0" 
 />
    <glyph glyph-name="zero-width-space" unicode="&#x3d1;" horiz-adv-x="0" 
 />
    <glyph glyph-name="zero-width-space" unicode="&#x3d0;" horiz-adv-x="0" 
 />
    <glyph glyph-name="zero-width-space" unicode="&#x3cf;" horiz-adv-x="0" 
 />
    <glyph glyph-name="zero-width-space" unicode="&#x3ce;" horiz-adv-x="0" 
 />
    <glyph glyph-name="zero-width-space" unicode="&#x3cd;" horiz-adv-x="0" 
 />
    <glyph glyph-name="zero-width-space" unicode="&#x3cc;" horiz-adv-x="0" 
 />
    <glyph glyph-name="zero-width-space" unicode="&#x3cb;" horiz-adv-x="0" 
 />
    <glyph glyph-name="zero-width-space" unicode="&#x3ca;" horiz-adv-x="0" 
 />
    <glyph glyph-name="zero-width-space" unicode="&#x3c9;" horiz-adv-x="0" 
 />
    <glyph glyph-name="zero-width-space" unicode="&#x3c8;" horiz-adv-x="0" 
 />
    <glyph glyph-name="zero-width-space" unicode="&#x3c7;" horiz-adv-x="0" 
 />
    <glyph glyph-name="zero-width-space" unicode="&#x3c6;" horiz-adv-x="0" 
 />
    <glyph glyph-name="zero-width-space" unicode="&#x3c5;" horiz-adv-x="0" 
 />
    <glyph glyph-name="zero-width-space" unicode="&#x3c4;" horiz-adv-x="0" 
 />
    <glyph glyph-name="zero-width-space" unicode="&#x3c3;" horiz-adv-x="0" 
 />
    <glyph glyph-name="zero-width-space" unicode="&#x3c2;" horiz-adv-x="0" 
 />
    <glyph glyph-name="zero-width-space" unicode="&#x3c1;" horiz-adv-x="0" 
 />
    <glyph glyph-name="zero-width-space" unicode="&#x3c0;" horiz-adv-x="0" 
 />
    <glyph glyph-name="zero-width-space" unicode="&#x3bf;" horiz-adv-x="0" 
 />
    <glyph glyph-name="zero-width-space" unicode="&#x3be;" horiz-adv-x="0" 
 />
    <glyph glyph-name="zero-width-space" unicode="&#x3bd;" horiz-adv-x="0" 
 />
    <glyph glyph-name="zero-width-space" unicode="&#x3bc;" horiz-adv-x="0" 
 />
    <glyph glyph-name="zero-width-space" unicode="&#x3bb;" horiz-adv-x="0" 
 />
    <glyph glyph-name="zero-width-space" unicode="&#x3ba;" horiz-adv-x="0" 
 />
    <glyph glyph-name="zero-width-space" unicode="&#x3b9;" horiz-adv-x="0" 
 />
    <glyph glyph-name="zero-width-space" unicode="&#x3b8;" horiz-adv-x="0" 
 />
    <glyph glyph-name="zero-width-space" unicode="&#x3b7;" horiz-adv-x="0" 
 />
    <glyph glyph-name="zero-width-space" unicode="&#x3b6;" horiz-adv-x="0" 
 />
    <glyph glyph-name="zero-width-space" unicode="&#x3b5;" horiz-adv-x="0" 
 />
    <glyph glyph-name="zero-width-space" unicode="&#x3b4;" horiz-adv-x="0" 
 />
    <glyph glyph-name="zero-width-space" unicode="&#x3b3;" horiz-adv-x="0" 
 />
    <glyph glyph-name="zero-width-space" unicode="&#x3b2;" horiz-adv-x="0" 
 />
    <glyph glyph-name="zero-width-space" unicode="&#x3b1;" horiz-adv-x="0" 
 />
    <glyph glyph-name="zero-width-space" unicode="&#x3b0;" horiz-adv-x="0" 
 />
    <glyph glyph-name="zero-width-space" unicode="&#x3af;" horiz-adv-x="0" 
 />
    <glyph glyph-name="zero-width-space" unicode="&#x3ae;" horiz-adv-x="0" 
 />
    <glyph glyph-name="zero-width-space" unicode="&#x3ad;" horiz-adv-x="0" 
 />
    <glyph glyph-name="zero-width-space" unicode="&#x3ac;" horiz-adv-x="0" 
 />
    <glyph glyph-name="zero-width-space" unicode="&#x3ab;" horiz-adv-x="0" 
 />
    <glyph glyph-name="zero-width-space" unicode="&#x3aa;" horiz-adv-x="0" 
 />
    <glyph glyph-name="zero-width-space" unicode="&#x3a9;" horiz-adv-x="0" 
 />
    <glyph glyph-name="zero-width-space" unicode="&#x3a8;" horiz-adv-x="0" 
 />
    <glyph glyph-name="zero-width-space" unicode="&#x3a7;" horiz-adv-x="0" 
 />
    <glyph glyph-name="zero-width-space" unicode="&#x3a6;" horiz-adv-x="0" 
 />
    <glyph glyph-name="zero-width-space" unicode="&#x3a5;" horiz-adv-x="0" 
 />
    <glyph glyph-name="zero-width-space" unicode="&#x3a4;" horiz-adv-x="0" 
 />
    <glyph glyph-name="zero-width-space" unicode="&#x3a3;" horiz-adv-x="0" 
 />
    <glyph glyph-name="zero-width-space" unicode="&#x3a2;" horiz-adv-x="0" 
 />
    <glyph glyph-name="zero-width-space" unicode="&#x3a1;" horiz-adv-x="0" 
 />
    <glyph glyph-name="zero-width-space" unicode="&#x3a0;" horiz-adv-x="0" 
 />
    <glyph glyph-name="zero-width-space" unicode="&#x39f;" horiz-adv-x="0" 
 />
    <glyph glyph-name="zero-width-space" unicode="&#x39e;" horiz-adv-x="0" 
 />
    <glyph glyph-name="zero-width-space" unicode="&#x39d;" horiz-adv-x="0" 
 />
    <glyph glyph-name="zero-width-space" unicode="&#x39c;" horiz-adv-x="0" 
 />
    <glyph glyph-name="zero-width-space" unicode="&#x39b;" horiz-adv-x="0" 
 />
    <glyph glyph-name="zero-width-space" unicode="&#x39a;" horiz-adv-x="0" 
 />
    <glyph glyph-name="zero-width-space" unicode="&#x399;" horiz-adv-x="0" 
 />
    <glyph glyph-name="zero-width-space" unicode="&#x398;" horiz-adv-x="0" 
 />
    <glyph glyph-name="zero-width-space" unicode="&#x397;" horiz-adv-x="0" 
 />
    <glyph glyph-name="zero-width-space" unicode="&#x396;" horiz-adv-x="0" 
 />
    <glyph glyph-name="zero-width-space" unicode="&#x395;" horiz-adv-x="0" 
 />
    <glyph glyph-name="zero-width-space" unicode="&#x394;" horiz-adv-x="0" 
 />
    <glyph glyph-name="zero-width-space" unicode="&#x393;" horiz-adv-x="0" 
 />
    <glyph glyph-name="zero-width-space" unicode="&#x392;" horiz-adv-x="0" 
 />
    <glyph glyph-name="zero-width-space" unicode="&#x391;" horiz-adv-x="0" 
 />
    <glyph glyph-name="zero-width-space" unicode="&#x390;" horiz-adv-x="0" 
 />
    <glyph glyph-name="zero-width-space" unicode="&#x38f;" horiz-adv-x="0" 
 />
    <glyph glyph-name="zero-width-space" unicode="&#x38e;" horiz-adv-x="0" 
 />
    <glyph glyph-name="zero-width-space" unicode="&#x38d;" horiz-adv-x="0" 
 />
    <glyph glyph-name="zero-width-space" unicode="&#x38c;" horiz-adv-x="0" 
 />
    <glyph glyph-name="zero-width-space" unicode="&#x38b;" horiz-adv-x="0" 
 />
    <glyph glyph-name="zero-width-space" unicode="&#x38a;" horiz-adv-x="0" 
 />
    <glyph glyph-name="zero-width-space" unicode="&#x389;" horiz-adv-x="0" 
 />
    <glyph glyph-name="zero-width-space" unicode="&#x388;" horiz-adv-x="0" 
 />
    <glyph glyph-name="zero-width-space" unicode="&#x387;" horiz-adv-x="0" 
 />
    <glyph glyph-name="zero-width-space" unicode="&#x386;" horiz-adv-x="0" 
 />
    <glyph glyph-name="zero-width-space" unicode="&#x385;" horiz-adv-x="0" 
 />
    <glyph glyph-name="zero-width-space" unicode="&#x384;" horiz-adv-x="0" 
 />
    <glyph glyph-name="zero-width-space" unicode="&#x383;" horiz-adv-x="0" 
 />
    <glyph glyph-name="zero-width-space" unicode="&#x382;" horiz-adv-x="0" 
 />
    <glyph glyph-name="zero-width-space" unicode="&#x381;" horiz-adv-x="0" 
 />
    <glyph glyph-name="zero-width-space" unicode="&#x380;" horiz-adv-x="0" 
 />
    <glyph glyph-name="zero-width-space" unicode="&#x37f;" horiz-adv-x="0" 
 />
    <glyph glyph-name="zero-width-space" unicode="&#x37e;" horiz-adv-x="0" 
 />
    <glyph glyph-name="zero-width-space" unicode="&#x37d;" horiz-adv-x="0" 
 />
    <glyph glyph-name="zero-width-space" unicode="&#x37c;" horiz-adv-x="0" 
 />
    <glyph glyph-name="zero-width-space" unicode="&#x37b;" horiz-adv-x="0" 
 />
    <glyph glyph-name="zero-width-space" unicode="&#x37a;" horiz-adv-x="0" 
 />
    <glyph glyph-name="zero-width-space" unicode="&#x379;" horiz-adv-x="0" 
 />
    <glyph glyph-name="zero-width-space" unicode="&#x378;" horiz-adv-x="0" 
 />
    <glyph glyph-name="zero-width-space" unicode="&#x377;" horiz-adv-x="0" 
 />
    <glyph glyph-name="zero-width-space" unicode="&#x376;" horiz-adv-x="0" 
 />
    <glyph glyph-name="zero-width-space" unicode="&#x375;" horiz-adv-x="0" 
 />
    <glyph glyph-name="zero-width-space" unicode="&#x374;" horiz-adv-x="0" 
 />
    <glyph glyph-name="zero-width-space" unicode="&#x373;" horiz-adv-x="0" 
 />
    <glyph glyph-name="zero-width-space" unicode="&#x372;" horiz-adv-x="0" 
 />
    <glyph glyph-name="zero-width-space" unicode="&#x371;" horiz-adv-x="0" 
 />
    <glyph glyph-name="zero-width-space" unicode="&#x370;" horiz-adv-x="0" 
 />
    <glyph glyph-name="zero-width-space" unicode="&#x36f;" horiz-adv-x="0" 
 />
    <glyph glyph-name="zero-width-space" unicode="&#x36e;" horiz-adv-x="0" 
 />
    <glyph glyph-name="zero-width-space" unicode="&#x36d;" horiz-adv-x="0" 
 />
    <glyph glyph-name="zero-width-space" unicode="&#x36c;" horiz-adv-x="0" 
 />
    <glyph glyph-name="zero-width-space" unicode="&#x36b;" horiz-adv-x="0" 
 />
    <glyph glyph-name="zero-width-space" unicode="&#x36a;" horiz-adv-x="0" 
 />
    <glyph glyph-name="zero-width-space" unicode="&#x369;" horiz-adv-x="0" 
 />
    <glyph glyph-name="zero-width-space" unicode="&#x368;" horiz-adv-x="0" 
 />
    <glyph glyph-name="zero-width-space" unicode="&#x367;" horiz-adv-x="0" 
 />
    <glyph glyph-name="zero-width-space" unicode="&#x366;" horiz-adv-x="0" 
 />
    <glyph glyph-name="zero-width-space" unicode="&#x365;" horiz-adv-x="0" 
 />
    <glyph glyph-name="zero-width-space" unicode="&#x364;" horiz-adv-x="0" 
 />
    <glyph glyph-name="zero-width-space" unicode="&#x363;" horiz-adv-x="0" 
 />
    <glyph glyph-name="zero-width-space" unicode="&#x362;" horiz-adv-x="0" 
 />
    <glyph glyph-name="zero-width-space" unicode="&#x361;" horiz-adv-x="0" 
 />
    <glyph glyph-name="zero-width-space" unicode="&#x360;" horiz-adv-x="0" 
 />
    <glyph glyph-name="zero-width-space" unicode="&#x35f;" horiz-adv-x="0" 
 />
    <glyph glyph-name="zero-width-space" unicode="&#x35e;" horiz-adv-x="0" 
 />
    <glyph glyph-name="zero-width-space" unicode="&#x35d;" horiz-adv-x="0" 
 />
    <glyph glyph-name="zero-width-space" unicode="&#x35c;" horiz-adv-x="0" 
 />
    <glyph glyph-name="zero-width-space" unicode="&#x35b;" horiz-adv-x="0" 
 />
    <glyph glyph-name="zero-width-space" unicode="&#x35a;" horiz-adv-x="0" 
 />
    <glyph glyph-name="zero-width-space" unicode="&#x359;" horiz-adv-x="0" 
 />
    <glyph glyph-name="zero-width-space" unicode="&#x358;" horiz-adv-x="0" 
 />
    <glyph glyph-name="zero-width-space" unicode="&#x357;" horiz-adv-x="0" 
 />
    <glyph glyph-name="zero-width-space" unicode="&#x356;" horiz-adv-x="0" 
 />
    <glyph glyph-name="zero-width-space" unicode="&#x355;" horiz-adv-x="0" 
 />
    <glyph glyph-name="zero-width-space" unicode="&#x354;" horiz-adv-x="0" 
 />
    <glyph glyph-name="zero-width-space" unicode="&#x353;" horiz-adv-x="0" 
 />
    <glyph glyph-name="zero-width-space" unicode="&#x352;" horiz-adv-x="0" 
 />
    <glyph glyph-name="zero-width-space" unicode="&#x351;" horiz-adv-x="0" 
 />
    <glyph glyph-name="zero-width-space" unicode="&#x350;" horiz-adv-x="0" 
 />
    <glyph glyph-name="zero-width-space" unicode="&#x34f;" horiz-adv-x="0" 
 />
    <glyph glyph-name="zero-width-space" unicode="&#x34e;" horiz-adv-x="0" 
 />
    <glyph glyph-name="zero-width-space" unicode="&#x34d;" horiz-adv-x="0" 
 />
    <glyph glyph-name="zero-width-space" unicode="&#x34c;" horiz-adv-x="0" 
 />
    <glyph glyph-name="zero-width-space" unicode="&#x34b;" horiz-adv-x="0" 
 />
    <glyph glyph-name="zero-width-space" unicode="&#x34a;" horiz-adv-x="0" 
 />
    <glyph glyph-name="zero-width-space" unicode="&#x349;" horiz-adv-x="0" 
 />
    <glyph glyph-name="zero-width-space" unicode="&#x348;" horiz-adv-x="0" 
 />
    <glyph glyph-name="zero-width-space" unicode="&#x347;" horiz-adv-x="0" 
 />
    <glyph glyph-name="zero-width-space" unicode="&#x346;" horiz-adv-x="0" 
 />
    <glyph glyph-name="zero-width-space" unicode="&#x345;" horiz-adv-x="0" 
 />
    <glyph glyph-name="zero-width-space" unicode="&#x344;" horiz-adv-x="0" 
 />
    <glyph glyph-name="zero-width-space" unicode="&#x343;" horiz-adv-x="0" 
 />
    <glyph glyph-name="zero-width-space" unicode="&#x342;" horiz-adv-x="0" 
 />
    <glyph glyph-name="zero-width-space" unicode="&#x341;" horiz-adv-x="0" 
 />
    <glyph glyph-name="zero-width-space" unicode="&#x340;" horiz-adv-x="0" 
 />
    <glyph glyph-name="zero-width-space" unicode="&#x33f;" horiz-adv-x="0" 
 />
    <glyph glyph-name="zero-width-space" unicode="&#x33e;" horiz-adv-x="0" 
 />
    <glyph glyph-name="zero-width-space" unicode="&#x33d;" horiz-adv-x="0" 
 />
    <glyph glyph-name="zero-width-space" unicode="&#x33c;" horiz-adv-x="0" 
 />
    <glyph glyph-name="zero-width-space" unicode="&#x33b;" horiz-adv-x="0" 
 />
    <glyph glyph-name="zero-width-space" unicode="&#x33a;" horiz-adv-x="0" 
 />
    <glyph glyph-name="zero-width-space" unicode="&#x339;" horiz-adv-x="0" 
 />
    <glyph glyph-name="zero-width-space" unicode="&#x338;" horiz-adv-x="0" 
 />
    <glyph glyph-name="zero-width-space" unicode="&#x337;" horiz-adv-x="0" 
 />
    <glyph glyph-name="zero-width-space" unicode="&#x336;" horiz-adv-x="0" 
 />
    <glyph glyph-name="zero-width-space" unicode="&#x335;" horiz-adv-x="0" 
 />
    <glyph glyph-name="zero-width-space" unicode="&#x334;" horiz-adv-x="0" 
 />
    <glyph glyph-name="zero-width-space" unicode="&#x333;" horiz-adv-x="0" 
 />
    <glyph glyph-name="zero-width-space" unicode="&#x332;" horiz-adv-x="0" 
 />
    <glyph glyph-name="zero-width-space" unicode="&#x331;" horiz-adv-x="0" 
 />
    <glyph glyph-name="zero-width-space" unicode="&#x330;" horiz-adv-x="0" 
 />
    <glyph glyph-name="zero-width-space" unicode="&#x32f;" horiz-adv-x="0" 
 />
    <glyph glyph-name="zero-width-space" unicode="&#x32e;" horiz-adv-x="0" 
 />
    <glyph glyph-name="zero-width-space" unicode="&#x32d;" horiz-adv-x="0" 
 />
    <glyph glyph-name="zero-width-space" unicode="&#x32c;" horiz-adv-x="0" 
 />
    <glyph glyph-name="zero-width-space" unicode="&#x32b;" horiz-adv-x="0" 
 />
    <glyph glyph-name="zero-width-space" unicode="&#x32a;" horiz-adv-x="0" 
 />
    <glyph glyph-name="zero-width-space" unicode="&#x329;" horiz-adv-x="0" 
 />
    <glyph glyph-name="zero-width-space" unicode="&#x328;" horiz-adv-x="0" 
 />
    <glyph glyph-name="zero-width-space" unicode="&#x327;" horiz-adv-x="0" 
 />
    <glyph glyph-name="zero-width-space" unicode="&#x326;" horiz-adv-x="0" 
 />
    <glyph glyph-name="zero-width-space" unicode="&#x325;" horiz-adv-x="0" 
 />
    <glyph glyph-name="zero-width-space" unicode="&#x324;" horiz-adv-x="0" 
 />
    <glyph glyph-name="zero-width-space" unicode="&#x323;" horiz-adv-x="0" 
 />
    <glyph glyph-name="zero-width-space" unicode="&#x322;" horiz-adv-x="0" 
 />
    <glyph glyph-name="zero-width-space" unicode="&#x321;" horiz-adv-x="0" 
 />
    <glyph glyph-name="zero-width-space" unicode="&#x320;" horiz-adv-x="0" 
 />
    <glyph glyph-name="zero-width-space" unicode="&#x31f;" horiz-adv-x="0" 
 />
    <glyph glyph-name="zero-width-space" unicode="&#x31e;" horiz-adv-x="0" 
 />
    <glyph glyph-name="zero-width-space" unicode="&#x31d;" horiz-adv-x="0" 
 />
    <glyph glyph-name="zero-width-space" unicode="&#x31c;" horiz-adv-x="0" 
 />
    <glyph glyph-name="zero-width-space" unicode="&#x31b;" horiz-adv-x="0" 
 />
    <glyph glyph-name="zero-width-space" unicode="&#x31a;" horiz-adv-x="0" 
 />
    <glyph glyph-name="zero-width-space" unicode="&#x319;" horiz-adv-x="0" 
 />
    <glyph glyph-name="zero-width-space" unicode="&#x318;" horiz-adv-x="0" 
 />
    <glyph glyph-name="zero-width-space" unicode="&#x317;" horiz-adv-x="0" 
 />
    <glyph glyph-name="zero-width-space" unicode="&#x316;" horiz-adv-x="0" 
 />
    <glyph glyph-name="zero-width-space" unicode="&#x315;" horiz-adv-x="0" 
 />
    <glyph glyph-name="zero-width-space" unicode="&#x314;" horiz-adv-x="0" 
 />
    <glyph glyph-name="zero-width-space" unicode="&#x313;" horiz-adv-x="0" 
 />
    <glyph glyph-name="zero-width-space" unicode="&#x312;" horiz-adv-x="0" 
 />
    <glyph glyph-name="zero-width-space" unicode="&#x311;" horiz-adv-x="0" 
 />
    <glyph glyph-name="zero-width-space" unicode="&#x310;" horiz-adv-x="0" 
 />
    <glyph glyph-name="zero-width-space" unicode="&#x30f;" horiz-adv-x="0" 
 />
    <glyph glyph-name="zero-width-space" unicode="&#x30e;" horiz-adv-x="0" 
 />
    <glyph glyph-name="zero-width-space" unicode="&#x30d;" horiz-adv-x="0" 
 />
    <glyph glyph-name="zero-width-space" unicode="&#x30c;" horiz-adv-x="0" 
 />
    <glyph glyph-name="zero-width-space" unicode="&#x30b;" horiz-adv-x="0" 
 />
    <glyph glyph-name="zero-width-space" unicode="&#x30a;" horiz-adv-x="0" 
 />
    <glyph glyph-name="zero-width-space" unicode="&#x309;" horiz-adv-x="0" 
 />
    <glyph glyph-name="zero-width-space" unicode="&#x308;" horiz-adv-x="0" 
 />
    <glyph glyph-name="zero-width-space" unicode="&#x307;" horiz-adv-x="0" 
 />
    <glyph glyph-name="zero-width-space" unicode="&#x306;" horiz-adv-x="0" 
 />
    <glyph glyph-name="zero-width-space" unicode="&#x305;" horiz-adv-x="0" 
 />
    <glyph glyph-name="zero-width-space" unicode="&#x304;" horiz-adv-x="0" 
 />
    <glyph glyph-name="zero-width-space" unicode="&#x303;" horiz-adv-x="0" 
 />
    <glyph glyph-name="zero-width-space" unicode="&#x302;" horiz-adv-x="0" 
 />
    <glyph glyph-name="zero-width-space" unicode="&#x301;" horiz-adv-x="0" 
 />
    <glyph glyph-name="zero-width-space" unicode="&#x300;" horiz-adv-x="0" 
 />
    <glyph glyph-name="zero-width-space" unicode="&#x2ff;" horiz-adv-x="0" 
 />
    <glyph glyph-name="zero-width-space" unicode="&#x2fe;" horiz-adv-x="0" 
 />
    <glyph glyph-name="zero-width-space" unicode="&#x2fd;" horiz-adv-x="0" 
 />
    <glyph glyph-name="zero-width-space" unicode="&#x2fc;" horiz-adv-x="0" 
 />
    <glyph glyph-name="zero-width-space" unicode="&#x2fb;" horiz-adv-x="0" 
 />
    <glyph glyph-name="zero-width-space" unicode="&#x2fa;" horiz-adv-x="0" 
 />
    <glyph glyph-name="zero-width-space" unicode="&#x2f9;" horiz-adv-x="0" 
 />
    <glyph glyph-name="zero-width-space" unicode="&#x2f8;" horiz-adv-x="0" 
 />
    <glyph glyph-name="zero-width-space" unicode="&#x2f7;" horiz-adv-x="0" 
 />
    <glyph glyph-name="zero-width-space" unicode="&#x2f6;" horiz-adv-x="0" 
 />
    <glyph glyph-name="zero-width-space" unicode="&#x2f5;" horiz-adv-x="0" 
 />
    <glyph glyph-name="zero-width-space" unicode="&#x2f4;" horiz-adv-x="0" 
 />
    <glyph glyph-name="zero-width-space" unicode="&#x2f3;" horiz-adv-x="0" 
 />
    <glyph glyph-name="zero-width-space" unicode="&#x2f2;" horiz-adv-x="0" 
 />
    <glyph glyph-name="zero-width-space" unicode="&#x2f1;" horiz-adv-x="0" 
 />
    <glyph glyph-name="zero-width-space" unicode="&#x2f0;" horiz-adv-x="0" 
 />
    <glyph glyph-name="zero-width-space" unicode="&#x2ef;" horiz-adv-x="0" 
 />
    <glyph glyph-name="zero-width-space" unicode="&#x2ee;" horiz-adv-x="0" 
 />
    <glyph glyph-name="zero-width-space" unicode="&#x2ed;" horiz-adv-x="0" 
 />
    <glyph glyph-name="zero-width-space" unicode="&#x2ec;" horiz-adv-x="0" 
 />
    <glyph glyph-name="zero-width-space" unicode="&#x2eb;" horiz-adv-x="0" 
 />
    <glyph glyph-name="zero-width-space" unicode="&#x2ea;" horiz-adv-x="0" 
 />
    <glyph glyph-name="zero-width-space" unicode="&#x2e9;" horiz-adv-x="0" 
 />
    <glyph glyph-name="zero-width-space" unicode="&#x2e8;" horiz-adv-x="0" 
 />
    <glyph glyph-name="zero-width-space" unicode="&#x2e7;" horiz-adv-x="0" 
 />
    <glyph glyph-name="zero-width-space" unicode="&#x2e6;" horiz-adv-x="0" 
 />
    <glyph glyph-name="zero-width-space" unicode="&#x2e5;" horiz-adv-x="0" 
 />
    <glyph glyph-name="zero-width-space" unicode="&#x2e4;" horiz-adv-x="0" 
 />
    <glyph glyph-name="zero-width-space" unicode="&#x2e3;" horiz-adv-x="0" 
 />
    <glyph glyph-name="zero-width-space" unicode="&#x2e2;" horiz-adv-x="0" 
 />
    <glyph glyph-name="zero-width-space" unicode="&#x2e1;" horiz-adv-x="0" 
 />
    <glyph glyph-name="zero-width-space" unicode="&#x2e0;" horiz-adv-x="0" 
 />
    <glyph glyph-name="zero-width-space" unicode="&#x2df;" horiz-adv-x="0" 
 />
    <glyph glyph-name="zero-width-space" unicode="&#x2de;" horiz-adv-x="0" 
 />
    <glyph glyph-name="zero-width-space" unicode="&#x2dd;" horiz-adv-x="0" 
 />
    <glyph glyph-name="zero-width-space" unicode="&#x2dc;" horiz-adv-x="0" 
 />
    <glyph glyph-name="zero-width-space" unicode="&#x2db;" horiz-adv-x="0" 
 />
    <glyph glyph-name="zero-width-space" unicode="&#x2da;" horiz-adv-x="0" 
 />
    <glyph glyph-name="zero-width-space" unicode="&#x2d9;" horiz-adv-x="0" 
 />
    <glyph glyph-name="zero-width-space" unicode="&#x2d8;" horiz-adv-x="0" 
 />
    <glyph glyph-name="zero-width-space" unicode="&#x2d7;" horiz-adv-x="0" 
 />
    <glyph glyph-name="zero-width-space" unicode="&#x2d6;" horiz-adv-x="0" 
 />
    <glyph glyph-name="zero-width-space" unicode="&#x2d5;" horiz-adv-x="0" 
 />
    <glyph glyph-name="zero-width-space" unicode="&#x2d4;" horiz-adv-x="0" 
 />
    <glyph glyph-name="zero-width-space" unicode="&#x2d3;" horiz-adv-x="0" 
 />
    <glyph glyph-name="zero-width-space" unicode="&#x2d2;" horiz-adv-x="0" 
 />
    <glyph glyph-name="zero-width-space" unicode="&#x2d1;" horiz-adv-x="0" 
 />
    <glyph glyph-name="zero-width-space" unicode="&#x2d0;" horiz-adv-x="0" 
 />
    <glyph glyph-name="zero-width-space" unicode="&#x2cf;" horiz-adv-x="0" 
 />
    <glyph glyph-name="zero-width-space" unicode="&#x2ce;" horiz-adv-x="0" 
 />
    <glyph glyph-name="zero-width-space" unicode="&#x2cd;" horiz-adv-x="0" 
 />
    <glyph glyph-name="zero-width-space" unicode="&#x2cc;" horiz-adv-x="0" 
 />
    <glyph glyph-name="zero-width-space" unicode="&#x2cb;" horiz-adv-x="0" 
 />
    <glyph glyph-name="zero-width-space" unicode="&#x2ca;" horiz-adv-x="0" 
 />
    <glyph glyph-name="zero-width-space" unicode="&#x2c9;" horiz-adv-x="0" 
 />
    <glyph glyph-name="zero-width-space" unicode="&#x2c8;" horiz-adv-x="0" 
 />
    <glyph glyph-name="zero-width-space" unicode="&#x2c7;" horiz-adv-x="0" 
 />
    <glyph glyph-name="zero-width-space" unicode="&#x2c6;" horiz-adv-x="0" 
 />
    <glyph glyph-name="zero-width-space" unicode="&#x2c5;" horiz-adv-x="0" 
 />
    <glyph glyph-name="zero-width-space" unicode="&#x2c4;" horiz-adv-x="0" 
 />
    <glyph glyph-name="zero-width-space" unicode="&#x2c3;" horiz-adv-x="0" 
 />
    <glyph glyph-name="zero-width-space" unicode="&#x2c2;" horiz-adv-x="0" 
 />
    <glyph glyph-name="zero-width-space" unicode="&#x2c1;" horiz-adv-x="0" 
 />
    <glyph glyph-name="zero-width-space" unicode="&#x2c0;" horiz-adv-x="0" 
 />
    <glyph glyph-name="zero-width-space" unicode="&#x2bf;" horiz-adv-x="0" 
 />
    <glyph glyph-name="zero-width-space" unicode="&#x2be;" horiz-adv-x="0" 
 />
    <glyph glyph-name="zero-width-space" unicode="&#x2bd;" horiz-adv-x="0" 
 />
    <glyph glyph-name="zero-width-space" unicode="&#x2bc;" horiz-adv-x="0" 
 />
    <glyph glyph-name="zero-width-space" unicode="&#x2bb;" horiz-adv-x="0" 
 />
    <glyph glyph-name="zero-width-space" unicode="&#x2ba;" horiz-adv-x="0" 
 />
    <glyph glyph-name="zero-width-space" unicode="&#x2b9;" horiz-adv-x="0" 
 />
    <glyph glyph-name="zero-width-space" unicode="&#x2b8;" horiz-adv-x="0" 
 />
    <glyph glyph-name="zero-width-space" unicode="&#x2b7;" horiz-adv-x="0" 
 />
    <glyph glyph-name="zero-width-space" unicode="&#x2b6;" horiz-adv-x="0" 
 />
    <glyph glyph-name="zero-width-space" unicode="&#x2b5;" horiz-adv-x="0" 
 />
    <glyph glyph-name="zero-width-space" unicode="&#x2b4;" horiz-adv-x="0" 
 />
    <glyph glyph-name="zero-width-space" unicode="&#x2b3;" horiz-adv-x="0" 
 />
    <glyph glyph-name="zero-width-space" unicode="&#x2b2;" horiz-adv-x="0" 
 />
    <glyph glyph-name="zero-width-space" unicode="&#x2b1;" horiz-adv-x="0" 
 />
    <glyph glyph-name="zero-width-space" unicode="&#x2b0;" horiz-adv-x="0" 
 />
    <glyph glyph-name="zero-width-space" unicode="&#x2af;" horiz-adv-x="0" 
 />
    <glyph glyph-name="zero-width-space" unicode="&#x2ae;" horiz-adv-x="0" 
 />
    <glyph glyph-name="zero-width-space" unicode="&#x2ad;" horiz-adv-x="0" 
 />
    <glyph glyph-name="zero-width-space" unicode="&#x2ac;" horiz-adv-x="0" 
 />
    <glyph glyph-name="zero-width-space" unicode="&#x2ab;" horiz-adv-x="0" 
 />
    <glyph glyph-name="zero-width-space" unicode="&#x2aa;" horiz-adv-x="0" 
 />
    <glyph glyph-name="zero-width-space" unicode="&#x2a9;" horiz-adv-x="0" 
 />
    <glyph glyph-name="zero-width-space" unicode="&#x2a8;" horiz-adv-x="0" 
 />
    <glyph glyph-name="zero-width-space" unicode="&#x2a7;" horiz-adv-x="0" 
 />
    <glyph glyph-name="zero-width-space" unicode="&#x2a6;" horiz-adv-x="0" 
 />
    <glyph glyph-name="zero-width-space" unicode="&#x2a5;" horiz-adv-x="0" 
 />
    <glyph glyph-name="zero-width-space" unicode="&#x2a4;" horiz-adv-x="0" 
 />
    <glyph glyph-name="zero-width-space" unicode="&#x2a3;" horiz-adv-x="0" 
 />
    <glyph glyph-name="zero-width-space" unicode="&#x2a2;" horiz-adv-x="0" 
 />
    <glyph glyph-name="zero-width-space" unicode="&#x2a1;" horiz-adv-x="0" 
 />
    <glyph glyph-name="zero-width-space" unicode="&#x2a0;" horiz-adv-x="0" 
 />
    <glyph glyph-name="zero-width-space" unicode="&#x29f;" horiz-adv-x="0" 
 />
    <glyph glyph-name="zero-width-space" unicode="&#x29e;" horiz-adv-x="0" 
 />
    <glyph glyph-name="zero-width-space" unicode="&#x29d;" horiz-adv-x="0" 
 />
    <glyph glyph-name="zero-width-space" unicode="&#x29c;" horiz-adv-x="0" 
 />
    <glyph glyph-name="zero-width-space" unicode="&#x29b;" horiz-adv-x="0" 
 />
    <glyph glyph-name="zero-width-space" unicode="&#x29a;" horiz-adv-x="0" 
 />
    <glyph glyph-name="zero-width-space" unicode="&#x299;" horiz-adv-x="0" 
 />
    <glyph glyph-name="zero-width-space" unicode="&#x298;" horiz-adv-x="0" 
 />
    <glyph glyph-name="zero-width-space" unicode="&#x297;" horiz-adv-x="0" 
 />
    <glyph glyph-name="zero-width-space" unicode="&#x296;" horiz-adv-x="0" 
 />
    <glyph glyph-name="zero-width-space" unicode="&#x295;" horiz-adv-x="0" 
 />
    <glyph glyph-name="zero-width-space" unicode="&#x294;" horiz-adv-x="0" 
 />
    <glyph glyph-name="zero-width-space" unicode="&#x293;" horiz-adv-x="0" 
 />
    <glyph glyph-name="zero-width-space" unicode="&#x292;" horiz-adv-x="0" 
 />
    <glyph glyph-name="zero-width-space" unicode="&#x291;" horiz-adv-x="0" 
 />
    <glyph glyph-name="zero-width-space" unicode="&#x290;" horiz-adv-x="0" 
 />
    <glyph glyph-name="zero-width-space" unicode="&#x28f;" horiz-adv-x="0" 
 />
    <glyph glyph-name="zero-width-space" unicode="&#x28e;" horiz-adv-x="0" 
 />
    <glyph glyph-name="zero-width-space" unicode="&#x28d;" horiz-adv-x="0" 
 />
    <glyph glyph-name="zero-width-space" unicode="&#x28c;" horiz-adv-x="0" 
 />
    <glyph glyph-name="zero-width-space" unicode="&#x28b;" horiz-adv-x="0" 
 />
    <glyph glyph-name="zero-width-space" unicode="&#x28a;" horiz-adv-x="0" 
 />
    <glyph glyph-name="zero-width-space" unicode="&#x289;" horiz-adv-x="0" 
 />
    <glyph glyph-name="zero-width-space" unicode="&#x288;" horiz-adv-x="0" 
 />
    <glyph glyph-name="zero-width-space" unicode="&#x287;" horiz-adv-x="0" 
 />
    <glyph glyph-name="zero-width-space" unicode="&#x286;" horiz-adv-x="0" 
 />
    <glyph glyph-name="zero-width-space" unicode="&#x285;" horiz-adv-x="0" 
 />
    <glyph glyph-name="zero-width-space" unicode="&#x284;" horiz-adv-x="0" 
 />
    <glyph glyph-name="zero-width-space" unicode="&#x283;" horiz-adv-x="0" 
 />
    <glyph glyph-name="zero-width-space" unicode="&#x282;" horiz-adv-x="0" 
 />
    <glyph glyph-name="zero-width-space" unicode="&#x281;" horiz-adv-x="0" 
 />
    <glyph glyph-name="zero-width-space" unicode="&#x280;" horiz-adv-x="0" 
 />
    <glyph glyph-name="zero-width-space" unicode="&#x27f;" horiz-adv-x="0" 
 />
    <glyph glyph-name="zero-width-space" unicode="&#x27e;" horiz-adv-x="0" 
 />
    <glyph glyph-name="zero-width-space" unicode="&#x27d;" horiz-adv-x="0" 
 />
    <glyph glyph-name="zero-width-space" unicode="&#x27c;" horiz-adv-x="0" 
 />
    <glyph glyph-name="zero-width-space" unicode="&#x27b;" horiz-adv-x="0" 
 />
    <glyph glyph-name="zero-width-space" unicode="&#x27a;" horiz-adv-x="0" 
 />
    <glyph glyph-name="zero-width-space" unicode="&#x279;" horiz-adv-x="0" 
 />
    <glyph glyph-name="zero-width-space" unicode="&#x278;" horiz-adv-x="0" 
 />
    <glyph glyph-name="zero-width-space" unicode="&#x277;" horiz-adv-x="0" 
 />
    <glyph glyph-name="zero-width-space" unicode="&#x276;" horiz-adv-x="0" 
 />
    <glyph glyph-name="zero-width-space" unicode="&#x275;" horiz-adv-x="0" 
 />
    <glyph glyph-name="zero-width-space" unicode="&#x274;" horiz-adv-x="0" 
 />
    <glyph glyph-name="zero-width-space" unicode="&#x273;" horiz-adv-x="0" 
 />
    <glyph glyph-name="zero-width-space" unicode="&#x272;" horiz-adv-x="0" 
 />
    <glyph glyph-name="zero-width-space" unicode="&#x271;" horiz-adv-x="0" 
 />
    <glyph glyph-name="zero-width-space" unicode="&#x270;" horiz-adv-x="0" 
 />
    <glyph glyph-name="zero-width-space" unicode="&#x26f;" horiz-adv-x="0" 
 />
    <glyph glyph-name="zero-width-space" unicode="&#x26e;" horiz-adv-x="0" 
 />
    <glyph glyph-name="zero-width-space" unicode="&#x26d;" horiz-adv-x="0" 
 />
    <glyph glyph-name="zero-width-space" unicode="&#x26c;" horiz-adv-x="0" 
 />
    <glyph glyph-name="zero-width-space" unicode="&#x26b;" horiz-adv-x="0" 
 />
    <glyph glyph-name="zero-width-space" unicode="&#x26a;" horiz-adv-x="0" 
 />
    <glyph glyph-name="zero-width-space" unicode="&#x269;" horiz-adv-x="0" 
 />
    <glyph glyph-name="zero-width-space" unicode="&#x268;" horiz-adv-x="0" 
 />
    <glyph glyph-name="zero-width-space" unicode="&#x267;" horiz-adv-x="0" 
 />
    <glyph glyph-name="zero-width-space" unicode="&#x266;" horiz-adv-x="0" 
 />
    <glyph glyph-name="zero-width-space" unicode="&#x265;" horiz-adv-x="0" 
 />
    <glyph glyph-name="zero-width-space" unicode="&#x264;" horiz-adv-x="0" 
 />
    <glyph glyph-name="zero-width-space" unicode="&#x263;" horiz-adv-x="0" 
 />
    <glyph glyph-name="zero-width-space" unicode="&#x262;" horiz-adv-x="0" 
 />
    <glyph glyph-name="zero-width-space" unicode="&#x261;" horiz-adv-x="0" 
 />
    <glyph glyph-name="zero-width-space" unicode="&#x260;" horiz-adv-x="0" 
 />
    <glyph glyph-name="zero-width-space" unicode="&#x25f;" horiz-adv-x="0" 
 />
    <glyph glyph-name="zero-width-space" unicode="&#x25e;" horiz-adv-x="0" 
 />
    <glyph glyph-name="zero-width-space" unicode="&#x25d;" horiz-adv-x="0" 
 />
    <glyph glyph-name="zero-width-space" unicode="&#x25c;" horiz-adv-x="0" 
 />
    <glyph glyph-name="zero-width-space" unicode="&#x25b;" horiz-adv-x="0" 
 />
    <glyph glyph-name="zero-width-space" unicode="&#x25a;" horiz-adv-x="0" 
 />
    <glyph glyph-name="zero-width-space" unicode="&#x259;" horiz-adv-x="0" 
 />
    <glyph glyph-name="zero-width-space" unicode="&#x258;" horiz-adv-x="0" 
 />
    <glyph glyph-name="zero-width-space" unicode="&#x257;" horiz-adv-x="0" 
 />
    <glyph glyph-name="zero-width-space" unicode="&#x256;" horiz-adv-x="0" 
 />
    <glyph glyph-name="zero-width-space" unicode="&#x255;" horiz-adv-x="0" 
 />
    <glyph glyph-name="zero-width-space" unicode="&#x254;" horiz-adv-x="0" 
 />
    <glyph glyph-name="zero-width-space" unicode="&#x253;" horiz-adv-x="0" 
 />
    <glyph glyph-name="zero-width-space" unicode="&#x252;" horiz-adv-x="0" 
 />
    <glyph glyph-name="zero-width-space" unicode="&#x251;" horiz-adv-x="0" 
 />
    <glyph glyph-name="zero-width-space" unicode="&#x250;" horiz-adv-x="0" 
 />
    <glyph glyph-name="zero-width-space" unicode="&#x24f;" horiz-adv-x="0" 
 />
    <glyph glyph-name="zero-width-space" unicode="&#x24e;" horiz-adv-x="0" 
 />
    <glyph glyph-name="zero-width-space" unicode="&#x24d;" horiz-adv-x="0" 
 />
    <glyph glyph-name="zero-width-space" unicode="&#x24c;" horiz-adv-x="0" 
 />
    <glyph glyph-name="zero-width-space" unicode="&#x24b;" horiz-adv-x="0" 
 />
    <glyph glyph-name="zero-width-space" unicode="&#x24a;" horiz-adv-x="0" 
 />
    <glyph glyph-name="zero-width-space" unicode="&#x249;" horiz-adv-x="0" 
 />
    <glyph glyph-name="zero-width-space" unicode="&#x248;" horiz-adv-x="0" 
 />
    <glyph glyph-name="zero-width-space" unicode="&#x247;" horiz-adv-x="0" 
 />
    <glyph glyph-name="zero-width-space" unicode="&#x246;" horiz-adv-x="0" 
 />
    <glyph glyph-name="zero-width-space" unicode="&#x245;" horiz-adv-x="0" 
 />
    <glyph glyph-name="zero-width-space" unicode="&#x244;" horiz-adv-x="0" 
 />
    <glyph glyph-name="zero-width-space" unicode="&#x243;" horiz-adv-x="0" 
 />
    <glyph glyph-name="zero-width-space" unicode="&#x242;" horiz-adv-x="0" 
 />
    <glyph glyph-name="zero-width-space" unicode="&#x241;" horiz-adv-x="0" 
 />
    <glyph glyph-name="zero-width-space" unicode="&#x240;" horiz-adv-x="0" 
 />
    <glyph glyph-name="zero-width-space" unicode="&#x23f;" horiz-adv-x="0" 
 />
    <glyph glyph-name="zero-width-space" unicode="&#x23e;" horiz-adv-x="0" 
 />
    <glyph glyph-name="zero-width-space" unicode="&#x23d;" horiz-adv-x="0" 
 />
    <glyph glyph-name="zero-width-space" unicode="&#x23c;" horiz-adv-x="0" 
 />
    <glyph glyph-name="zero-width-space" unicode="&#x23b;" horiz-adv-x="0" 
 />
    <glyph glyph-name="zero-width-space" unicode="&#x23a;" horiz-adv-x="0" 
 />
    <glyph glyph-name="zero-width-space" unicode="&#x239;" horiz-adv-x="0" 
 />
    <glyph glyph-name="zero-width-space" unicode="&#x238;" horiz-adv-x="0" 
 />
    <glyph glyph-name="zero-width-space" unicode="&#x237;" horiz-adv-x="0" 
 />
    <glyph glyph-name="zero-width-space" unicode="&#x236;" horiz-adv-x="0" 
 />
    <glyph glyph-name="zero-width-space" unicode="&#x235;" horiz-adv-x="0" 
 />
    <glyph glyph-name="zero-width-space" unicode="&#x234;" horiz-adv-x="0" 
 />
    <glyph glyph-name="zero-width-space" unicode="&#x233;" horiz-adv-x="0" 
 />
    <glyph glyph-name="zero-width-space" unicode="&#x232;" horiz-adv-x="0" 
 />
    <glyph glyph-name="zero-width-space" unicode="&#x231;" horiz-adv-x="0" 
 />
    <glyph glyph-name="zero-width-space" unicode="&#x230;" horiz-adv-x="0" 
 />
    <glyph glyph-name="zero-width-space" unicode="&#x22f;" horiz-adv-x="0" 
 />
    <glyph glyph-name="zero-width-space" unicode="&#x22e;" horiz-adv-x="0" 
 />
    <glyph glyph-name="zero-width-space" unicode="&#x22d;" horiz-adv-x="0" 
 />
    <glyph glyph-name="zero-width-space" unicode="&#x22c;" horiz-adv-x="0" 
 />
    <glyph glyph-name="zero-width-space" unicode="&#x22b;" horiz-adv-x="0" 
 />
    <glyph glyph-name="zero-width-space" unicode="&#x22a;" horiz-adv-x="0" 
 />
    <glyph glyph-name="zero-width-space" unicode="&#x229;" horiz-adv-x="0" 
 />
    <glyph glyph-name="zero-width-space" unicode="&#x228;" horiz-adv-x="0" 
 />
    <glyph glyph-name="zero-width-space" unicode="&#x227;" horiz-adv-x="0" 
 />
    <glyph glyph-name="zero-width-space" unicode="&#x226;" horiz-adv-x="0" 
 />
    <glyph glyph-name="zero-width-space" unicode="&#x225;" horiz-adv-x="0" 
 />
    <glyph glyph-name="zero-width-space" unicode="&#x224;" horiz-adv-x="0" 
 />
    <glyph glyph-name="zero-width-space" unicode="&#x223;" horiz-adv-x="0" 
 />
    <glyph glyph-name="zero-width-space" unicode="&#x222;" horiz-adv-x="0" 
 />
    <glyph glyph-name="zero-width-space" unicode="&#x221;" horiz-adv-x="0" 
 />
    <glyph glyph-name="zero-width-space" unicode="&#x220;" horiz-adv-x="0" 
 />
    <glyph glyph-name="zero-width-space" unicode="&#x21f;" horiz-adv-x="0" 
 />
    <glyph glyph-name="zero-width-space" unicode="&#x21e;" horiz-adv-x="0" 
 />
    <glyph glyph-name="zero-width-space" unicode="&#x21d;" horiz-adv-x="0" 
 />
    <glyph glyph-name="zero-width-space" unicode="&#x21c;" horiz-adv-x="0" 
 />
    <glyph glyph-name="zero-width-space" unicode="&#x21b;" horiz-adv-x="0" 
 />
    <glyph glyph-name="zero-width-space" unicode="&#x21a;" horiz-adv-x="0" 
 />
    <glyph glyph-name="zero-width-space" unicode="&#x219;" horiz-adv-x="0" 
 />
    <glyph glyph-name="zero-width-space" unicode="&#x218;" horiz-adv-x="0" 
 />
    <glyph glyph-name="zero-width-space" unicode="&#x217;" horiz-adv-x="0" 
 />
    <glyph glyph-name="zero-width-space" unicode="&#x216;" horiz-adv-x="0" 
 />
    <glyph glyph-name="zero-width-space" unicode="&#x215;" horiz-adv-x="0" 
 />
    <glyph glyph-name="zero-width-space" unicode="&#x214;" horiz-adv-x="0" 
 />
    <glyph glyph-name="zero-width-space" unicode="&#x213;" horiz-adv-x="0" 
 />
    <glyph glyph-name="zero-width-space" unicode="&#x212;" horiz-adv-x="0" 
 />
    <glyph glyph-name="zero-width-space" unicode="&#x211;" horiz-adv-x="0" 
 />
    <glyph glyph-name="zero-width-space" unicode="&#x210;" horiz-adv-x="0" 
 />
    <glyph glyph-name="zero-width-space" unicode="&#x20f;" horiz-adv-x="0" 
 />
    <glyph glyph-name="zero-width-space" unicode="&#x20e;" horiz-adv-x="0" 
 />
    <glyph glyph-name="zero-width-space" unicode="&#x20d;" horiz-adv-x="0" 
 />
    <glyph glyph-name="zero-width-space" unicode="&#x20c;" horiz-adv-x="0" 
 />
    <glyph glyph-name="zero-width-space" unicode="&#x20b;" horiz-adv-x="0" 
 />
    <glyph glyph-name="zero-width-space" unicode="&#x20a;" horiz-adv-x="0" 
 />
    <glyph glyph-name="zero-width-space" unicode="&#x209;" horiz-adv-x="0" 
 />
    <glyph glyph-name="zero-width-space" unicode="&#x208;" horiz-adv-x="0" 
 />
    <glyph glyph-name="zero-width-space" unicode="&#x207;" horiz-adv-x="0" 
 />
    <glyph glyph-name="zero-width-space" unicode="&#x206;" horiz-adv-x="0" 
 />
    <glyph glyph-name="zero-width-space" unicode="&#x205;" horiz-adv-x="0" 
 />
    <glyph glyph-name="zero-width-space" unicode="&#x204;" horiz-adv-x="0" 
 />
    <glyph glyph-name="zero-width-space" unicode="&#x203;" horiz-adv-x="0" 
 />
    <glyph glyph-name="zero-width-space" unicode="&#x202;" horiz-adv-x="0" 
 />
    <glyph glyph-name="zero-width-space" unicode="&#x201;" horiz-adv-x="0" 
 />
    <glyph glyph-name="zero-width-space" unicode="&#x200;" horiz-adv-x="0" 
 />
    <glyph glyph-name="zero-width-space" unicode="&#x1ff;" horiz-adv-x="0" 
 />
    <glyph glyph-name="zero-width-space" unicode="&#x1fe;" horiz-adv-x="0" 
 />
    <glyph glyph-name="zero-width-space" unicode="&#x1fd;" horiz-adv-x="0" 
 />
    <glyph glyph-name="zero-width-space" unicode="&#x1fc;" horiz-adv-x="0" 
 />
    <glyph glyph-name="zero-width-space" unicode="&#x1fb;" horiz-adv-x="0" 
 />
    <glyph glyph-name="zero-width-space" unicode="&#x1fa;" horiz-adv-x="0" 
 />
    <glyph glyph-name="zero-width-space" unicode="&#x1f9;" horiz-adv-x="0" 
 />
    <glyph glyph-name="zero-width-space" unicode="&#x1f8;" horiz-adv-x="0" 
 />
    <glyph glyph-name="zero-width-space" unicode="&#x1f7;" horiz-adv-x="0" 
 />
    <glyph glyph-name="zero-width-space" unicode="&#x1f6;" horiz-adv-x="0" 
 />
    <glyph glyph-name="zero-width-space" unicode="&#x1f5;" horiz-adv-x="0" 
 />
    <glyph glyph-name="zero-width-space" unicode="&#x1f4;" horiz-adv-x="0" 
 />
    <glyph glyph-name="zero-width-space" unicode="&#x1f3;" horiz-adv-x="0" 
 />
    <glyph glyph-name="zero-width-space" unicode="&#x1f2;" horiz-adv-x="0" 
 />
    <glyph glyph-name="zero-width-space" unicode="&#x1f1;" horiz-adv-x="0" 
 />
    <glyph glyph-name="zero-width-space" unicode="&#x1f0;" horiz-adv-x="0" 
 />
    <glyph glyph-name="zero-width-space" unicode="&#x1ef;" horiz-adv-x="0" 
 />
    <glyph glyph-name="zero-width-space" unicode="&#x1ee;" horiz-adv-x="0" 
 />
    <glyph glyph-name="zero-width-space" unicode="&#x1ed;" horiz-adv-x="0" 
 />
    <glyph glyph-name="zero-width-space" unicode="&#x1ec;" horiz-adv-x="0" 
 />
    <glyph glyph-name="zero-width-space" unicode="&#x1eb;" horiz-adv-x="0" 
 />
    <glyph glyph-name="zero-width-space" unicode="&#x1ea;" horiz-adv-x="0" 
 />
    <glyph glyph-name="zero-width-space" unicode="&#x1e9;" horiz-adv-x="0" 
 />
    <glyph glyph-name="zero-width-space" unicode="&#x1e8;" horiz-adv-x="0" 
 />
    <glyph glyph-name="zero-width-space" unicode="&#x1e7;" horiz-adv-x="0" 
 />
    <glyph glyph-name="zero-width-space" unicode="&#x1e6;" horiz-adv-x="0" 
 />
    <glyph glyph-name="zero-width-space" unicode="&#x1e5;" horiz-adv-x="0" 
 />
    <glyph glyph-name="zero-width-space" unicode="&#x1e4;" horiz-adv-x="0" 
 />
    <glyph glyph-name="zero-width-space" unicode="&#x1e3;" horiz-adv-x="0" 
 />
    <glyph glyph-name="zero-width-space" unicode="&#x1e2;" horiz-adv-x="0" 
 />
    <glyph glyph-name="zero-width-space" unicode="&#x1e1;" horiz-adv-x="0" 
 />
    <glyph glyph-name="zero-width-space" unicode="&#x1e0;" horiz-adv-x="0" 
 />
    <glyph glyph-name="zero-width-space" unicode="&#x1df;" horiz-adv-x="0" 
 />
    <glyph glyph-name="zero-width-space" unicode="&#x1de;" horiz-adv-x="0" 
 />
    <glyph glyph-name="zero-width-space" unicode="&#x1dd;" horiz-adv-x="0" 
 />
    <glyph glyph-name="zero-width-space" unicode="&#x1dc;" horiz-adv-x="0" 
 />
    <glyph glyph-name="zero-width-space" unicode="&#x1db;" horiz-adv-x="0" 
 />
    <glyph glyph-name="zero-width-space" unicode="&#x1da;" horiz-adv-x="0" 
 />
    <glyph glyph-name="zero-width-space" unicode="&#x1d9;" horiz-adv-x="0" 
 />
    <glyph glyph-name="zero-width-space" unicode="&#x1d8;" horiz-adv-x="0" 
 />
    <glyph glyph-name="zero-width-space" unicode="&#x1d7;" horiz-adv-x="0" 
 />
    <glyph glyph-name="zero-width-space" unicode="&#x1d6;" horiz-adv-x="0" 
 />
    <glyph glyph-name="zero-width-space" unicode="&#x1d5;" horiz-adv-x="0" 
 />
    <glyph glyph-name="zero-width-space" unicode="&#x1d4;" horiz-adv-x="0" 
 />
    <glyph glyph-name="zero-width-space" unicode="&#x1d3;" horiz-adv-x="0" 
 />
    <glyph glyph-name="zero-width-space" unicode="&#x1d2;" horiz-adv-x="0" 
 />
    <glyph glyph-name="zero-width-space" unicode="&#x1d1;" horiz-adv-x="0" 
 />
    <glyph glyph-name="zero-width-space" unicode="&#x1d0;" horiz-adv-x="0" 
 />
    <glyph glyph-name="zero-width-space" unicode="&#x1cf;" horiz-adv-x="0" 
 />
    <glyph glyph-name="zero-width-space" unicode="&#x1ce;" horiz-adv-x="0" 
 />
    <glyph glyph-name="zero-width-space" unicode="&#x1cd;" horiz-adv-x="0" 
 />
    <glyph glyph-name="zero-width-space" unicode="&#x1cc;" horiz-adv-x="0" 
 />
    <glyph glyph-name="zero-width-space" unicode="&#x1cb;" horiz-adv-x="0" 
 />
    <glyph glyph-name="zero-width-space" unicode="&#x1ca;" horiz-adv-x="0" 
 />
    <glyph glyph-name="zero-width-space" unicode="&#x1c9;" horiz-adv-x="0" 
 />
    <glyph glyph-name="zero-width-space" unicode="&#x1c8;" horiz-adv-x="0" 
 />
    <glyph glyph-name="zero-width-space" unicode="&#x1c7;" horiz-adv-x="0" 
 />
    <glyph glyph-name="zero-width-space" unicode="&#x1c6;" horiz-adv-x="0" 
 />
    <glyph glyph-name="zero-width-space" unicode="&#x1c5;" horiz-adv-x="0" 
 />
    <glyph glyph-name="zero-width-space" unicode="&#x1c4;" horiz-adv-x="0" 
 />
    <glyph glyph-name="zero-width-space" unicode="&#x1c3;" horiz-adv-x="0" 
 />
    <glyph glyph-name="zero-width-space" unicode="&#x1c2;" horiz-adv-x="0" 
 />
    <glyph glyph-name="zero-width-space" unicode="&#x1c1;" horiz-adv-x="0" 
 />
    <glyph glyph-name="zero-width-space" unicode="&#x1c0;" horiz-adv-x="0" 
 />
    <glyph glyph-name="zero-width-space" unicode="&#x1bf;" horiz-adv-x="0" 
 />
    <glyph glyph-name="zero-width-space" unicode="&#x1be;" horiz-adv-x="0" 
 />
    <glyph glyph-name="zero-width-space" unicode="&#x1bd;" horiz-adv-x="0" 
 />
    <glyph glyph-name="zero-width-space" unicode="&#x1bc;" horiz-adv-x="0" 
 />
    <glyph glyph-name="zero-width-space" unicode="&#x1bb;" horiz-adv-x="0" 
 />
    <glyph glyph-name="zero-width-space" unicode="&#x1ba;" horiz-adv-x="0" 
 />
    <glyph glyph-name="zero-width-space" unicode="&#x1b9;" horiz-adv-x="0" 
 />
    <glyph glyph-name="zero-width-space" unicode="&#x1b8;" horiz-adv-x="0" 
 />
    <glyph glyph-name="zero-width-space" unicode="&#x1b7;" horiz-adv-x="0" 
 />
    <glyph glyph-name="zero-width-space" unicode="&#x1b6;" horiz-adv-x="0" 
 />
    <glyph glyph-name="zero-width-space" unicode="&#x1b5;" horiz-adv-x="0" 
 />
    <glyph glyph-name="zero-width-space" unicode="&#x1b4;" horiz-adv-x="0" 
 />
    <glyph glyph-name="zero-width-space" unicode="&#x1b3;" horiz-adv-x="0" 
 />
    <glyph glyph-name="zero-width-space" unicode="&#x1b2;" horiz-adv-x="0" 
 />
    <glyph glyph-name="zero-width-space" unicode="&#x1b1;" horiz-adv-x="0" 
 />
    <glyph glyph-name="zero-width-space" unicode="&#x1b0;" horiz-adv-x="0" 
 />
    <glyph glyph-name="zero-width-space" unicode="&#x1af;" horiz-adv-x="0" 
 />
    <glyph glyph-name="zero-width-space" unicode="&#x1ae;" horiz-adv-x="0" 
 />
    <glyph glyph-name="zero-width-space" unicode="&#x1ad;" horiz-adv-x="0" 
 />
    <glyph glyph-name="zero-width-space" unicode="&#x1ac;" horiz-adv-x="0" 
 />
    <glyph glyph-name="zero-width-space" unicode="&#x1ab;" horiz-adv-x="0" 
 />
    <glyph glyph-name="zero-width-space" unicode="&#x1aa;" horiz-adv-x="0" 
 />
    <glyph glyph-name="zero-width-space" unicode="&#x1a9;" horiz-adv-x="0" 
 />
    <glyph glyph-name="zero-width-space" unicode="&#x1a8;" horiz-adv-x="0" 
 />
    <glyph glyph-name="zero-width-space" unicode="&#x1a7;" horiz-adv-x="0" 
 />
    <glyph glyph-name="zero-width-space" unicode="&#x1a6;" horiz-adv-x="0" 
 />
    <glyph glyph-name="zero-width-space" unicode="&#x1a5;" horiz-adv-x="0" 
 />
    <glyph glyph-name="zero-width-space" unicode="&#x1a4;" horiz-adv-x="0" 
 />
    <glyph glyph-name="zero-width-space" unicode="&#x1a3;" horiz-adv-x="0" 
 />
    <glyph glyph-name="zero-width-space" unicode="&#x1a2;" horiz-adv-x="0" 
 />
    <glyph glyph-name="zero-width-space" unicode="&#x1a1;" horiz-adv-x="0" 
 />
    <glyph glyph-name="zero-width-space" unicode="&#x1a0;" horiz-adv-x="0" 
 />
    <glyph glyph-name="zero-width-space" unicode="&#x19f;" horiz-adv-x="0" 
 />
    <glyph glyph-name="zero-width-space" unicode="&#x19e;" horiz-adv-x="0" 
 />
    <glyph glyph-name="zero-width-space" unicode="&#x19d;" horiz-adv-x="0" 
 />
    <glyph glyph-name="zero-width-space" unicode="&#x19c;" horiz-adv-x="0" 
 />
    <glyph glyph-name="zero-width-space" unicode="&#x19b;" horiz-adv-x="0" 
 />
    <glyph glyph-name="zero-width-space" unicode="&#x19a;" horiz-adv-x="0" 
 />
    <glyph glyph-name="zero-width-space" unicode="&#x199;" horiz-adv-x="0" 
 />
    <glyph glyph-name="zero-width-space" unicode="&#x198;" horiz-adv-x="0" 
 />
    <glyph glyph-name="zero-width-space" unicode="&#x197;" horiz-adv-x="0" 
 />
    <glyph glyph-name="zero-width-space" unicode="&#x196;" horiz-adv-x="0" 
 />
    <glyph glyph-name="zero-width-space" unicode="&#x195;" horiz-adv-x="0" 
 />
    <glyph glyph-name="zero-width-space" unicode="&#x194;" horiz-adv-x="0" 
 />
    <glyph glyph-name="zero-width-space" unicode="&#x193;" horiz-adv-x="0" 
 />
    <glyph glyph-name="zero-width-space" unicode="&#x192;" horiz-adv-x="0" 
 />
    <glyph glyph-name="zero-width-space" unicode="&#x191;" horiz-adv-x="0" 
 />
    <glyph glyph-name="zero-width-space" unicode="&#x190;" horiz-adv-x="0" 
 />
    <glyph glyph-name="zero-width-space" unicode="&#x18f;" horiz-adv-x="0" 
 />
    <glyph glyph-name="zero-width-space" unicode="&#x18e;" horiz-adv-x="0" 
 />
    <glyph glyph-name="zero-width-space" unicode="&#x18d;" horiz-adv-x="0" 
 />
    <glyph glyph-name="zero-width-space" unicode="&#x18c;" horiz-adv-x="0" 
 />
    <glyph glyph-name="zero-width-space" unicode="&#x18b;" horiz-adv-x="0" 
 />
    <glyph glyph-name="zero-width-space" unicode="&#x18a;" horiz-adv-x="0" 
 />
    <glyph glyph-name="zero-width-space" unicode="&#x189;" horiz-adv-x="0" 
 />
    <glyph glyph-name="zero-width-space" unicode="&#x188;" horiz-adv-x="0" 
 />
    <glyph glyph-name="zero-width-space" unicode="&#x187;" horiz-adv-x="0" 
 />
    <glyph glyph-name="zero-width-space" unicode="&#x186;" horiz-adv-x="0" 
 />
    <glyph glyph-name="zero-width-space" unicode="&#x185;" horiz-adv-x="0" 
 />
    <glyph glyph-name="zero-width-space" unicode="&#x184;" horiz-adv-x="0" 
 />
    <glyph glyph-name="zero-width-space" unicode="&#x183;" horiz-adv-x="0" 
 />
    <glyph glyph-name="zero-width-space" unicode="&#x182;" horiz-adv-x="0" 
 />
    <glyph glyph-name="zero-width-space" unicode="&#x181;" horiz-adv-x="0" 
 />
    <glyph glyph-name="zero-width-space" unicode="&#x180;" horiz-adv-x="0" 
 />
    <glyph glyph-name="zero-width-space" unicode="&#x17f;" horiz-adv-x="0" 
 />
    <glyph glyph-name="zero-width-space" unicode="&#x17e;" horiz-adv-x="0" 
 />
    <glyph glyph-name="zero-width-space" unicode="&#x17d;" horiz-adv-x="0" 
 />
    <glyph glyph-name="zero-width-space" unicode="&#x17c;" horiz-adv-x="0" 
 />
    <glyph glyph-name="zero-width-space" unicode="&#x17b;" horiz-adv-x="0" 
 />
    <glyph glyph-name="zero-width-space" unicode="&#x17a;" horiz-adv-x="0" 
 />
    <glyph glyph-name="zero-width-space" unicode="&#x179;" horiz-adv-x="0" 
 />
    <glyph glyph-name="zero-width-space" unicode="&#x178;" horiz-adv-x="0" 
 />
    <glyph glyph-name="zero-width-space" unicode="&#x177;" horiz-adv-x="0" 
 />
    <glyph glyph-name="zero-width-space" unicode="&#x176;" horiz-adv-x="0" 
 />
    <glyph glyph-name="zero-width-space" unicode="&#x175;" horiz-adv-x="0" 
 />
    <glyph glyph-name="zero-width-space" unicode="&#x174;" horiz-adv-x="0" 
 />
    <glyph glyph-name="zero-width-space" unicode="&#x173;" horiz-adv-x="0" 
 />
    <glyph glyph-name="zero-width-space" unicode="&#x172;" horiz-adv-x="0" 
 />
    <glyph glyph-name="zero-width-space" unicode="&#x171;" horiz-adv-x="0" 
 />
    <glyph glyph-name="zero-width-space" unicode="&#x170;" horiz-adv-x="0" 
 />
    <glyph glyph-name="zero-width-space" unicode="&#x16f;" horiz-adv-x="0" 
 />
    <glyph glyph-name="zero-width-space" unicode="&#x16e;" horiz-adv-x="0" 
 />
    <glyph glyph-name="zero-width-space" unicode="&#x16d;" horiz-adv-x="0" 
 />
    <glyph glyph-name="zero-width-space" unicode="&#x16c;" horiz-adv-x="0" 
 />
    <glyph glyph-name="zero-width-space" unicode="&#x16b;" horiz-adv-x="0" 
 />
    <glyph glyph-name="zero-width-space" unicode="&#x16a;" horiz-adv-x="0" 
 />
    <glyph glyph-name="zero-width-space" unicode="&#x169;" horiz-adv-x="0" 
 />
    <glyph glyph-name="zero-width-space" unicode="&#x168;" horiz-adv-x="0" 
 />
    <glyph glyph-name="zero-width-space" unicode="&#x167;" horiz-adv-x="0" 
 />
    <glyph glyph-name="zero-width-space" unicode="&#x166;" horiz-adv-x="0" 
 />
    <glyph glyph-name="zero-width-space" unicode="&#x165;" horiz-adv-x="0" 
 />
    <glyph glyph-name="zero-width-space" unicode="&#x164;" horiz-adv-x="0" 
 />
    <glyph glyph-name="zero-width-space" unicode="&#x163;" horiz-adv-x="0" 
 />
    <glyph glyph-name="zero-width-space" unicode="&#x162;" horiz-adv-x="0" 
 />
    <glyph glyph-name="zero-width-space" unicode="&#x161;" horiz-adv-x="0" 
 />
    <glyph glyph-name="zero-width-space" unicode="&#x160;" horiz-adv-x="0" 
 />
    <glyph glyph-name="zero-width-space" unicode="&#x15f;" horiz-adv-x="0" 
 />
    <glyph glyph-name="zero-width-space" unicode="&#x15e;" horiz-adv-x="0" 
 />
    <glyph glyph-name="zero-width-space" unicode="&#x15d;" horiz-adv-x="0" 
 />
    <glyph glyph-name="zero-width-space" unicode="&#x15c;" horiz-adv-x="0" 
 />
    <glyph glyph-name="zero-width-space" unicode="&#x15b;" horiz-adv-x="0" 
 />
    <glyph glyph-name="zero-width-space" unicode="&#x15a;" horiz-adv-x="0" 
 />
    <glyph glyph-name="zero-width-space" unicode="&#x159;" horiz-adv-x="0" 
 />
    <glyph glyph-name="zero-width-space" unicode="&#x158;" horiz-adv-x="0" 
 />
    <glyph glyph-name="zero-width-space" unicode="&#x157;" horiz-adv-x="0" 
 />
    <glyph glyph-name="zero-width-space" unicode="&#x156;" horiz-adv-x="0" 
 />
    <glyph glyph-name="zero-width-space" unicode="&#x155;" horiz-adv-x="0" 
 />
    <glyph glyph-name="zero-width-space" unicode="&#x154;" horiz-adv-x="0" 
 />
    <glyph glyph-name="zero-width-space" unicode="&#x153;" horiz-adv-x="0" 
 />
    <glyph glyph-name="zero-width-space" unicode="&#x152;" horiz-adv-x="0" 
 />
    <glyph glyph-name="zero-width-space" unicode="&#x151;" horiz-adv-x="0" 
 />
    <glyph glyph-name="zero-width-space" unicode="&#x150;" horiz-adv-x="0" 
 />
    <glyph glyph-name="zero-width-space" unicode="&#x14f;" horiz-adv-x="0" 
 />
    <glyph glyph-name="zero-width-space" unicode="&#x14e;" horiz-adv-x="0" 
 />
    <glyph glyph-name="zero-width-space" unicode="&#x14d;" horiz-adv-x="0" 
 />
    <glyph glyph-name="zero-width-space" unicode="&#x14c;" horiz-adv-x="0" 
 />
    <glyph glyph-name="zero-width-space" unicode="&#x14b;" horiz-adv-x="0" 
 />
    <glyph glyph-name="zero-width-space" unicode="&#x14a;" horiz-adv-x="0" 
 />
    <glyph glyph-name="zero-width-space" unicode="&#x149;" horiz-adv-x="0" 
 />
    <glyph glyph-name="zero-width-space" unicode="&#x148;" horiz-adv-x="0" 
 />
    <glyph glyph-name="zero-width-space" unicode="&#x147;" horiz-adv-x="0" 
 />
    <glyph glyph-name="zero-width-space" unicode="&#x146;" horiz-adv-x="0" 
 />
    <glyph glyph-name="zero-width-space" unicode="&#x145;" horiz-adv-x="0" 
 />
    <glyph glyph-name="zero-width-space" unicode="&#x144;" horiz-adv-x="0" 
 />
    <glyph glyph-name="zero-width-space" unicode="&#x143;" horiz-adv-x="0" 
 />
    <glyph glyph-name="zero-width-space" unicode="&#x142;" horiz-adv-x="0" 
 />
    <glyph glyph-name="zero-width-space" unicode="&#x141;" horiz-adv-x="0" 
 />
    <glyph glyph-name="zero-width-space" unicode="&#x140;" horiz-adv-x="0" 
 />
    <glyph glyph-name="zero-width-space" unicode="&#x13f;" horiz-adv-x="0" 
 />
    <glyph glyph-name="zero-width-space" unicode="&#x13e;" horiz-adv-x="0" 
 />
    <glyph glyph-name="zero-width-space" unicode="&#x13d;" horiz-adv-x="0" 
 />
    <glyph glyph-name="zero-width-space" unicode="&#x13c;" horiz-adv-x="0" 
 />
    <glyph glyph-name="zero-width-space" unicode="&#x13b;" horiz-adv-x="0" 
 />
    <glyph glyph-name="zero-width-space" unicode="&#x13a;" horiz-adv-x="0" 
 />
    <glyph glyph-name="zero-width-space" unicode="&#x139;" horiz-adv-x="0" 
 />
    <glyph glyph-name="zero-width-space" unicode="&#x138;" horiz-adv-x="0" 
 />
    <glyph glyph-name="zero-width-space" unicode="&#x137;" horiz-adv-x="0" 
 />
    <glyph glyph-name="zero-width-space" unicode="&#x136;" horiz-adv-x="0" 
 />
    <glyph glyph-name="zero-width-space" unicode="&#x135;" horiz-adv-x="0" 
 />
    <glyph glyph-name="zero-width-space" unicode="&#x134;" horiz-adv-x="0" 
 />
    <glyph glyph-name="zero-width-space" unicode="&#x133;" horiz-adv-x="0" 
 />
    <glyph glyph-name="zero-width-space" unicode="&#x132;" horiz-adv-x="0" 
 />
    <glyph glyph-name="zero-width-space" unicode="&#x131;" horiz-adv-x="0" 
 />
    <glyph glyph-name="zero-width-space" unicode="&#x130;" horiz-adv-x="0" 
 />
    <glyph glyph-name="zero-width-space" unicode="&#x12f;" horiz-adv-x="0" 
 />
    <glyph glyph-name="zero-width-space" unicode="&#x12e;" horiz-adv-x="0" 
 />
    <glyph glyph-name="zero-width-space" unicode="&#x12d;" horiz-adv-x="0" 
 />
    <glyph glyph-name="zero-width-space" unicode="&#x12c;" horiz-adv-x="0" 
 />
    <glyph glyph-name="zero-width-space" unicode="&#x12b;" horiz-adv-x="0" 
 />
    <glyph glyph-name="zero-width-space" unicode="&#x12a;" horiz-adv-x="0" 
 />
    <glyph glyph-name="zero-width-space" unicode="&#x129;" horiz-adv-x="0" 
 />
    <glyph glyph-name="zero-width-space" unicode="&#x128;" horiz-adv-x="0" 
 />
    <glyph glyph-name="zero-width-space" unicode="&#x127;" horiz-adv-x="0" 
 />
    <glyph glyph-name="zero-width-space" unicode="&#x126;" horiz-adv-x="0" 
 />
    <glyph glyph-name="zero-width-space" unicode="&#x125;" horiz-adv-x="0" 
 />
    <glyph glyph-name="zero-width-space" unicode="&#x124;" horiz-adv-x="0" 
 />
    <glyph glyph-name="zero-width-space" unicode="&#x123;" horiz-adv-x="0" 
 />
    <glyph glyph-name="zero-width-space" unicode="&#x122;" horiz-adv-x="0" 
 />
    <glyph glyph-name="zero-width-space" unicode="&#x121;" horiz-adv-x="0" 
 />
    <glyph glyph-name="zero-width-space" unicode="&#x120;" horiz-adv-x="0" 
 />
    <glyph glyph-name="zero-width-space" unicode="&#x11f;" horiz-adv-x="0" 
 />
    <glyph glyph-name="zero-width-space" unicode="&#x11e;" horiz-adv-x="0" 
 />
    <glyph glyph-name="zero-width-space" unicode="&#x11d;" horiz-adv-x="0" 
 />
    <glyph glyph-name="zero-width-space" unicode="&#x11c;" horiz-adv-x="0" 
 />
    <glyph glyph-name="zero-width-space" unicode="&#x11b;" horiz-adv-x="0" 
 />
    <glyph glyph-name="zero-width-space" unicode="&#x11a;" horiz-adv-x="0" 
 />
    <glyph glyph-name="zero-width-space" unicode="&#x119;" horiz-adv-x="0" 
 />
    <glyph glyph-name="zero-width-space" unicode="&#x118;" horiz-adv-x="0" 
 />
    <glyph glyph-name="zero-width-space" unicode="&#x117;" horiz-adv-x="0" 
 />
    <glyph glyph-name="zero-width-space" unicode="&#x116;" horiz-adv-x="0" 
 />
    <glyph glyph-name="zero-width-space" unicode="&#x115;" horiz-adv-x="0" 
 />
    <glyph glyph-name="zero-width-space" unicode="&#x114;" horiz-adv-x="0" 
 />
    <glyph glyph-name="zero-width-space" unicode="&#x113;" horiz-adv-x="0" 
 />
    <glyph glyph-name="zero-width-space" unicode="&#x112;" horiz-adv-x="0" 
 />
    <glyph glyph-name="zero-width-space" unicode="&#x111;" horiz-adv-x="0" 
 />
    <glyph glyph-name="zero-width-space" unicode="&#x110;" horiz-adv-x="0" 
 />
    <glyph glyph-name="zero-width-space" unicode="&#x10f;" horiz-adv-x="0" 
 />
    <glyph glyph-name="zero-width-space" unicode="&#x10e;" horiz-adv-x="0" 
 />
    <glyph glyph-name="zero-width-space" unicode="&#x10d;" horiz-adv-x="0" 
 />
    <glyph glyph-name="zero-width-space" unicode="&#x10c;" horiz-adv-x="0" 
 />
    <glyph glyph-name="zero-width-space" unicode="&#x10b;" horiz-adv-x="0" 
 />
    <glyph glyph-name="zero-width-space" unicode="&#x10a;" horiz-adv-x="0" 
 />
    <glyph glyph-name="zero-width-space" unicode="&#x109;" horiz-adv-x="0" 
 />
    <glyph glyph-name="zero-width-space" unicode="&#x108;" horiz-adv-x="0" 
 />
    <glyph glyph-name="zero-width-space" unicode="&#x107;" horiz-adv-x="0" 
 />
    <glyph glyph-name="zero-width-space" unicode="&#x106;" horiz-adv-x="0" 
 />
    <glyph glyph-name="zero-width-space" unicode="&#x105;" horiz-adv-x="0" 
 />
    <glyph glyph-name="zero-width-space" unicode="&#x104;" horiz-adv-x="0" 
 />
    <glyph glyph-name="zero-width-space" unicode="&#x103;" horiz-adv-x="0" 
 />
    <glyph glyph-name="zero-width-space" unicode="&#x102;" horiz-adv-x="0" 
 />
    <glyph glyph-name="zero-width-space" unicode="&#x101;" horiz-adv-x="0" 
 />
    <glyph glyph-name="zero-width-space" unicode="&#x100;" horiz-adv-x="0" 
 />
    <glyph glyph-name="zero-width-space" unicode="&#xff;" horiz-adv-x="0" 
 />
    <glyph glyph-name="zero-width-space" unicode="&#xfe;" horiz-adv-x="0" 
 />
    <glyph glyph-name="zero-width-space" unicode="&#xfd;" horiz-adv-x="0" 
 />
    <glyph glyph-name="zero-width-space" unicode="&#xfc;" horiz-adv-x="0" 
 />
    <glyph glyph-name="zero-width-space" unicode="&#xfb;" horiz-adv-x="0" 
 />
    <glyph glyph-name="zero-width-space" unicode="&#xfa;" horiz-adv-x="0" 
 />
    <glyph glyph-name="zero-width-space" unicode="&#xf9;" horiz-adv-x="0" 
 />
    <glyph glyph-name="zero-width-space" unicode="&#xf8;" horiz-adv-x="0" 
 />
    <glyph glyph-name="zero-width-space" unicode="&#xf7;" horiz-adv-x="0" 
 />
    <glyph glyph-name="zero-width-space" unicode="&#xf6;" horiz-adv-x="0" 
 />
    <glyph glyph-name="zero-width-space" unicode="&#xf5;" horiz-adv-x="0" 
 />
    <glyph glyph-name="zero-width-space" unicode="&#xf4;" horiz-adv-x="0" 
 />
    <glyph glyph-name="zero-width-space" unicode="&#xf3;" horiz-adv-x="0" 
 />
    <glyph glyph-name="zero-width-space" unicode="&#xf2;" horiz-adv-x="0" 
 />
    <glyph glyph-name="zero-width-space" unicode="&#xf1;" horiz-adv-x="0" 
 />
    <glyph glyph-name="zero-width-space" unicode="&#xf0;" horiz-adv-x="0" 
 />
    <glyph glyph-name="zero-width-space" unicode="&#xef;" horiz-adv-x="0" 
 />
    <glyph glyph-name="zero-width-space" unicode="&#xee;" horiz-adv-x="0" 
 />
    <glyph glyph-name="zero-width-space" unicode="&#xed;" horiz-adv-x="0" 
 />
    <glyph glyph-name="zero-width-space" unicode="&#xec;" horiz-adv-x="0" 
 />
    <glyph glyph-name="zero-width-space" unicode="&#xeb;" horiz-adv-x="0" 
 />
    <glyph glyph-name="zero-width-space" unicode="&#xea;" horiz-adv-x="0" 
 />
    <glyph glyph-name="zero-width-space" unicode="&#xe9;" horiz-adv-x="0" 
 />
    <glyph glyph-name="zero-width-space" unicode="&#xe8;" horiz-adv-x="0" 
 />
    <glyph glyph-name="zero-width-space" unicode="&#xe7;" horiz-adv-x="0" 
 />
    <glyph glyph-name="zero-width-space" unicode="&#xe6;" horiz-adv-x="0" 
 />
    <glyph glyph-name="zero-width-space" unicode="&#xe5;" horiz-adv-x="0" 
 />
    <glyph glyph-name="zero-width-space" unicode="&#xe4;" horiz-adv-x="0" 
 />
    <glyph glyph-name="zero-width-space" unicode="&#xe3;" horiz-adv-x="0" 
 />
    <glyph glyph-name="zero-width-space" unicode="&#xe2;" horiz-adv-x="0" 
 />
    <glyph glyph-name="zero-width-space" unicode="&#xe1;" horiz-adv-x="0" 
 />
    <glyph glyph-name="zero-width-space" unicode="&#xe0;" horiz-adv-x="0" 
 />
    <glyph glyph-name="zero-width-space" unicode="&#xdf;" horiz-adv-x="0" 
 />
    <glyph glyph-name="zero-width-space" unicode="&#xde;" horiz-adv-x="0" 
 />
    <glyph glyph-name="zero-width-space" unicode="&#xdd;" horiz-adv-x="0" 
 />
    <glyph glyph-name="zero-width-space" unicode="&#xdc;" horiz-adv-x="0" 
 />
    <glyph glyph-name="zero-width-space" unicode="&#xdb;" horiz-adv-x="0" 
 />
    <glyph glyph-name="zero-width-space" unicode="&#xda;" horiz-adv-x="0" 
 />
    <glyph glyph-name="zero-width-space" unicode="&#xd9;" horiz-adv-x="0" 
 />
    <glyph glyph-name="zero-width-space" unicode="&#xd8;" horiz-adv-x="0" 
 />
    <glyph glyph-name="zero-width-space" unicode="&#xd7;" horiz-adv-x="0" 
 />
    <glyph glyph-name="zero-width-space" unicode="&#xd6;" horiz-adv-x="0" 
 />
    <glyph glyph-name="zero-width-space" unicode="&#xd5;" horiz-adv-x="0" 
 />
    <glyph glyph-name="zero-width-space" unicode="&#xd4;" horiz-adv-x="0" 
 />
    <glyph glyph-name="zero-width-space" unicode="&#xd3;" horiz-adv-x="0" 
 />
    <glyph glyph-name="zero-width-space" unicode="&#xd2;" horiz-adv-x="0" 
 />
    <glyph glyph-name="zero-width-space" unicode="&#xd1;" horiz-adv-x="0" 
 />
    <glyph glyph-name="zero-width-space" unicode="&#xd0;" horiz-adv-x="0" 
 />
    <glyph glyph-name="zero-width-space" unicode="&#xcf;" horiz-adv-x="0" 
 />
    </font>
</defs>
</svg>
