<svg width="44" height="44" viewBox="0 0 44 44" fill="none" xmlns="http://www.w3.org/2000/svg">
<path d="M10.4802 25.7073C13.626 27.2801 16.7161 30.3705 18.289 33.5159C18.622 34.1819 18.421 34.9909 17.8151 35.4237L17.8131 35.4253C17.251 35.9867 15.5961 36.6041 14.8389 36.8425C13.1151 37.3715 10.6545 37.6389 8.29978 36.1957C8.09628 36.0711 7.92518 35.8999 7.80046 35.6965C6.35726 33.3417 6.62462 30.8811 7.15372 29.1573C7.39932 28.1151 8.20188 26.7389 8.57248 26.1811C9.00518 25.5753 9.81428 25.3743 10.4802 25.7073Z" fill="#010101"/>
<path d="M28.9411 42.2286C29.0275 42.761 29.3907 43.207 29.8945 43.3996C30.3983 43.592 30.9663 43.5018 31.3857 43.1628L31.3909 43.1594C31.7999 42.9398 32.4277 42.2286 32.6909 41.8998C33.4053 41.1186 34.3129 39.976 35.0571 38.5436C35.9093 36.903 36.5471 34.869 36.4377 32.5928C36.3971 31.7466 36.3767 31.3234 36.0377 31.1714C35.6985 31.0194 35.3345 31.3138 34.6067 31.9026C32.6727 33.4672 30.4555 34.9774 27.9271 36.4114C27.4003 36.7102 27.1369 36.8598 27.0689 37.098C27.0011 37.3364 27.1507 37.6104 27.4501 38.1586C28.1699 39.4768 28.7197 40.8646 28.9411 42.2286Z" fill="#010101"/>
<path d="M1.77251 15.0557C1.24021 14.9693 0.794154 14.6061 0.601654 14.1023C0.409154 13.5986 0.499314 13.0305 0.838334 12.6111L0.841814 12.6059C1.06131 12.197 1.77251 11.5692 2.10139 11.3059C2.88249 10.5914 4.02511 9.6839 5.45765 8.9397C7.09815 8.0875 9.13215 7.44982 11.4083 7.55908C12.2546 7.5997 12.6777 7.62002 12.8297 7.95918C12.9817 8.2983 12.6873 8.6623 12.0985 9.3902C10.534 11.3241 9.02365 13.5413 7.58965 16.0696C7.29079 16.5965 7.14137 16.86 6.90301 16.9279C6.66467 16.9957 6.39063 16.8461 5.84255 16.5468C4.52435 15.8269 3.13657 15.2771 1.77251 15.0557Z" fill="#010101"/>
<path opacity="0.4" d="M41.8324 2.85578C41.6852 2.5578 41.444 2.31656 41.146 2.16936C37.7966 0.514885 32.2222 -0.422615 26.12 1.8423C19.9852 4.11928 13.4829 9.56693 8.15725 20.3956C7.95353 20.8098 7.95007 21.2944 8.14785 21.7114C8.34565 22.1286 8.72295 22.4326 9.17265 22.537C10.1924 22.7738 13.4334 24.0902 16.6725 27.3292C19.9116 30.5684 21.228 33.8094 21.4648 34.829C21.5692 35.2788 21.8732 35.656 22.2902 35.8538C22.7074 36.0516 23.192 36.0482 23.6062 35.8444C34.4348 30.5188 39.8824 24.0166 42.1594 17.8818C44.4244 11.7796 43.4868 6.20514 41.8324 2.85578Z" fill="#010101"/>
<path d="M34.0604 9.94638C36.0298 11.9158 36.0298 15.109 34.0604 17.0785C32.0908 19.0479 28.8978 19.0479 26.9282 17.0785C24.9588 15.109 24.9588 11.9158 26.9282 9.94638C28.8978 7.97686 32.0908 7.97686 34.0604 9.94638Z" fill="#010101"/>
</svg>
