<svg width="19" height="22" viewBox="0 0 19 22" fill="none" xmlns="http://www.w3.org/2000/svg">
<path fill-rule="evenodd" clip-rule="evenodd" d="M15.6663 0.764851L15.9213 0.796851C16.5953 0.889851 17.4873 1.01485 17.9923 1.52085C18.4063 1.93385 18.5653 2.60585 18.6603 3.20585L18.7163 3.59185C18.8423 4.50185 18.8753 5.69385 18.6603 7.01785C18.2363 9.63085 16.8453 12.7489 13.3523 15.1629C13.3333 15.3509 13.3323 15.5409 13.3363 15.7309L13.3463 16.0149C13.3623 16.4519 13.3783 16.8889 13.2563 17.3129C13.0663 17.9729 12.3893 18.4079 11.7563 18.7199L11.4463 18.8669L11.0463 19.0429C10.2983 19.3609 9.28827 19.6869 8.65527 19.0529C8.27527 18.6739 8.11927 18.1179 7.99227 17.5649L7.94527 17.3579C7.89154 17.0967 7.82479 16.8384 7.74527 16.5839C7.69527 16.4372 7.64127 16.2889 7.58327 16.1389C7.51944 16.2172 7.45168 16.2923 7.38027 16.3639C7.03527 16.7089 6.52027 16.9499 6.09627 17.1189C5.63327 17.3019 5.10927 17.4619 4.62427 17.5939L4.37527 17.6599L3.89827 17.7789L3.46627 17.8789L2.94927 17.9889L2.62627 18.0519C2.46518 18.0817 2.29925 18.0719 2.1428 18.0233C1.98634 17.9747 1.84406 17.8888 1.72821 17.7729C1.61237 17.6571 1.52644 17.5148 1.47785 17.3583C1.42925 17.2019 1.41944 17.0359 1.44927 16.8749L1.53527 16.4439L1.68927 15.7459L1.81327 15.2359L1.90727 14.8759C2.03927 14.3919 2.19927 13.8679 2.38327 13.4059C2.55127 12.9809 2.79227 12.4659 3.13727 12.1209L3.21727 12.0439L3.15327 12.0179C2.98234 11.9529 2.80924 11.8939 2.63427 11.8409L2.35727 11.7559C1.66327 11.5459 0.921269 11.3199 0.460269 10.8579C-0.0997311 10.2989 0.0892688 9.44785 0.359269 8.73985L0.469269 8.46585L0.646269 8.06585L0.793269 7.75585C1.10527 7.12385 1.54027 6.44685 2.20027 6.25685C2.55027 6.15685 2.91427 6.15085 3.28027 6.16085L3.50027 6.16785C3.78627 6.17785 4.07127 6.18885 4.35027 6.16185C6.76427 2.66785 9.88227 1.27685 12.4953 0.852851C13.5435 0.680926 14.6101 0.651325 15.6663 0.764851ZM5.85427 13.4399C5.69693 13.3232 5.50882 13.2554 5.31328 13.2447C5.11773 13.2341 4.92335 13.281 4.75427 13.3799L4.64427 13.4539L4.55127 13.5369L4.42627 13.6949C4.16627 14.0709 4.01827 14.5909 3.90327 15.0769L3.79527 15.5449L3.74427 15.7579L3.93527 15.7119L4.35327 15.6159C4.93127 15.4809 5.57227 15.3059 5.96627 14.9509C6.13758 14.7796 6.24093 14.552 6.25711 14.3104C6.27329 14.0687 6.20122 13.8294 6.05427 13.6369L5.97227 13.5429L5.94827 13.5199L5.85427 13.4399ZM13.0373 6.46585C12.8516 6.2801 12.6311 6.13273 12.3885 6.03218C12.1458 5.93162 11.8858 5.87985 11.6231 5.8798C11.3605 5.87975 11.1004 5.93144 10.8577 6.03191C10.615 6.13238 10.3945 6.27966 10.2088 6.46535C10.023 6.65104 9.87565 6.8715 9.7751 7.11414C9.67454 7.35678 9.62276 7.61685 9.62272 7.8795C9.62267 8.14215 9.67436 8.40224 9.77483 8.64491C9.87529 8.88759 10.0226 9.1081 10.2083 9.29385C10.5833 9.669 11.092 9.87981 11.6224 9.8799C12.1529 9.88 12.6616 9.66937 13.0368 9.29435C13.4119 8.91934 13.6227 8.41065 13.6228 7.8802C13.6229 7.34976 13.4123 6.841 13.0373 6.46585Z" fill="white"/>
</svg>
