<svg width="42" height="43" viewBox="0 0 42 43" fill="none" xmlns="http://www.w3.org/2000/svg">
<g clip-path="url(#clip0_30_34796)">
<path d="M5.0293 7.93316C14.709 -3.33162 32.6577 -1.10885 39.365 12.0507C34.641 12.0533 27.2465 12.0481 23.2409 12.0507C20.3362 12.0507 18.4596 11.9857 16.4294 13.0554C14.0427 14.3125 12.239 16.642 11.6117 19.3801L5.0293 7.93316Z" fill="#F44336"/>
<path d="M13.8955 21.5014C13.8955 25.3196 17.0006 28.4247 20.8163 28.4247C24.6319 28.4247 27.737 25.3196 27.737 21.5014C27.737 17.6831 24.6319 14.578 20.8163 14.578C16.998 14.5754 13.8955 17.6831 13.8955 21.5014Z" fill="#2196F3"/>
<path d="M23.4999 30.5643C19.6165 31.7173 15.0695 30.4394 12.5813 26.1396C10.6812 22.8601 5.65789 14.1122 3.37787 10.1326C-4.61784 22.3864 2.27169 39.0832 16.7847 41.9332L23.4999 30.5643Z" fill="#4CAF50"/>
<path d="M27.2431 14.5754C30.4783 17.5842 31.1837 22.4565 28.9921 26.2332C27.342 29.0806 22.0714 37.9742 19.5181 42.2792C34.471 43.2006 45.3714 28.547 40.4469 14.5728L27.2431 14.5754Z" fill="#FFC107"/>
</g>
<defs>
<clipPath id="clip0_30_34796">
<rect width="41.6445" height="41.6445" fill="white" transform="translate(0 0.677734)"/>
</clipPath>
</defs>
</svg>
