<svg width="22" height="27" viewBox="0 0 22 27" fill="none" xmlns="http://www.w3.org/2000/svg">
<g clip-path="url(#clip0_48_8983)">
<path d="M8.88392 21.633H3.40903C2.95175 21.633 2.58063 21.2619 2.58063 20.8046V3.71469C2.58063 3.25741 2.95175 2.88629 3.40903 2.88629H15.835C16.2923 2.88629 16.6634 3.25741 16.6634 3.71469V13.8377C16.6634 14.2958 17.0337 14.6661 17.4918 14.6661C17.9499 14.6661 18.3202 14.2958 18.3202 13.8377V3.71469C18.3202 2.34452 17.2052 1.22949 15.835 1.22949H3.40903C2.03885 1.22949 0.923828 2.34452 0.923828 3.71469V20.8046C0.923828 22.1747 2.03885 23.2898 3.40903 23.2898H8.88392C9.34202 23.2898 9.71232 22.9195 9.71232 22.4614C9.71232 22.0033 9.34202 21.633 8.88392 21.633Z" fill="#25232C"/>
<path d="M20.4895 19.832L19.3314 19.4145C18.2735 19.0334 17.4484 18.2075 17.0665 17.1504L16.649 15.9915C16.649 15.9907 16.649 15.9898 16.6482 15.9882C16.5123 15.6154 16.1545 15.3652 15.7585 15.3652C15.7568 15.3652 15.756 15.3652 15.7552 15.3652C15.3575 15.3669 15.0005 15.6196 14.8679 15.9907L14.4496 17.1504C14.0677 18.2075 13.2426 19.0326 12.1856 19.4145L11.0233 19.8328C10.6514 19.9687 10.4004 20.3265 10.4004 20.7233C10.4004 21.1201 10.6514 21.4772 11.0267 21.6139L12.1856 22.0314C13.2426 22.4133 14.0677 23.2383 14.4496 24.2962L14.8663 25.4527C15.0005 25.8271 15.3575 26.0798 15.7552 26.0814H15.7585C16.1553 26.0814 16.5123 25.8312 16.649 25.4551L17.0665 24.2962C17.4484 23.2392 18.2735 22.4133 19.3314 22.0322L20.4903 21.6147C20.8647 21.4797 21.1157 21.121 21.1157 20.7242C21.1149 20.3257 20.8647 19.967 20.4895 19.832ZM15.7577 23.1497C15.2324 22.0968 14.3833 21.2477 13.3304 20.7233C14.3833 20.1981 15.2324 19.349 15.7577 18.2961C16.282 19.349 17.1311 20.1981 18.1849 20.7233C17.1311 21.2477 16.282 22.0968 15.7577 23.1497Z" fill="#347FEF"/>
<path d="M5.22684 6.28668H8.04505C8.50316 6.28668 8.87345 5.91639 8.87345 5.45828C8.87345 5.00018 8.50316 4.62988 8.04505 4.62988H5.22684C4.76873 4.62988 4.39844 5.00018 4.39844 5.45828C4.39844 5.91639 4.76873 6.28668 5.22684 6.28668Z" fill="#25232C"/>
<path d="M14.0228 8.02881H5.22684C4.76873 8.02881 4.39844 8.3991 4.39844 8.85721C4.39844 9.31531 4.76873 9.68561 5.22684 9.68561H14.0228C14.4809 9.68561 14.8512 9.31531 14.8512 8.85721C14.8512 8.3991 14.4809 8.02881 14.0228 8.02881Z" fill="#25232C"/>
<path d="M14.8512 12.2586C14.8512 11.8005 14.4809 11.4302 14.0228 11.4302H5.22684C4.76873 11.4302 4.39844 11.8005 4.39844 12.2586C4.39844 12.7167 4.76873 13.087 5.22684 13.087H14.0228C14.4809 13.087 14.8512 12.7159 14.8512 12.2586Z" fill="#25232C"/>
<path d="M5.22293 14.832C4.76483 14.832 4.39453 15.2023 4.39453 15.6604C4.39453 16.1185 4.76483 16.4888 5.22293 16.4888H12.7862C13.2443 16.4888 13.6146 16.1185 13.6146 15.6604C13.6146 15.2023 13.2443 14.832 12.7862 14.832H5.22293Z" fill="#25232C"/>
</g>
<defs>
<clipPath id="clip0_48_8983">
<rect width="21.207" height="25.1833" fill="white" transform="translate(0.40625 0.916992)"/>
</clipPath>
</defs>
</svg>
