<svg width="23" height="23" viewBox="0 0 23 23" fill="none" xmlns="http://www.w3.org/2000/svg">
<path d="M21.971 8.87344H21.0857V8.82783H11.194V13.2242H17.4054C16.4992 15.7834 14.0642 17.6205 11.194 17.6205C7.55215 17.6205 4.59946 14.6678 4.59946 11.026C4.59946 7.38418 7.55215 4.43149 11.194 4.43149C12.875 4.43149 14.4044 5.06566 15.5689 6.10155L18.6776 2.99279C16.7147 1.16337 14.0889 0.0351562 11.194 0.0351562C5.12427 0.0351562 0.203125 4.9563 0.203125 11.026C0.203125 17.0957 5.12427 22.0168 11.194 22.0168C17.2637 22.0168 22.1848 17.0957 22.1848 11.026C22.1848 10.2891 22.109 9.56971 21.971 8.87344Z" fill="#FFC107"/>
<path d="M1.46875 5.91031L5.07979 8.55855C6.05687 6.13947 8.4232 4.43149 11.1923 4.43149C12.8734 4.43149 14.4028 5.06566 15.5672 6.10155L18.676 2.99279C16.713 1.16337 14.0873 0.0351562 11.1923 0.0351562C6.97076 0.0351562 3.30971 2.41852 1.46875 5.91031Z" fill="#FF3D00"/>
<path d="M11.1908 22.0169C14.0298 22.0169 16.6093 20.9305 18.5596 19.1637L15.158 16.2852C14.0174 17.1526 12.6237 17.6217 11.1908 17.6206C8.33213 17.6206 5.9048 15.7977 4.99036 13.2539L1.40625 16.0154C3.22523 19.5747 6.91925 22.0169 11.1908 22.0169Z" fill="#4CAF50"/>
<path d="M21.9646 8.87374H21.0793V8.82812H11.1875V13.2245H17.399C16.9655 14.4425 16.1847 15.5068 15.153 16.286L15.1546 16.2849L18.5563 19.1634C18.3156 19.3821 22.1783 16.5217 22.1783 11.0263C22.1783 10.2894 22.1025 9.57001 21.9646 8.87374Z" fill="#1976D2"/>
</svg>
