<svg width="143" height="124" viewBox="0 0 143 124" fill="none" xmlns="http://www.w3.org/2000/svg">
<path d="M108.384 77.8137C125.919 73.0011 138.71 63.9704 136.949 57.5918C135.192 51.2541 119.57 49.9728 102.035 54.7854C84.5007 59.598 71.7092 68.6287 73.4708 75.0073C75.2324 81.3859 90.8499 82.6264 108.384 77.8137Z" fill="url(#paint0_linear_30_45187)"/>
<path d="M121.219 73.158C121.532 72.9982 121.85 72.8792 122.162 72.7194C120.907 70.4211 119.929 68.0085 119.128 65.6997C117.64 61.3589 116.669 56.8351 116.479 52.2636C116.474 52.2227 116.47 52.1819 116.46 52.1002C116.093 52.1421 115.725 52.184 115.357 52.2259C115.625 57.1195 116.561 62.0612 118.291 66.7055C119.155 68.8415 120.11 71.0499 121.219 73.158Z" fill="#9D9CA9"/>
<path d="M87.656 63.3325C93.5491 61.6676 99.5613 63.5892 101.103 67.6755C102.645 71.7619 99.0756 76.3895 93.1872 78.0953C87.2941 79.7602 81.2819 77.8386 79.7402 73.7522C78.1985 69.6658 81.763 64.9974 87.656 63.3325Z" fill="url(#paint1_linear_30_45187)"/>
<path d="M88.3027 64.9939C93.1931 63.6089 98.1784 65.2337 99.4729 68.6035C100.727 71.9778 97.8136 75.8272 92.9278 77.2531C88.0373 78.6382 83.052 77.0133 81.7575 73.6436C80.463 70.2739 83.4122 66.379 88.3027 64.9939Z" fill="#27213B"/>
<path d="M39.1249 58.9815L38.1879 74.3575C37.1678 90.8189 48.831 104.924 64.2479 105.856C79.6647 106.789 92.9637 94.2242 93.9885 77.8037L94.9337 62.1371C94.8918 61.7695 94.7682 61.4111 94.5174 61.0259C94.4719 60.9897 94.4217 60.9127 94.417 60.8718C93.9294 60.224 93.1558 59.6087 92.0963 59.026C91.9189 58.9221 91.7415 58.8182 91.5641 58.7143C91.3868 58.6103 91.1686 58.5111 90.9912 58.4072C90.9049 58.3756 90.773 58.3079 90.6866 58.2763C90.6003 58.2448 90.4684 58.1771 90.3821 58.1455C90.2957 58.114 90.1638 58.0463 90.0366 58.0194C89.8184 57.9201 89.6002 57.8209 89.3411 57.7263C88.2594 57.3116 87.0551 56.911 85.7737 56.5605C82.8656 55.7334 79.3494 55.0169 75.525 54.5011C75.1481 54.4613 74.7665 54.3807 74.3487 54.3456C73.5539 54.2706 72.7545 54.1549 71.9597 54.08L63.1683 53.5511C49.7283 53.2624 39.3511 55.5212 39.1249 58.9815Z" fill="url(#paint2_linear_30_45187)"/>
<path opacity="0.2" d="M41.3567 59.7232C41.1398 63.2652 52.4688 66.8152 66.6777 67.6783C80.8867 68.5414 92.5581 66.3833 92.7797 62.8822C92.9966 59.3401 81.6676 55.7901 67.4587 54.927C53.2498 54.064 41.5737 56.1812 41.3567 59.7232Z" fill="url(#paint3_linear_30_45187)"/>
<path d="M68.0858 53.898C56.6696 53.2132 47.2227 55.2832 47.014 58.5346C46.8053 61.786 55.9041 65.0109 67.3658 65.732C78.782 66.4169 88.2289 64.3469 88.4376 61.0955C88.6054 57.8487 79.5066 54.6238 68.0858 53.898Z" fill="url(#paint4_linear_30_45187)"/>
<path d="M84.896 61.2601C85.0632 58.5406 77.501 55.8628 68.0053 55.279C58.5097 54.6953 50.6764 56.4267 50.5092 59.1462C50.3421 61.8658 57.9043 64.5436 67.3999 65.1273C76.8956 65.711 84.7289 63.9796 84.896 61.2601Z" fill="#27213B"/>
<path d="M59.2139 84.9575C57.5557 92.5535 61.7037 99.9015 68.4501 101.367C75.1966 102.832 81.9928 97.837 83.6511 90.2409C85.3093 82.6449 81.1613 75.2969 74.4149 73.8315C67.6275 72.3706 60.8314 77.3661 59.2139 84.9575Z" fill="url(#paint5_linear_30_45187)"/>
<path d="M41.3627 62.2843C43.9465 62.445 45.5985 68.5878 45.1481 76.253C44.767 82.7104 42.9974 87.8777 40.9219 89.2729C40.8169 89.078 40.7528 88.8784 40.6478 88.6835C42.3287 87.4574 44.0725 82.7895 44.4806 76.205C44.9578 68.4125 43.2263 63.0236 41.31 62.911C40.4744 62.8408 39.5101 63.8197 38.6798 65.6109L38.7526 64.0715C39.6119 62.8977 40.4862 62.2187 41.3627 62.2843Z" fill="#9D9CA9"/>
<path d="M37.4869 75.5094C37.1047 81.5945 38.0906 86.6132 39.7163 86.7175C41.3012 86.8265 42.8992 81.9685 43.2767 75.8426C43.659 69.7575 42.6731 64.7388 41.0473 64.6345C39.4671 64.5663 37.8692 69.4244 37.4869 75.5094Z" fill="url(#paint6_linear_30_45187)"/>
<path d="M41.1039 66.5465C39.7895 66.4657 38.4721 70.4971 38.1614 75.5509C37.8507 80.6046 38.6645 84.767 39.9789 84.8478C41.2933 84.9286 42.6107 80.8972 42.9214 75.8435C43.2321 70.7897 42.4184 66.6273 41.1039 66.5465Z" fill="#27213B"/>
<path opacity="0.5" d="M39.046 60.5158C46.2575 64.2455 68.6778 65.9933 76.6789 63.2191C85.2018 60.3027 71.4223 55.5837 71.4223 55.5837L60.2247 53.5498C48.275 53.6292 39.3368 55.8067 39.1235 59.0173L39.046 60.5158Z" fill="#27213B"/>
<path d="M99.8776 33.6389C97.8194 15.5836 81.2344 6.21884 62.3621 8.37014C43.4898 10.5214 29.438 23.3786 31.4961 41.4339C33.5543 59.4892 49.2779 61.2969 68.1501 59.1456C87.0679 57.0305 101.94 51.7351 99.8776 33.6389Z" fill="url(#paint7_linear_30_45187)"/>
<path d="M37.48 49.6146C39.6858 49.3631 40.3339 44.1582 39.7891 39.3788C39.2443 34.5995 37.4822 29.6692 35.2355 29.9253C33.0297 30.1768 32.3816 35.3818 32.9264 40.1611C33.4712 44.9405 35.2741 49.866 37.48 49.6146ZM35.3287 30.7423C36.5541 30.6026 38.3667 34.1616 38.9721 39.4719C39.5774 44.7823 38.6123 48.6579 37.3868 48.7976C36.1614 48.9373 34.3487 45.3784 33.7434 40.068C33.1381 34.7576 34.1032 30.882 35.3287 30.7423Z" fill="#9D9CA9"/>
<path d="M44.3483 36.5401C45.9129 50.2654 57.9283 57.2959 71.6127 55.7359C85.2972 54.176 95.422 44.6217 93.8574 30.8964C92.2929 17.1711 81.2786 18.9232 67.5942 20.4831C53.9506 22.0384 42.7837 22.8148 44.3483 36.5401Z" fill="#E2E3E7"/>
<path d="M44.8048 36.5626C46.3414 50.0429 58.1748 56.9286 71.6141 55.3966C85.0535 53.8646 95.0336 44.4923 93.4969 31.0121C91.9603 17.5319 81.1094 19.2654 67.6701 20.7973C54.1899 22.334 43.2681 23.0824 44.8048 36.5626Z" fill="url(#paint8_linear_30_45187)"/>
<path d="M41.1746 17.0386C45.9273 19.89 49.816 23.8744 51.2534 29.5865C51.4142 30.2716 52.3982 29.8284 52.242 29.1841C50.7953 23.3903 46.8518 19.2881 42.0443 16.3188C41.7408 16.5603 41.4372 16.8018 41.1746 17.0386Z" fill="#9D9CA9"/>
<path d="M86.7692 26.0731C87.997 21.9607 88.793 17.6905 88.0647 13.8425C87.6143 13.5214 87.1277 13.2458 86.6365 12.9294C87.7919 16.8943 87.0647 21.4049 85.7562 25.8989C85.5856 26.5804 86.5939 26.7138 86.7692 26.0731Z" fill="#9D9CA9"/>
<path d="M45.7788 36.7487C47.2409 49.5753 58.4827 55.9905 71.2685 54.533C84.0542 53.0756 93.5638 44.2949 92.1017 31.4682C90.6395 18.6416 80.3151 20.2737 67.5293 21.7312C54.7389 23.1478 44.3166 23.9221 45.7788 36.7487Z" fill="url(#paint9_radial_30_45187)"/>
<path d="M66.0581 42.5821C66.4586 46.0951 69.6439 48.6286 73.157 48.2281C76.67 47.8277 79.2035 44.6423 78.803 41.1293L66.0581 42.5821Z" fill="black"/>
<path d="M66.23 42.6505C66.6258 46.1226 69.761 48.5791 73.1923 48.1879C76.6645 47.7921 79.121 44.6569 78.7298 41.2256L66.23 42.6505Z" fill="#061417"/>
<path d="M66.355 42.6778C66.7415 46.0683 69.7903 48.4932 73.1808 48.1067C76.5713 47.7202 78.9962 44.6713 78.6097 41.2808L66.355 42.6778Z" fill="#0C282D"/>
<path d="M66.4878 42.7442C66.865 46.053 69.8683 48.4417 73.1771 48.0645C76.4859 47.6873 78.8746 44.684 78.4974 41.3752L66.4878 42.7442Z" fill="#133C44"/>
<path d="M66.6206 42.8184C66.9885 46.0455 69.9008 48.3618 73.1279 47.994C76.355 47.6261 78.6713 44.7137 78.3035 41.4867L66.6206 42.8184Z" fill="#19505B"/>
<path d="M66.7495 42.8399C67.1081 45.9853 69.9749 48.2654 73.1203 47.9069C76.2657 47.5483 78.5458 44.6815 78.1873 41.5361L66.7495 42.8399Z" fill="#1F6472"/>
<path d="M66.9214 42.9083C67.2753 46.0128 70.0511 48.2205 73.1557 47.8667C76.2602 47.5128 78.4679 44.7369 78.114 41.6324L66.9214 42.9083Z" fill="#257888"/>
<path d="M67.0503 42.9708C67.3949 45.9936 70.1252 48.1652 73.148 47.8206C76.1709 47.476 78.3424 44.7457 77.9979 41.7228L67.0503 42.9708Z" fill="#2B8C9F"/>
<path d="M67.1792 42.9962C67.5145 45.9373 70.1538 48.0365 73.0949 47.7012C76.0361 47.3659 78.1352 44.7266 77.8 41.7855L67.1792 42.9962Z" fill="#31A0B6"/>
<path d="M67.312 43.0645C67.638 45.924 70.2318 47.9869 73.0912 47.661C75.9507 47.335 78.0136 44.7412 77.6877 41.8818L67.312 43.0645Z" fill="#38B4CD"/>
<path d="M67.48 43.086C67.7966 45.8637 70.3449 47.8905 73.1227 47.5739C75.9004 47.2572 77.9272 44.7089 77.6106 41.9312L67.48 43.086Z" fill="#3EC8E3"/>
<path d="M67.6128 43.1583C67.9248 45.8952 70.3821 47.8496 73.119 47.5376C75.8559 47.2256 77.8103 44.7683 77.4983 42.0314L67.6128 43.1583Z" fill="#44DCFA"/>
<path d="M69.0015 37.9476C68.5079 33.6176 64.5944 30.505 60.2644 30.9986C55.9344 31.4922 52.8218 35.4057 53.3154 39.7357L69.0015 37.9476Z" fill="black"/>
<path d="M68.8319 37.8839C68.3476 33.6356 64.5251 30.5954 60.2768 31.0797C56.0285 31.564 52.9883 35.3865 53.4726 39.6348L68.8319 37.8839Z" fill="#061417"/>
<path d="M68.6583 37.8203C68.1833 33.6537 64.4519 30.6859 60.2853 31.1608C56.1187 31.6358 53.1509 35.3673 53.6258 39.5339L68.6583 37.8203Z" fill="#0C282D"/>
<path d="M68.4848 37.7625C68.0238 33.7184 64.3378 30.7868 60.2938 31.2478C56.2497 31.7088 53.3181 35.3948 53.7791 39.4388L68.4848 37.7625Z" fill="#133C44"/>
<path d="M68.3112 37.6949C67.8596 33.7326 64.2646 30.8734 60.3022 31.325C56.3399 31.7767 53.4807 35.3717 53.9323 39.334L68.3112 37.6949Z" fill="#19505B"/>
<path d="M68.1416 37.6372C67.6992 33.7565 64.1953 30.9697 60.3146 31.412C56.4339 31.8544 53.6471 35.3583 54.0895 39.239L68.1416 37.6372Z" fill="#1F6472"/>
<path d="M67.9681 37.5678C67.535 33.7688 64.1221 31.0544 60.3231 31.4874C56.5241 31.9205 53.8097 35.3334 54.2427 39.1324L67.9681 37.5678Z" fill="#257888"/>
<path d="M67.7945 37.5099C67.3708 33.7926 64.008 31.1552 60.3316 31.5743C56.6143 31.998 53.9769 35.3608 54.396 39.0372L67.7945 37.5099Z" fill="#2B8C9F"/>
<path d="M67.621 37.4404C67.2112 33.8456 63.9348 31.2398 60.3401 31.6496C56.7453 32.0593 54.1395 35.3357 54.5492 38.9305L67.621 37.4404Z" fill="#31A0B6"/>
<path d="M67.4513 37.3826C67.0509 33.8696 63.8655 31.3361 60.3524 31.7365C56.8394 32.137 54.3059 35.3224 54.7064 38.8354L67.4513 37.3826Z" fill="#38B4CD"/>
<path d="M67.2778 37.315C66.8866 33.8837 63.7922 31.4226 60.3609 31.8138C56.9296 32.2049 54.4685 35.2993 54.8596 38.7306L67.2778 37.315Z" fill="#3EC8E3"/>
<path d="M67.1042 37.2514C66.7224 33.9018 63.719 31.513 60.3694 31.8949C57.0198 32.2767 54.6311 35.2801 55.0129 38.6297L67.1042 37.2514Z" fill="#44DCFA"/>
<path d="M89.9203 35.5608C89.4267 31.2308 86.0034 28.0624 82.2453 28.4908C78.4872 28.9192 75.8648 32.7768 76.3584 37.1068L89.9203 35.5608Z" fill="black"/>
<path d="M89.7503 35.4976C89.2661 31.2493 85.8929 28.1579 82.2165 28.577C78.5401 28.9961 75.9493 32.7673 76.4335 37.0156L89.7503 35.4976Z" fill="#061417"/>
<path d="M89.6159 35.4242C89.1409 31.2576 85.8588 28.2386 82.2641 28.6483C78.6693 29.0581 76.1509 32.7384 76.6258 36.905L89.6159 35.4242Z" fill="#0C282D"/>
<path d="M89.4459 35.3669C88.9849 31.3228 85.7483 28.34 82.2353 28.7404C78.7222 29.1409 76.24 32.7756 76.701 36.8197L89.4459 35.3669Z" fill="#133C44"/>
<path d="M89.3153 35.3052C88.8636 31.3428 85.718 28.4324 82.2867 28.8235C78.8554 29.2147 76.4455 32.7584 76.8972 36.7208L89.3153 35.3052Z" fill="#19505B"/>
<path d="M89.1805 35.2322C88.7381 31.3516 85.6427 28.5182 82.2931 28.9C78.9434 29.2818 76.5651 32.7392 77.0075 36.6199L89.1805 35.2322Z" fill="#1F6472"/>
<path d="M89.0066 35.169C88.5736 31.3701 85.5691 28.609 82.2604 28.9862C78.9516 29.3634 76.6456 32.7298 77.0787 36.5287L89.0066 35.169Z" fill="#257888"/>
<path d="M88.876 35.1015C88.4523 31.3842 85.498 28.7002 82.3118 29.0634C79.1256 29.4267 76.8558 32.7475 77.2749 36.4239L88.876 35.1015Z" fill="#2B8C9F"/>
<path d="M88.7022 35.0383C88.2924 31.4436 85.4245 28.7911 82.2791 29.1497C79.1337 29.5082 76.9363 32.7381 77.3461 36.3328L88.7022 35.0383Z" fill="#31A0B6"/>
<path d="M88.5716 34.9707C88.1711 31.4577 85.3534 28.8823 82.3305 29.2269C79.2669 29.5761 77.1419 32.715 77.5423 36.228L88.5716 34.9707Z" fill="#38B4CD"/>
<path d="M88.3977 34.9075C88.0066 31.4762 85.2798 28.9732 82.2979 29.3131C79.3159 29.6531 77.2224 32.7055 77.6136 36.1369L88.3977 34.9075Z" fill="#3EC8E3"/>
<path d="M88.2671 34.8341C87.8853 31.4845 85.2496 29.0539 82.3493 29.3845C79.449 29.7151 77.4279 32.6766 77.8098 36.0262L88.2671 34.8341Z" fill="#44DCFA"/>
<path opacity="0.2" d="M49.2925 46.1544C53.8329 52.5886 62.2 55.5659 71.3093 54.5275C80.1328 53.5217 87.398 49.0107 90.5838 42.1095C89.4876 43.0207 84.3226 45.2647 79.0273 46.3649C65.9318 49.099 51.4513 46.9428 49.2925 46.1544Z" fill="url(#paint10_linear_30_45187)"/>
<path opacity="0.5" d="M49.4207 32.7743C49.7654 31.0798 50.4453 29.0575 51.8367 28.1954C52.6479 27.6891 53.8455 27.3043 55.0932 26.9966C54.8348 28.7226 54.6172 30.444 54.4813 32.1561C52.7703 32.3925 51.0955 32.5834 49.4207 32.7743Z" fill="url(#paint11_linear_30_45187)"/>
<path opacity="0.5" d="M54.3913 32.8253C54.3432 33.4929 54.2998 34.2013 54.2518 34.8688L49.1456 35.4509C49.1456 35.4509 49.1704 34.5791 49.3306 33.4436C51.0054 33.2526 52.6756 33.0209 54.3913 32.8253Z" fill="url(#paint12_linear_30_45187)"/>
<path opacity="0.5" d="M55.3373 32.0605C55.2148 32.0745 55.1331 32.0838 55.0105 32.0978C55.1826 30.3402 55.4001 28.6188 55.6586 26.8928C58.2496 26.3905 60.9643 26.2466 60.9643 26.2466L61.2511 31.3036C59.2997 31.6088 57.3343 31.7915 55.3373 32.0605Z" fill="url(#paint13_linear_30_45187)"/>
<path d="M29.986 59.4351L24.2422 89.6351L41.7498 92.936L47.4527 62.7406L29.986 59.4351Z" fill="url(#paint14_radial_30_45187)"/>
<path d="M15.4175 87.0057C13.1691 93.0552 6.48881 121.21 16.7949 122.684C25.1251 123.886 32.4051 100.628 34.8204 94.2285C37.1903 87.7927 46.8929 65.4588 39.838 60.925C31.0457 55.3065 17.6612 80.9153 15.4175 87.0057Z" fill="url(#paint15_linear_30_45187)"/>
<path d="M12.0159 101.415C11.9715 101.751 11.8908 102.133 11.851 102.509C14.135 102.58 16.3967 102.819 18.3958 103.294C22.3939 104.246 26.1072 105.602 29.7538 107.462C29.8846 107.157 30.0154 106.853 30.1462 106.548C26.118 104.607 22.2998 103.056 18.0157 102.138C16.1847 101.684 14.091 101.468 12.0159 101.415Z" fill="#9D9CA9"/>
<defs>
<linearGradient id="paint0_linear_30_45187" x1="104.386" y1="48.6884" x2="107.17" y2="75.0581" gradientUnits="userSpaceOnUse">
<stop stop-color="#E3E4E8"/>
<stop offset="1" stop-color="#9E9EAB"/>
</linearGradient>
<linearGradient id="paint1_linear_30_45187" x1="97.4247" y1="68.3726" x2="81.4269" y2="74.1776" gradientUnits="userSpaceOnUse">
<stop stop-color="#E3E4E8"/>
<stop offset="1" stop-color="#9E9EAB"/>
</linearGradient>
<linearGradient id="paint2_linear_30_45187" x1="83.955" y1="63.8092" x2="41.615" y2="91.7206" gradientUnits="userSpaceOnUse">
<stop stop-color="#E3E4E8"/>
<stop offset="1" stop-color="#9E9EAB"/>
</linearGradient>
<linearGradient id="paint3_linear_30_45187" x1="66.8024" y1="68.7587" x2="67.4608" y2="49.6139" gradientUnits="userSpaceOnUse">
<stop stop-color="white"/>
<stop offset="1"/>
</linearGradient>
<linearGradient id="paint4_linear_30_45187" x1="53.917" y1="58.9821" x2="85.7439" y2="60.9386" gradientUnits="userSpaceOnUse">
<stop stop-color="#E3E4E8"/>
<stop offset="1" stop-color="#9E9EAB"/>
</linearGradient>
<linearGradient id="paint5_linear_30_45187" x1="70.6951" y1="99.2607" x2="72.6071" y2="68.1577" gradientUnits="userSpaceOnUse">
<stop stop-color="#E3E4E8"/>
<stop offset="1" stop-color="#9E9EAB"/>
</linearGradient>
<linearGradient id="paint6_linear_30_45187" x1="39.9266" y1="83.0395" x2="40.9693" y2="66.0763" gradientUnits="userSpaceOnUse">
<stop stop-color="#E3E4E8"/>
<stop offset="1" stop-color="#9E9EAB"/>
</linearGradient>
<linearGradient id="paint7_linear_30_45187" x1="63.272" y1="16.1483" x2="68.7681" y2="64.362" gradientUnits="userSpaceOnUse">
<stop stop-color="#E3E4E8"/>
<stop offset="1" stop-color="#9E9EAB"/>
</linearGradient>
<linearGradient id="paint8_linear_30_45187" x1="71.3751" y1="53.5811" x2="67.9239" y2="23.3055" gradientUnits="userSpaceOnUse">
<stop stop-color="#E3E4E8"/>
<stop offset="1" stop-color="#9E9EAB"/>
</linearGradient>
<radialGradient id="paint9_radial_30_45187" cx="0" cy="0" r="1" gradientUnits="userSpaceOnUse" gradientTransform="translate(73.931 24.9709) rotate(173.497) scale(30.4477 30.5321)">
<stop stop-color="#4D4178"/>
<stop offset="1" stop-color="#27213B"/>
</radialGradient>
<linearGradient id="paint10_linear_30_45187" x1="69.7471" y1="42.5813" x2="70.8819" y2="52.5358" gradientUnits="userSpaceOnUse">
<stop stop-color="white"/>
<stop offset="1"/>
</linearGradient>
<linearGradient id="paint11_linear_30_45187" x1="51.9696" y1="27.5294" x2="53.1137" y2="37.5667" gradientUnits="userSpaceOnUse">
<stop stop-color="white"/>
<stop offset="1"/>
</linearGradient>
<linearGradient id="paint12_linear_30_45187" x1="51.0021" y1="27.6367" x2="52.1463" y2="37.6738" gradientUnits="userSpaceOnUse">
<stop stop-color="white"/>
<stop offset="1"/>
</linearGradient>
<linearGradient id="paint13_linear_30_45187" x1="57.7335" y1="26.8744" x2="58.8776" y2="36.9117" gradientUnits="userSpaceOnUse">
<stop stop-color="white"/>
<stop offset="1"/>
</linearGradient>
<radialGradient id="paint14_radial_30_45187" cx="0" cy="0" r="1" gradientUnits="userSpaceOnUse" gradientTransform="translate(35.8069 76.0458) rotate(-79.2662) scale(15.3675 8.90115)">
<stop stop-color="#44DCFA"/>
<stop offset="0.4439" stop-color="#4CAAE5"/>
<stop offset="1"/>
</radialGradient>
<linearGradient id="paint15_linear_30_45187" x1="33.4548" y1="88.4299" x2="3.69383" y2="112.195" gradientUnits="userSpaceOnUse">
<stop stop-color="#E3E4E8"/>
<stop offset="1" stop-color="#9E9EAB"/>
</linearGradient>
</defs>
</svg>
