<svg width="139" height="129" viewBox="0 0 139 129" fill="none" xmlns="http://www.w3.org/2000/svg">
<path d="M34.012 83.4791C16.2183 72.5073 5.04056 58.3976 9.03733 51.9794C13.0005 45.5161 30.6489 49.2228 48.409 60.1495C66.2027 71.1213 77.3805 85.2309 73.3837 91.6492C69.4206 98.1125 51.7664 94.4452 34.012 83.4791Z" fill="url(#paint0_linear_30_45109)"/>
<path d="M21.3174 74.2173C20.9916 73.9684 20.7109 73.6859 20.4245 73.4428C22.549 71.2985 24.4149 68.9957 26.0386 66.6976C29.0824 62.3938 31.6206 57.6941 33.315 52.71C33.3208 52.6706 33.3717 52.5976 33.3775 52.5582C33.76 52.6946 34.1367 52.8704 34.5586 53.0126C32.6941 58.3339 30.0474 63.5007 26.6481 68.0343C25.0531 70.1353 23.2554 72.2469 21.3174 74.2173Z" fill="#9D9CA9"/>
<path d="M61.5245 74.2168C55.556 70.4467 48.3188 70.6766 45.3211 74.6652C42.3234 78.6539 44.747 84.924 50.676 88.6883C56.6445 92.4584 63.8818 92.2285 66.8795 88.2399C69.9166 84.257 67.4929 77.9868 61.5245 74.2168Z" fill="url(#paint1_linear_30_45109)"/>
<path d="M60.2773 75.8868C55.3372 72.7903 49.3165 72.9565 46.8223 76.2541C44.328 79.5517 46.3383 84.7956 51.2784 87.8922C56.2184 90.9887 62.2391 90.8225 64.7333 87.5249C67.2276 84.2273 65.2567 78.9891 60.2773 75.8868Z" fill="#27213B"/>
<path d="M116.034 69.9533L116.545 87.6549C117.12 106.573 103.181 122.364 85.4795 122.875C67.7385 123.38 52.931 108.499 52.3562 89.5803L51.8123 71.552C51.8757 71.1185 52.0572 70.7024 52.357 70.3035C52.4079 70.2305 52.4531 70.1968 52.504 70.1238C53.092 69.4049 53.9953 68.732 55.2531 68.111C55.4674 68.0216 55.6875 67.8928 55.9018 67.8034C56.116 67.714 56.3361 67.5852 56.5898 67.5015C56.7195 67.44 56.8435 67.4179 56.9732 67.3563C57.1029 67.2948 57.2269 67.2727 57.3566 67.2112C57.4864 67.1496 57.6103 67.1275 57.7401 67.066C57.9938 66.9824 58.2532 66.8593 58.5463 66.7814C59.7754 66.3574 61.2072 65.9228 62.712 65.5392C66.0937 64.7054 70.1394 64.009 74.5503 63.5672C75.0011 63.5124 75.446 63.4969 75.8967 63.4421C76.7923 63.3718 77.7331 63.2679 78.6624 63.2427L88.8058 62.9547C104.09 63.0158 115.895 65.9488 116.034 69.9533Z" fill="url(#paint2_linear_30_45109)"/>
<path opacity="0.2" d="M113.432 70.7029C113.565 74.7468 100.431 78.4208 84.0982 78.9308C67.7708 79.4014 54.4278 76.5253 54.2945 72.4814C54.1613 68.4375 67.2947 64.7635 83.6278 64.2535C99.9946 63.7887 113.338 66.6648 113.432 70.7029Z" fill="url(#paint3_linear_30_45109)"/>
<path d="M82.9536 63.0692C96.0934 62.6558 106.88 65.3997 106.975 69.1562C107.07 72.9128 96.5164 76.2799 83.3373 76.6875C70.1976 77.1009 59.4108 74.357 59.316 70.6004C59.2213 66.8439 69.8139 63.4825 82.9536 63.0692Z" fill="url(#paint4_linear_30_45109)"/>
<path d="M102.946 69.7186C102.853 66.5972 93.9216 64.3303 82.9967 64.6554C72.0718 64.9804 63.2907 67.7743 63.3836 70.8957C63.4765 74.0171 72.4082 76.284 83.3331 75.959C94.258 75.6339 103.039 72.84 102.946 69.7186Z" fill="#27213B"/>
<path d="M92.0222 99.0421C93.6323 107.849 88.599 116.128 80.8285 117.528C73.0581 118.927 65.396 112.978 63.7859 104.171C62.1758 95.3633 67.2092 87.0844 74.9796 85.6849C82.7501 84.2854 90.4515 90.2405 92.0222 99.0421Z" fill="url(#paint5_linear_30_45109)"/>
<path opacity="0.4" d="M76.6846 98.2487C76.6846 98.2487 82.8826 107.606 92.1504 113.307C95.7641 115.566 98.8117 117.017 101.213 117.932C106.152 114.71 110.204 110.111 112.897 104.629L76.6846 98.2487Z" fill="#27213B"/>
<path d="M113.315 73.6677C110.325 73.7537 108.213 80.7693 108.454 89.5778C108.661 96.9727 110.517 102.999 112.843 104.707C112.956 104.482 113.069 104.257 113.183 104.033C111.307 102.551 109.443 97.1273 109.22 89.5691C108.962 80.5972 111.139 74.5166 113.324 74.4336C114.293 74.4142 115.331 75.5721 116.236 77.6362L116.169 75.8958C115.335 74.4458 114.363 73.6598 113.315 73.6677Z" fill="#9D9CA9"/>
<path d="M117.318 88.9749C117.543 95.97 116.218 101.732 114.359 101.783C112.54 101.839 110.869 96.2016 110.65 89.1671C110.425 82.172 111.75 76.4097 113.609 76.3594C115.461 76.3485 117.093 81.9798 117.318 88.9749Z" fill="url(#paint6_linear_30_45109)"/>
<path d="M114.094 99.6231C115.61 99.578 116.699 94.8192 116.526 88.994C116.353 83.1688 114.983 78.4832 113.466 78.5283C111.949 78.5735 110.86 83.3323 111.034 89.1574C111.207 94.9826 112.577 99.6682 114.094 99.6231Z" fill="#27213B"/>
<path opacity="0.4" d="M116.059 71.7268C107.627 75.7259 81.8584 76.9091 72.7466 73.4442C63.061 69.7747 79.0312 64.8653 79.0312 64.8653L91.99 62.9365C105.718 63.4542 115.891 66.2693 115.991 69.9864L116.059 71.7268Z" fill="#27213B"/>
<path d="M47.1615 38.6789C50.1796 18.0322 69.5345 7.86272 91.1662 11.0249C112.798 14.187 128.438 29.4318 125.414 50.1179C122.396 70.7646 104.302 72.305 82.6705 69.1429C61.0388 65.9807 44.1433 59.3256 47.1615 38.6789Z" fill="url(#paint7_linear_30_45109)"/>
<path d="M118.13 59.1946C115.687 58.8375 115.239 52.8159 116.045 47.2996C116.852 41.7833 119.004 36.1419 121.447 36.499C123.89 36.8561 124.338 42.8777 123.532 48.394C122.725 53.9103 120.533 59.546 118.13 59.1946ZM121.315 37.4053C120.133 37.2325 117.896 40.9702 116.952 47.4321C116.007 53.894 117.08 58.1156 118.262 58.2884C119.444 58.4612 121.681 54.7235 122.625 48.2615C123.57 41.7996 122.497 37.5781 121.315 37.4053Z" fill="#9D9CA9"/>
<path d="M110.859 43.9591C108.567 59.6411 94.4912 67.2823 78.8486 64.9956C63.206 62.709 51.9066 51.3584 54.199 35.6764C56.4914 19.9944 69.0983 22.4007 84.7409 24.6873C100.383 26.974 113.152 28.277 110.859 43.9591Z" fill="#E2E3E7"/>
<path d="M110.37 44.0137C108.118 59.4199 94.3075 66.8987 78.9013 64.6466C63.4951 62.3945 52.4034 51.2755 54.6555 35.8693C56.9076 20.4631 69.2837 22.7954 84.69 25.0475C100.096 27.2996 112.622 28.6075 110.37 44.0137Z" fill="url(#paint8_linear_30_45109)"/>
<path d="M115.203 21.7004C109.673 24.836 105.047 29.2305 103.173 35.7176C102.94 36.4883 101.849 35.9667 102.037 35.2295C103.928 28.6243 108.578 24.0722 114.203 20.8299C114.563 21.1239 114.922 21.4179 115.203 21.7004Z" fill="#9D9CA9"/>
<path d="M62.4982 30.416C61.2578 25.6871 60.4968 20.7064 61.4571 16.3394C61.9876 16.0145 62.5574 15.6954 63.0878 15.3705C61.6201 19.9047 62.2734 25.071 63.6475 30.2621C63.8533 31.0568 62.7098 31.1713 62.4982 30.416Z" fill="#9D9CA9"/>
<path d="M109.181 44.1591C107.033 58.856 93.9054 65.7908 79.2478 63.6481C64.5903 61.5055 54.0032 51.0639 56.1459 36.4063C58.2943 21.7094 70.0794 23.9553 84.737 26.098C99.3945 28.2406 111.329 29.4621 109.181 44.1591Z" fill="url(#paint9_radial_30_45109)"/>
<path d="M91.7941 50.2325C95.9069 50.8337 99.7775 47.6518 100.439 43.1255C101.101 38.5991 98.303 34.4425 94.1902 33.8412C90.0773 33.24 86.2068 36.4219 85.5451 40.9482C84.8835 45.4746 87.6812 49.6313 91.7941 50.2325Z" fill="black"/>
<path d="M91.8269 50.0322C95.8527 50.6207 99.6397 47.5167 100.285 43.0992C100.931 38.6817 98.1912 34.6235 94.1654 34.035C90.1395 33.4465 86.3525 36.5505 85.7067 40.968C85.061 45.3855 87.8011 49.4437 91.8269 50.0322Z" fill="#061417"/>
<path d="M91.8518 49.8359C95.7906 50.4117 99.4942 47.3855 100.124 43.0768C100.754 38.7681 98.0715 34.8084 94.1327 34.2327C90.194 33.6569 86.4904 36.683 85.8605 40.9917C85.2307 45.3004 87.9131 49.2601 91.8518 49.8359Z" fill="#0C282D"/>
<path d="M91.8767 49.6813C95.7067 50.2412 99.3117 47.2727 99.9289 43.051C100.546 38.8294 97.9415 34.9532 94.1115 34.3933C90.2815 33.8334 86.6765 36.8019 86.0594 41.0236C85.4422 45.2452 88.0467 49.1214 91.8767 49.6813Z" fill="#133C44"/>
<path d="M91.9017 49.483C95.6446 50.0301 99.1662 47.1395 99.7675 43.0267C100.369 38.9138 97.8219 35.1362 94.0789 34.589C90.336 34.0419 86.8144 36.9324 86.2132 41.0453C85.6119 45.1582 88.1588 48.9359 91.9017 49.483Z" fill="#19505B"/>
<path d="M91.9269 49.3264C95.5828 49.8608 99.0235 47.0305 99.612 43.0046C100.2 38.9788 97.7139 35.282 94.058 34.7476C90.4022 34.2132 86.9614 37.0435 86.3729 41.0693C85.7844 45.0952 88.271 48.792 91.9269 49.3264Z" fill="#1F6472"/>
<path d="M91.9597 49.132C95.5285 49.6537 98.8858 46.9012 99.4584 42.9842C100.031 39.0672 97.6021 35.4689 94.0332 34.9472C90.4644 34.4255 87.1071 37.178 86.5345 41.095C85.9619 45.012 88.3909 48.6103 91.9597 49.132Z" fill="#257888"/>
<path d="M91.9771 48.9715C95.4589 49.4804 98.7353 46.7882 99.2951 42.9583C99.855 39.1283 97.4863 35.6109 94.0045 35.1019C90.5227 34.593 87.2463 37.2851 86.6865 41.1151C86.1266 44.9451 88.4953 48.4625 91.9771 48.9715Z" fill="#2B8C9F"/>
<path d="M92.0056 48.7732C95.3786 49.2663 98.5539 46.6494 99.0979 42.9283C99.6418 39.2071 97.3485 35.7908 93.9755 35.2977C90.6025 34.8047 87.4272 37.4216 86.8832 41.1427C86.3393 44.8639 88.6326 48.2802 92.0056 48.7732Z" fill="#31A0B6"/>
<path d="M92.0306 48.5769C95.3165 49.0572 98.4084 46.5182 98.9364 42.9059C99.4645 39.2935 97.2288 35.9757 93.9429 35.4954C90.6569 35.0151 87.5651 37.5541 87.037 41.1664C86.509 44.7788 88.7447 48.0966 92.0306 48.5769Z" fill="#38B4CD"/>
<path d="M92.0636 48.4222C95.2625 48.8898 98.2735 46.4111 98.7888 42.8858C99.3042 39.3605 97.1287 36.1236 93.9298 35.656C90.7309 35.1883 87.7199 37.6671 87.2046 41.1924C86.6893 44.7177 88.8648 47.9546 92.0636 48.4222Z" fill="#3EC8E3"/>
<path d="M92.0925 48.222C95.2044 48.6768 98.1319 46.276 98.6313 42.8595C99.1307 39.443 97.013 36.3046 93.9011 35.8497C90.7893 35.3948 87.8617 37.7957 87.3623 41.2122C86.8629 44.6287 88.9807 47.7671 92.0925 48.222Z" fill="#44DCFA"/>
<path d="M65.8527 47.086C69.9655 47.6872 73.836 44.5053 74.4977 39.979C75.1593 35.4527 72.3616 31.296 68.2488 30.6947C64.1359 30.0935 60.2654 33.2754 59.6037 37.8018C58.9421 42.3281 61.7398 46.4848 65.8527 47.086Z" fill="black"/>
<path d="M65.8739 46.9255C69.8998 47.514 73.6894 44.3923 74.3383 39.953C74.9873 35.5138 72.2498 31.4379 68.224 30.8494C64.1981 30.2609 60.4085 33.3826 59.7596 37.8219C59.1106 42.2612 61.8481 46.337 65.8739 46.9255Z" fill="#061417"/>
<path d="M65.8995 46.7649C69.86 47.3438 73.5864 44.285 74.2226 39.9327C74.8588 35.5805 72.164 31.583 68.2034 31.004C64.2429 30.4251 60.5165 33.4839 59.8803 37.8362C59.244 42.1884 61.939 46.1859 65.8995 46.7649Z" fill="#0C282D"/>
<path d="M65.9247 46.6102C69.7982 47.1764 73.4437 44.1778 74.0671 39.9127C74.6906 35.6475 72.056 31.7308 68.1825 31.1646C64.309 30.5984 60.6635 33.597 60.04 37.8622C59.4165 42.1273 62.0512 46.044 65.9247 46.6102Z" fill="#133C44"/>
<path d="M65.946 46.4536C69.7324 47.0071 73.297 44.0687 73.9078 39.8906C74.5185 35.7125 71.9442 31.8767 68.1577 31.3232C64.3713 30.7697 60.8066 33.708 60.1959 37.8862C59.5851 42.0643 62.1595 45.9001 65.946 46.4536Z" fill="#19505B"/>
<path d="M65.9676 46.293C69.6888 46.8369 73.1902 43.9614 73.7882 39.8703C74.3862 35.7792 71.8545 32.0218 68.1333 31.4778C64.4121 30.9338 60.9107 33.8093 60.3127 37.9004C59.7146 41.9915 62.2464 45.749 65.9676 46.293Z" fill="#1F6472"/>
<path d="M65.9889 46.1363C69.623 46.6676 73.0435 43.8523 73.6288 39.8483C74.2141 35.8442 71.7426 32.1676 68.1085 31.6364C64.4744 31.1052 61.0538 33.9204 60.4685 37.9245C59.8832 41.9285 62.3548 45.6051 65.9889 46.1363Z" fill="#257888"/>
<path d="M66.0144 45.9816C69.5832 46.5033 72.9405 43.7508 73.5131 39.8338C74.0856 35.9168 71.6568 32.3185 68.0879 31.7968C64.5191 31.2752 61.1618 34.0276 60.5892 37.9446C60.0166 41.8616 62.4456 45.4599 66.0144 45.9816Z" fill="#2B8C9F"/>
<path d="M66.0357 45.8191C69.5174 46.3281 72.7938 43.6359 73.3537 39.8059C73.9136 35.976 71.5449 32.4586 68.0631 31.9496C64.5813 31.4406 61.3049 34.1328 60.7451 37.9628C60.1852 41.7928 62.5539 45.3101 66.0357 45.8191Z" fill="#31A0B6"/>
<path d="M66.057 45.6645C69.4517 46.1607 72.6472 43.5288 73.1944 39.7858C73.7415 36.0429 71.4331 32.6064 68.0384 32.1101C64.6436 31.6139 61.4481 34.2458 60.9009 37.9888C60.3538 41.7317 62.6622 45.1682 66.057 45.6645Z" fill="#38B4CD"/>
<path d="M66.0864 45.5058C69.4159 45.9925 72.5481 43.4234 73.0825 39.7675C73.617 36.1116 71.3512 32.7534 68.0217 32.2667C64.6922 31.78 61.5599 34.3491 61.0255 38.005C60.4911 41.6609 62.7569 45.0191 66.0864 45.5058Z" fill="#3EC8E3"/>
<path d="M66.1038 45.3492C69.3462 45.8231 72.3975 43.3143 72.9192 39.7454C73.4409 36.1766 71.2354 32.8993 67.993 32.4253C64.7506 31.9513 61.6992 34.4602 61.1775 38.029C60.6558 41.5979 62.8614 44.8752 66.1038 45.3492Z" fill="#44DCFA"/>
<path d="M85.5193 49.6742C84.9202 53.772 81.1267 56.5979 77.0289 55.9989C72.931 55.3999 70.1051 51.6063 70.7041 47.5085L85.5193 49.6742Z" fill="black"/>
<path d="M85.3525 49.7297C84.765 53.7487 81.0617 56.5073 77.0427 55.9198C73.0237 55.3323 70.265 51.6291 70.8525 47.61L85.3525 49.7297Z" fill="#061417"/>
<path d="M85.1779 49.7871C84.6019 53.7273 80.9496 56.4129 77.0488 55.8427C73.148 55.2725 70.4229 51.6144 70.9932 47.7136L85.1779 49.7871Z" fill="#0C282D"/>
<path d="M85.0112 49.8426C84.4525 53.6646 80.8847 56.3223 77.0627 55.7636C73.2407 55.2049 70.5829 51.6371 71.1416 47.8151L85.0112 49.8426Z" fill="#133C44"/>
<path d="M84.8405 49.8942C84.2933 53.6374 80.8158 56.2278 77.0726 55.6806C73.3294 55.1335 70.7389 51.656 71.2861 47.9128L84.8405 49.8942Z" fill="#19505B"/>
<path d="M84.7095 49.9553C84.1738 53.6197 80.7809 56.1823 77.0771 55.6409C73.4128 55.1052 70.8502 51.7123 71.3916 48.0085L84.7095 49.9553Z" fill="#1F6472"/>
<path d="M84.5427 50.0147C84.0186 53.6003 80.6766 56.0898 77.091 55.5657C73.5054 55.0415 71.0159 51.6995 71.54 48.114L84.5427 50.0147Z" fill="#257888"/>
<path d="M84.376 50.0292C83.8633 53.536 80.6117 55.9582 77.1049 55.4456C73.5981 54.933 71.1759 51.6813 71.6885 48.1745L84.376 50.0292Z" fill="#2B8C9F"/>
<path d="M84.2131 50.0827C83.712 53.5107 80.5507 55.8656 77.1227 55.3645C73.6947 54.8634 71.3397 51.7021 71.8408 48.2741L84.2131 50.0827Z" fill="#31A0B6"/>
<path d="M84.0424 50.1382C83.5528 53.4874 80.4424 55.7693 77.1326 55.2854C73.7835 54.7959 71.5015 51.6854 71.9854 48.3757L84.0424 50.1382Z" fill="#38B4CD"/>
<path d="M83.8756 50.1956C83.4033 53.4266 80.3775 55.6806 77.1465 55.2083C73.9155 54.736 71.6615 51.7102 72.1338 48.4792L83.8756 50.1956Z" fill="#3EC8E3"/>
<path d="M83.701 50.2531C83.2402 53.4052 80.3047 55.592 77.1525 55.1312C74.0004 54.6704 71.8136 51.7349 72.2744 48.5827L83.701 50.2531Z" fill="#44DCFA"/>
<path opacity="0.2" d="M104.845 54.8366C99.3645 62.044 89.6905 65.1775 79.249 63.6511C69.1227 62.1708 60.9408 56.7492 57.5712 48.6907C58.7784 49.7928 64.6544 52.5432 70.6811 53.9876C85.6041 57.6179 102.308 55.6731 104.845 54.8366Z" fill="url(#paint10_linear_30_45109)"/>
<path opacity="0.5" d="M105.149 39.5091C104.829 37.5708 104.127 35.2146 102.554 34.1394C101.638 33.5226 100.299 33.0452 98.8643 32.6745C99.1 34.6407 99.2906 36.6405 99.4024 38.6288C101.333 38.911 103.264 39.1933 105.149 39.5091Z" fill="url(#paint11_linear_30_45109)"/>
<path opacity="0.5" d="M99.4658 39.3581C99.514 40.1298 99.5564 40.9409 99.5652 41.7068L105.436 42.565C105.436 42.565 105.462 41.5627 105.292 40.25C103.361 39.9677 101.436 39.6461 99.4658 39.3581Z" fill="url(#paint12_linear_30_45109)"/>
<path opacity="0.5" d="M98.3859 38.44C98.5041 38.4573 98.6223 38.4746 98.7405 38.4919C98.6287 36.5036 98.4439 34.4644 98.2081 32.4982C95.2481 31.824 92.146 31.5718 92.146 31.5718L91.6203 37.3705C93.8547 37.7777 96.1457 38.0723 98.3859 38.44Z" fill="url(#paint13_linear_30_45109)"/>
<path d="M101.932 106.689C97.4749 102.215 97.5661 94.984 102.114 90.5781C110.034 82.9224 120.836 73.9978 126.462 77.6372C133.261 82.052 126.117 95.4149 119.163 105.264C115.113 110.95 106.883 111.639 101.932 106.689Z" fill="url(#paint14_linear_30_45109)"/>
<path d="M118.232 103.392C116.556 111.277 108.042 116.109 100.33 113.533C87.0991 109.063 71.4009 101.376 75.2301 92.8001C78.407 85.6584 94.825 86.7706 107.597 88.5973C114.937 89.5899 119.714 96.2844 118.232 103.392Z" fill="url(#paint15_linear_30_45109)"/>
<path d="M96.2351 112.049C95.7796 111.862 95.3183 111.714 94.9021 111.532C96.4538 108.902 97.7862 106.118 98.6901 103.514C100.453 98.3386 101.607 93.1951 102.069 87.8297C102.509 87.8537 102.981 87.9228 103.415 87.9862C102.759 93.8465 101.773 99.2158 99.7676 104.677C98.9319 107.091 97.634 109.638 96.2351 112.049Z" fill="#9D9CA9"/>
<defs>
<linearGradient id="paint0_linear_30_45109" x1="47.8189" y1="52.6798" x2="36.2332" y2="80.8557" gradientUnits="userSpaceOnUse">
<stop stop-color="#E3E4E8"/>
<stop offset="1" stop-color="#9E9EAB"/>
</linearGradient>
<linearGradient id="paint1_linear_30_45109" x1="49.1346" y1="76.6301" x2="64.899" y2="88.1979" gradientUnits="userSpaceOnUse">
<stop stop-color="#E3E4E8"/>
<stop offset="1" stop-color="#9E9EAB"/>
</linearGradient>
<linearGradient id="paint2_linear_30_45109" x1="64.3835" y1="73.8633" x2="111.991" y2="107.455" gradientUnits="userSpaceOnUse">
<stop stop-color="#E3E4E8"/>
<stop offset="1" stop-color="#9E9EAB"/>
</linearGradient>
<linearGradient id="paint3_linear_30_45109" x1="83.8981" y1="80.1701" x2="83.8382" y2="58.1609" gradientUnits="userSpaceOnUse">
<stop stop-color="white"/>
<stop offset="1"/>
</linearGradient>
<linearGradient id="paint4_linear_30_45109" x1="99.0471" y1="69.4185" x2="62.4269" y2="70.5081" gradientUnits="userSpaceOnUse">
<stop stop-color="#E3E4E8"/>
<stop offset="1" stop-color="#9E9EAB"/>
</linearGradient>
<linearGradient id="paint5_linear_30_45109" x1="78.3187" y1="115.054" x2="77.2538" y2="79.2663" gradientUnits="userSpaceOnUse">
<stop stop-color="#E3E4E8"/>
<stop offset="1" stop-color="#9E9EAB"/>
</linearGradient>
<linearGradient id="paint6_linear_30_45109" x1="114.239" y1="97.5508" x2="113.659" y2="78.0329" gradientUnits="userSpaceOnUse">
<stop stop-color="#E3E4E8"/>
<stop offset="1" stop-color="#9E9EAB"/>
</linearGradient>
<linearGradient id="paint7_linear_30_45109" x1="89.8673" y1="19.8886" x2="81.8029" y2="75.0559" gradientUnits="userSpaceOnUse">
<stop stop-color="#E3E4E8"/>
<stop offset="1" stop-color="#9E9EAB"/>
</linearGradient>
<linearGradient id="paint8_linear_30_45109" x1="79.2032" y1="62.5824" x2="84.2672" y2="27.9403" gradientUnits="userSpaceOnUse">
<stop stop-color="#E3E4E8"/>
<stop offset="1" stop-color="#9E9EAB"/>
</linearGradient>
<radialGradient id="paint9_radial_30_45109" cx="0" cy="0" r="1" gradientUnits="userSpaceOnUse" gradientTransform="translate(77.3104 29.6232) rotate(8.31664) scale(34.9827 35.0797)">
<stop stop-color="#4D4178"/>
<stop offset="1" stop-color="#27213B"/>
</radialGradient>
<linearGradient id="paint10_linear_30_45109" x1="81.4759" y1="50.0027" x2="79.8109" y2="61.3928" gradientUnits="userSpaceOnUse">
<stop stop-color="white"/>
<stop offset="1"/>
</linearGradient>
<linearGradient id="paint11_linear_30_45109" x1="102.432" y1="33.3638" x2="100.753" y2="44.8487" gradientUnits="userSpaceOnUse">
<stop stop-color="white"/>
<stop offset="1"/>
</linearGradient>
<linearGradient id="paint12_linear_30_45109" x1="103.547" y1="33.5224" x2="101.868" y2="45.0075" gradientUnits="userSpaceOnUse">
<stop stop-color="white"/>
<stop offset="1"/>
</linearGradient>
<linearGradient id="paint13_linear_30_45109" x1="95.8367" y1="32.3998" x2="94.1578" y2="43.8848" gradientUnits="userSpaceOnUse">
<stop stop-color="white"/>
<stop offset="1"/>
</linearGradient>
<linearGradient id="paint14_linear_30_45109" x1="110.442" y1="88.0597" x2="128.682" y2="107.381" gradientUnits="userSpaceOnUse">
<stop stop-color="#E3E4E8"/>
<stop offset="1" stop-color="#9E9EAB"/>
</linearGradient>
<linearGradient id="paint15_linear_30_45109" x1="96.5658" y1="94.9749" x2="96.5849" y2="117.185" gradientUnits="userSpaceOnUse">
<stop stop-color="#E3E4E8"/>
<stop offset="1" stop-color="#9E9EAB"/>
</linearGradient>
</defs>
</svg>
