<svg width="279" height="1801" viewBox="0 0 279 1801" fill="none" xmlns="http://www.w3.org/2000/svg">
<g opacity="0.4" clip-path="url(#clip0_78_331)">
<rect x="-0.5" y="0.5" width="1339" height="907" rx="35.5" transform="matrix(-1 0 0 1 277 923.424)" stroke="#25272B" stroke-opacity="0.25"/>
<rect x="-0.5" y="0.5" width="1339" height="907" rx="35.5" transform="matrix(-1 0 0 1 277 923.424)" stroke="#25272B" stroke-opacity="0.25"/>
<rect x="-0.5" y="0.5" width="1339" height="443" rx="35.5" transform="matrix(-1 0 0 1 277 0.421875)" stroke="#25272B" stroke-opacity="0.25"/>
<rect x="-0.5" y="0.5" width="1339" height="443" rx="35.5" transform="matrix(-1 0 0 1 277 0.421875)" stroke="#25272B" stroke-opacity="0.25"/>
<rect x="-0.5" y="0.5" width="1339" height="443" rx="35.5" transform="matrix(-1 0 0 1 277 464.422)" stroke="#25272B" stroke-opacity="0.25"/>
<rect x="-0.5" y="0.5" width="1339" height="443" rx="35.5" transform="matrix(-1 0 0 1 277 464.422)" stroke="#25272B" stroke-opacity="0.25"/>
</g>
<defs>
<clipPath id="clip0_78_331">
<rect width="279" height="1801" fill="white" transform="matrix(-1 0 0 1 279 0)"/>
</clipPath>
</defs>
</svg>
