<svg width="16" height="17" viewBox="0 0 16 17" fill="none" xmlns="http://www.w3.org/2000/svg">
<mask id="mask0_6_23946" style="mask-type:luminance" maskUnits="userSpaceOnUse" x="0" y="0" width="16" height="16">
<path d="M15.5276 0.530701H0.46875V15.5895H15.5276V0.530701Z" fill="white"/>
</mask>
<g mask="url(#mask0_6_23946)">
<path d="M7.90258 4.43694C7.90258 6.38619 6.3224 7.96635 4.37316 7.96635H0.84375V4.43694C0.84375 2.4877 2.42392 0.907532 4.37316 0.907532C6.3224 0.907532 7.90258 2.4877 7.90258 4.43694Z" fill="#1248C5"/>
<path d="M7.90234 11.4958C7.90234 9.54652 9.48254 7.96635 11.4317 7.96635H14.9611V11.4958C14.9611 13.445 13.381 15.0252 11.4317 15.0252C9.48254 15.0252 7.90234 13.445 7.90234 11.4958Z" fill="#1248C5"/>
<path d="M0.84375 11.4958C0.84375 13.445 2.42392 15.0252 4.37316 15.0252H7.90258V11.4958C7.90258 9.54652 6.3224 7.96635 4.37316 7.96635C2.42392 7.96635 0.84375 9.54652 0.84375 11.4958Z" fill="#1248C5"/>
<path d="M14.9611 4.43694C14.9611 2.4877 13.381 0.907532 11.4317 0.907532H7.90234V4.43694C7.90234 6.38619 9.48254 7.96635 11.4317 7.96635C13.381 7.96635 14.9611 6.38619 14.9611 4.43694Z" fill="#1248C5"/>
</g>
</svg>
