<svg width="15" height="16" viewBox="0 0 15 16" fill="none" xmlns="http://www.w3.org/2000/svg">
<path d="M7.40453 4.4547C7.40453 6.40395 5.82435 7.98412 3.87512 7.98412H0.345703V4.4547C0.345703 2.50546 1.92587 0.925293 3.87512 0.925293C5.82435 0.925293 7.40453 2.50546 7.40453 4.4547Z" fill="#2563EB"/>
<path d="M7.4043 11.5133C7.4043 9.56406 8.98449 7.98389 10.9337 7.98389H14.4631V11.5133C14.4631 13.4626 12.8829 15.0427 10.9337 15.0427C8.98449 15.0427 7.4043 13.4626 7.4043 11.5133Z" fill="#2563EB"/>
<path d="M0.345703 11.5133C0.345703 13.4626 1.92587 15.0427 3.87512 15.0427H7.40453V11.5133C7.40453 9.56406 5.82435 7.98389 3.87512 7.98389C1.92587 7.98389 0.345703 9.56406 0.345703 11.5133Z" fill="#2563EB"/>
<path d="M14.4631 4.4547C14.4631 2.50546 12.8829 0.925293 10.9337 0.925293H7.4043V4.4547C7.4043 6.40395 8.98449 7.98412 10.9337 7.98412C12.8829 7.98412 14.4631 6.40395 14.4631 4.4547Z" fill="#2563EB"/>
</svg>
